<?xml version="1.0" encoding="UTF-8" standalone="no"?>
<svg
   xmlns:dc="http://purl.org/dc/elements/1.1/"
   xmlns:cc="http://creativecommons.org/ns#"
   xmlns:rdf="http://www.w3.org/1999/02/22-rdf-syntax-ns#"
   xmlns:svg="http://www.w3.org/2000/svg"
   xmlns="http://www.w3.org/2000/svg"
   xmlns:sodipodi="http://sodipodi.sourceforge.net/DTD/sodipodi-0.dtd"
   xmlns:inkscape="http://www.inkscape.org/namespaces/inkscape"
   viewBox="0 0 644.1333 269.06668"
   height="269.06668"
   width="644.1333"
   xml:space="preserve"
   id="svg1399"
   version="1.1"
   sodipodi:docname="logo_advantageSolutions_gray.svg"
   inkscape:version="1.0 (4035a4f, 2020-05-01)"><sodipodi:namedview
     inkscape:document-rotation="0"
     pagecolor="#ffffff"
     bordercolor="#666666"
     borderopacity="1"
     objecttolerance="10"
     gridtolerance="10"
     guidetolerance="10"
     inkscape:pageopacity="0"
     inkscape:pageshadow="2"
     inkscape:window-width="1680"
     inkscape:window-height="896"
     id="namedview892"
     showgrid="false"
     inkscape:zoom="1.1053613"
     inkscape:cx="195.29535"
     inkscape:cy="90.203943"
     inkscape:window-x="0"
     inkscape:window-y="25"
     inkscape:window-maximized="0"
     inkscape:current-layer="svg1399" /><metadata
     id="metadata1405"><rdf:RDF><cc:Work
         rdf:about=""><dc:format>image/svg+xml</dc:format><dc:type
           rdf:resource="http://purl.org/dc/dcmitype/StillImage" /><dc:title></dc:title></cc:Work></rdf:RDF></metadata><defs
     id="defs1403"><clipPath
       id="clipPath1417"
       clipPathUnits="userSpaceOnUse"><path
         id="path1415"
         d="M 579.813,1197.63 421.875,858.961 c -7.664,-16.43 -5.266,-34.973 4.664,-48.691 L 979.148,21.1797 c 4.739,-7 11.364,-12.83986 19.563,-16.64845 24.119,-11.25 52.799,-0.83984 64.049,23.29685 L 1221.37,367.98 c 7.62,16.379 5.27,34.86 -4.58,48.571 L 662.672,1205.33 c -4.652,6.54 -11.027,11.99 -18.809,15.62 -24.129,11.25 -52.804,0.8 -64.05,-23.32 z" /></clipPath><linearGradient
       id="linearGradient1423"
       spreadMethod="pad"
       gradientTransform="matrix(-869.072,501.744,501.744,869.072,1255.83,361.88)"
       gradientUnits="userSpaceOnUse"
       y2="0"
       x2="1"
       y1="0"
       x1="0"><stop
         id="stop1419"
         offset="0"
         style="stop-opacity:1;stop-color:#f0423e" /><stop
         id="stop1421"
         offset="1"
         style="stop-opacity:1;stop-color:#d23935" /></linearGradient><clipPath
       id="clipPath1433"
       clipPathUnits="userSpaceOnUse"><path
         id="path1431"
         d="M 1910.47,2017.78 224.059,1869.98 c -16.407,-1.62 -31.563,-11.59 -39.039,-27.61 L 4.53516,1455.3 c -7.50782,-16.07 -5.371098,-34.18 4.04297,-47.79 L 222.23,1102.21 c 4.723,-6.99 11.34,-12.82 19.532,-16.64 24.121,-11.24 52.793,-0.82 64.043,23.31 l 157.293,337.3 c 7.582,16.27 23.101,26.32 39.816,27.68 l 1258.656,109.57 c 16.58,1.48 31.93,11.48 39.47,27.64 l 157.77,338.37 c 11.26,24.12 0.8,52.8 -23.31,64.05 -8.09,3.77 -16.72,5.11 -25.03,4.29 z" /></clipPath><linearGradient
       id="linearGradient1439"
       spreadMethod="pad"
       gradientTransform="matrix(-1312.51,757.755,757.755,1312.51,1596.47,1256.34)"
       gradientUnits="userSpaceOnUse"
       y2="0"
       x2="1"
       y1="0"
       x1="0"><stop
         id="stop1435"
         offset="0"
         style="stop-opacity:1;stop-color:#f0423e" /><stop
         id="stop1437"
         offset="1"
         style="stop-opacity:1;stop-color:#d23935" /></linearGradient></defs><g
     id="g1411"
     transform="matrix(0.13333333,0,0,-0.13333333,0,269.06667)"><g
       clip-path="url(#clipPath1417)"
       id="g1413"><path
         id="path1425"
         style="fill:url(#linearGradient1423);fill-opacity:1;fill-rule:nonzero;stroke:none"
         d="M 579.813,1197.63 421.875,858.961 c -7.664,-16.43 -5.266,-34.973 4.664,-48.691 L 979.148,21.1797 c 4.739,-7 11.364,-12.83986 19.563,-16.64845 24.119,-11.25 52.799,-0.83984 64.049,23.29685 L 1221.37,367.98 c 7.62,16.379 5.27,34.86 -4.58,48.571 L 662.672,1205.33 c -4.652,6.54 -11.027,11.99 -18.809,15.62 -24.129,11.25 -52.804,0.8 -64.05,-23.32" /></g></g><g
     id="g1427"
     transform="matrix(0.13333333,0,0,-0.13333333,0,269.06667)"><g
       clip-path="url(#clipPath1433)"
       id="g1429"><path
         id="path1441"
         style="fill:url(#linearGradient1439);fill-opacity:1;fill-rule:nonzero;stroke:none"
         d="M 1910.47,2017.78 224.059,1869.98 c -16.407,-1.62 -31.563,-11.59 -39.039,-27.61 L 4.53516,1455.3 c -7.50782,-16.07 -5.371098,-34.18 4.04297,-47.79 L 222.23,1102.21 c 4.723,-6.99 11.34,-12.82 19.532,-16.64 24.121,-11.24 52.793,-0.82 64.043,23.31 l 157.293,337.3 c 7.582,16.27 23.101,26.32 39.816,27.68 l 1258.656,109.57 c 16.58,1.48 31.93,11.48 39.47,27.64 l 157.77,338.37 c 11.26,24.12 0.8,52.8 -23.31,64.05 -8.09,3.77 -16.72,5.11 -25.03,4.29" /></g></g><path
     id="path1443"
     style="fill:#9199a1;fill-opacity:1;fill-rule:nonzero;stroke:none;stroke-width:0.133333"
     d="m 232.51066,132.34001 -7.988,-17.57467 h -0.24 l -7.82933,17.57467 z m -34.51333,17.01986 24.848,-53.769196 c 0.23866,-0.481333 0.63866,-0.88 1.35733,-0.88 h 0.79867 c 0.79866,0 1.11866,0.398667 1.35866,0.88 l 24.608,53.769196 c 0.47867,1.03854 -0.16,2.0776 -1.35733,2.0776 h -6.95067 c -1.2,0 -1.75866,-0.47866 -2.31866,-1.59893 l -3.91334,-8.62813 h -23.88933 l -3.91467,8.62813 c -0.32,0.79893 -1.04,1.59893 -2.31733,1.59893 H 199.356 c -1.19867,0 -1.83734,-1.03906 -1.35867,-2.0776" /><path
     id="path1445"
     style="fill:#9199a1;fill-opacity:1;fill-rule:nonzero;stroke:none;stroke-width:0.133333"
     d="m 276.13333,141.69067 c 10.38533,0 17.97733,-7.832 17.97733,-18.29733 0,-10.38667 -7.592,-18.21733 -17.97733,-18.21733 h -9.108 v 36.51466 z M 256.71999,97.028008 c 0,-0.8 0.63734,-1.518667 1.43734,-1.518667 h 18.93466 c 15.41867,0 28.044,12.545329 28.044,27.883999 0,15.49987 -12.62533,28.04413 -28.044,28.04413 h -18.93466 c -0.8,0 -1.43734,-0.71866 -1.43734,-1.51866 V 97.028008" /><path
     id="path1447"
     style="fill:#9199a1;fill-opacity:1;fill-rule:nonzero;stroke:none;stroke-width:0.133333"
     d="m 304.47999,97.588008 c -0.48,-1.038667 0.15867,-2.078667 1.356,-2.078667 h 8.152 c 0.71867,0 1.19734,0.48 1.356,0.878667 l 15.34134,34.356002 h 0.55733 l 15.34133,-34.356002 c 0.15867,-0.398667 0.63867,-0.878667 1.35733,-0.878667 h 8.15067 c 1.19733,0 1.836,1.04 1.356,2.078667 l -24.76533,53.769332 c -0.23867,0.47867 -0.64,0.8776 -1.35867,0.8776 h -0.8 c -0.71866,0 -1.11733,-0.39893 -1.35733,-0.8776 L 304.47999,97.588008" /><path
     id="path1449"
     style="fill:#9199a1;fill-opacity:1;fill-rule:nonzero;stroke:none;stroke-width:0.133333"
     d="m 385.41999,132.34001 -7.98933,-17.57467 h -0.24 l -7.83067,17.57467 z m -34.516,17.01986 24.84933,-53.769196 c 0.24,-0.481333 0.63734,-0.88 1.35734,-0.88 h 0.79866 c 0.8,0 1.11734,0.398667 1.36,0.88 l 24.60667,53.769196 c 0.47867,1.03854 -0.15867,2.0776 -1.36,2.0776 h -6.95067 c -1.19733,0 -1.75733,-0.47866 -2.31733,-1.59893 l -3.91467,-8.62813 h -23.888 l -3.91333,8.62813 c -0.32,0.79893 -1.03867,1.59893 -2.31733,1.59893 h -6.95067 c -1.19867,0 -1.83867,-1.03906 -1.36,-2.0776" /><path
     id="path1451"
     style="fill:#9199a1;fill-opacity:1;fill-rule:nonzero;stroke:none;stroke-width:0.133333"
     d="m 409.62532,96.149341 c 0,-0.8 0.71867,-1.438667 1.51867,-1.438667 h 1.99733 l 33.23734,35.313336 h 0.0773 V 97.028008 c 0,-0.8 0.64133,-1.518667 1.51867,-1.518667 h 7.352 c 0.79866,0 1.51733,0.718667 1.51733,1.518667 v 53.769332 c 0,0.79853 -0.71867,1.4376 -1.51733,1.4376 h -1.91734 l -33.39866,-36.67227 h -0.0773 v 34.35614 c 0,0.8 -0.64133,1.51866 -1.51866,1.51866 H 411.144 c -0.8,0 -1.51867,-0.71866 -1.51867,-1.51866 V 96.149341" /><path
     id="path1453"
     style="fill:#9199a1;fill-opacity:1;fill-rule:nonzero;stroke:none;stroke-width:0.133333"
     d="m 476.72932,105.09734 h -12.224 c -0.87733,0 -1.51733,-0.71867 -1.51733,-1.51867 v -6.550662 c 0,-0.8 0.64,-1.518667 1.51733,-1.518667 h 34.91467 c 0.87733,0 1.51866,0.718667 1.51866,1.518667 v 6.550662 c 0,0.8 -0.64133,1.51867 -1.51866,1.51867 h -12.224 v 44.82147 c 0,0.8 -0.71867,1.51866 -1.51867,1.51866 h -7.42933 c -0.8,0 -1.51867,-0.71866 -1.51867,-1.51866 v -44.82147" /><path
     id="path1455"
     style="fill:#9199a1;fill-opacity:1;fill-rule:nonzero;stroke:none;stroke-width:0.133333"
     d="m 530.87332,132.34001 -7.98933,-17.57467 h -0.24 l -7.83067,17.57467 z m -34.516,17.01986 24.84933,-53.769196 c 0.23867,-0.481333 0.63734,-0.88 1.356,-0.88 h 0.8 c 0.8,0 1.11734,0.398667 1.36,0.88 l 24.60667,53.769196 c 0.47867,1.03854 -0.16,2.0776 -1.36,2.0776 h -6.95067 c -1.19733,0 -1.75733,-0.47866 -2.31733,-1.59893 l -3.91467,-8.62813 h -23.888 l -3.91333,8.62813 c -0.32,0.79893 -1.04,1.59893 -2.31867,1.59893 h -6.94933 c -1.19867,0 -1.83867,-1.03906 -1.36,-2.0776" /><path
     id="path1457"
     style="fill:#9199a1;fill-opacity:1;fill-rule:nonzero;stroke:none;stroke-width:0.133333"
     d="m 577.39332,94.710674 c 7.19067,0 14.06267,2.796 19.496,7.430666 0.63733,0.64 0.71867,1.59733 0.08,2.23733 l -4.95333,5.192 c -0.64,0.64 -1.35867,0.64 -2.07734,0 -3.436,-3.03466 -7.66933,-4.63333 -12.06533,-4.63333 -9.98667,0 -17.896,8.54933 -17.896,18.536 0,9.90667 7.90933,18.29493 17.976,18.29493 4.47467,0 7.90933,-1.35626 9.508,-1.99746 v -6.78947 h -6.39333 c -0.87734,0 -1.51734,-0.64133 -1.51734,-1.43867 v -6.312 c 0,-0.88 0.64,-1.51733 1.51734,-1.51733 h 15.34133 c 0.8,0 1.43733,0.71867 1.43733,1.51733 v 20.4548 c 0,0.63694 -0.32,1.03854 -0.63733,1.27854 0,0 -8.22933,5.19173 -19.816,5.19173 -15.89733,0 -28.68133,-12.62507 -28.68133,-28.60373 0,-15.97867 12.784,-28.841336 28.68133,-28.841336" /><path
     id="path1459"
     style="fill:#9199a1;fill-opacity:1;fill-rule:nonzero;stroke:none;stroke-width:0.133333"
     d="m 608.57598,97.028008 c 0,-0.8 0.64134,-1.518667 1.51867,-1.518667 h 32.51733 c 0.87867,0 1.51867,0.718667 1.51867,1.518667 v 6.550662 c 0,0.8 -0.64,1.51867 -1.51867,1.51867 h -23.65066 v 13.10267 h 19.73466 c 0.8,0 1.51867,0.71866 1.51867,1.51866 v 6.62934 c 0,0.88 -0.71867,1.51866 -1.51867,1.51866 h -19.73466 v 13.9828 h 23.65066 c 0.87867,0 1.51867,0.7188 1.51867,1.5172 v 6.55214 c 0,0.8 -0.64,1.51866 -1.51867,1.51866 h -32.51733 c -0.87733,0 -1.51867,-0.71866 -1.51867,-1.51866 V 97.028008" /><path
     id="path1461"
     style="fill:#9199a1;fill-opacity:1;fill-rule:nonzero;stroke:none;stroke-width:0.133333"
     d="m 198.564,195.21614 2.03999,-3.51347 c 0.452,-0.79066 1.416,-0.79066 1.92534,-0.39586 0.284,0.1692 4.87333,3.51293 8.556,3.51293 2.94666,0 5.156,-1.92653 5.156,-4.36347 0,-2.888 -2.436,-4.87346 -7.196,-6.79746 -5.32534,-2.1536 -10.652,-5.55467 -10.652,-12.24 0,-5.04427 3.74,-10.88027 12.748,-10.88027 5.78,0 10.2,2.94787 11.33333,3.79747 0.56667,0.34106 0.736,1.30413 0.34,1.8692 l -2.15333,3.22973 c -0.45334,0.6796 -1.30267,1.13333 -1.98267,0.6796 -0.45467,-0.2812 -4.76,-3.11453 -7.876,-3.11453 -3.22933,0 -4.98667,2.15306 -4.98667,3.96666 0,2.66147 2.09734,4.476 6.68534,6.34534 5.49733,2.20933 11.84266,5.4948 11.84266,12.8052 0,5.83586 -5.04266,11.2188 -13.032,11.2188 -7.13866,0 -11.33199,-3.34387 -12.46533,-4.41987 -0.51066,-0.50933 -0.79333,-0.7932 -0.28266,-1.7" /><path
     id="path1463"
     style="fill:#9199a1;fill-opacity:1;fill-rule:nonzero;stroke:none;stroke-width:0.133333"
     d="m 248.11066,193.96934 c 7.13867,0 13.032,-5.836 13.032,-12.97453 0,-7.14014 -5.89333,-13.088 -13.032,-13.088 -7.13867,0 -12.976,5.94786 -12.976,13.088 0,7.13853 5.83733,12.97453 12.976,12.97453 z m 0,-33.4308 c 11.33333,0 20.39733,9.12293 20.39733,20.45627 0,11.33066 -9.064,20.3412 -20.39733,20.3412 -11.33333,0 -20.34133,-9.01054 -20.34133,-20.3412 0,-11.33334 9.008,-20.45627 20.34133,-20.45627" /><path
     id="path1465"
     style="fill:#9199a1;fill-opacity:1;fill-rule:nonzero;stroke:none;stroke-width:0.133333"
     d="m 275.11199,162.18281 c 0,-0.5656 0.45334,-1.076 1.07734,-1.076 h 5.212 c 0.568,0 1.07866,0.5104 1.07866,1.076 v 31.78653 h 14.448 c 0.62267,0 1.07467,0.50933 1.07467,1.0776 v 4.64627 c 0,0.56413 -0.452,1.07506 -1.07467,1.07506 h -20.73866 c -0.624,0 -1.07734,-0.51093 -1.07734,-1.07506 v -37.5104" /><path
     id="path1467"
     style="fill:#9199a1;fill-opacity:1;fill-rule:nonzero;stroke:none;stroke-width:0.133333"
     d="m 301.15199,162.18281 c 0,-0.5656 0.50934,-1.076 1.07467,-1.076 h 5.384 c 0.62133,0 1.076,0.5104 1.076,1.076 v 23.17453 c 0,4.8172 3.28533,8.612 8.21467,8.612 4.93066,0 8.27333,-3.7948 8.27333,-8.5548 v -23.23173 c 0,-0.5656 0.45333,-1.076 1.076,-1.076 h 5.38267 c 0.568,0 1.07866,0.5104 1.07866,1.076 v 23.57186 c 0,8.612 -6.85733,15.58134 -15.81066,15.58134 -8.896,0 -15.74934,-6.96934 -15.74934,-15.58134 v -23.57186" /><path
     id="path1469"
     style="fill:#9199a1;fill-opacity:1;fill-rule:nonzero;stroke:none;stroke-width:0.133333"
     d="m 346.84399,167.90681 h -8.66933 c -0.62134,0 -1.07467,-0.51094 -1.07467,-1.07867 v -4.64533 c 0,-0.5656 0.45333,-1.076 1.07467,-1.076 h 24.764 c 0.62133,0 1.07466,0.5104 1.07466,1.076 v 4.64533 c 0,0.56773 -0.45333,1.07867 -1.07466,1.07867 h -8.66934 v 31.7864 c 0,0.56413 -0.51066,1.07506 -1.07866,1.07506 h -5.268 c -0.568,0 -1.07867,-0.51093 -1.07867,-1.07506 v -31.7864" /><path
     id="path1471"
     style="fill:#9199a1;fill-opacity:1;fill-rule:nonzero;stroke:none;stroke-width:0.133333"
     d="m 368.64132,162.18281 c 0,-0.5656 0.51067,-1.076 1.076,-1.076 h 5.27067 c 0.56533,0 1.07467,0.5104 1.07467,1.076 v 37.5104 c 0,0.56413 -0.50934,1.07506 -1.07467,1.07506 h -5.27067 c -0.56533,0 -1.076,-0.51093 -1.076,-1.07506 v -37.5104" /><path
     id="path1473"
     style="fill:#9199a1;fill-opacity:1;fill-rule:nonzero;stroke:none;stroke-width:0.133333"
     d="m 402.91466,193.96934 c 7.14133,0 13.03333,-5.836 13.03333,-12.97453 0,-7.14014 -5.892,-13.088 -13.03333,-13.088 -7.13734,0 -12.97334,5.94786 -12.97334,13.088 0,7.13853 5.836,12.97453 12.97334,12.97453 z m 0,-33.4308 c 11.33333,0 20.39866,9.12293 20.39866,20.45627 0,11.33066 -9.06533,20.3412 -20.39866,20.3412 -11.33067,0 -20.34134,-9.01054 -20.34134,-20.3412 0,-11.33334 9.01067,-20.45627 20.34134,-20.45627" /><path
     id="path1475"
     style="fill:#9199a1;fill-opacity:1;fill-rule:nonzero;stroke:none;stroke-width:0.133333"
     d="m 429.91732,161.55987 c 0,-0.56773 0.51067,-1.02133 1.07867,-1.02133 h 1.416 l 23.57067,25.04427 h 0.0573 v -23.4 c 0,-0.5656 0.45333,-1.076 1.07467,-1.076 h 5.21466 c 0.564,0 1.07467,0.5104 1.07467,1.076 v 38.13173 c 0,0.56827 -0.51067,1.02147 -1.07467,1.02147 h -1.36266 l -23.68267,-26.00787 h -0.0573 v 24.36507 c 0,0.56413 -0.452,1.07506 -1.07467,1.07506 h -5.156 c -0.568,0 -1.07867,-0.51093 -1.07867,-1.07506 v -38.13334" /><path
     id="path1477"
     style="fill:#9199a1;fill-opacity:1;fill-rule:nonzero;stroke:none;stroke-width:0.133333"
     d="m 470.64399,195.21614 2.03866,-3.51347 c 0.45334,-0.79066 1.41734,-0.79066 1.928,-0.39586 0.28267,0.1692 4.872,3.51293 8.556,3.51293 2.94534,0 5.15734,-1.92653 5.15734,-4.36347 0,-2.888 -2.43734,-4.87346 -7.19867,-6.79746 -5.32533,-2.1536 -10.65067,-5.55467 -10.65067,-12.24 0,-5.04427 3.74,-10.88027 12.748,-10.88027 5.78,0 10.2,2.94787 11.33334,3.79747 0.56666,0.34106 0.736,1.30413 0.33733,1.8692 l -2.15067,3.22973 c -0.45333,0.6796 -1.304,1.13333 -1.984,0.6796 -0.45333,-0.2812 -4.75866,-3.11453 -7.87466,-3.11453 -3.22934,0 -4.988,2.15306 -4.988,3.96666 0,2.66147 2.09733,4.476 6.688,6.34534 5.49466,2.20933 11.84133,5.4948 11.84133,12.8052 0,5.83586 -5.044,11.2188 -13.032,11.2188 -7.14,0 -11.33333,-3.34387 -12.46533,-4.41987 -0.51067,-0.50933 -0.79467,-0.7932 -0.284,-1.7" /><path
     id="path1479"
     style="fill:#9199a1;fill-opacity:1;fill-rule:nonzero;stroke:none;stroke-width:0.133333"
     d="m 77.308398,109.38267 -21.058399,45.15587 c -1.021867,2.19067 -0.702134,4.66307 0.621866,6.49213 l 73.681195,105.21204 c 0.63187,0.93333 1.5152,1.71198 2.6084,2.21979 3.21587,1.5 7.03987,0.11198 8.53987,-3.10624 l 21.148,-45.35359 c 1.016,-2.18387 0.70267,-4.648 -0.61067,-6.47613 L 88.356264,108.35601 c -0.620266,-0.872 -1.470266,-1.59867 -2.507866,-2.08267 -3.2172,-1.5 -7.040533,-0.10667 -8.54,3.10933" /><path
     id="path1481"
     style="fill:#9199a1;fill-opacity:1;fill-rule:nonzero;stroke:none;stroke-width:0.133333"
     d="M 254.72933,0.02934339 29.874533,19.73601 c -2.1876,0.216 -4.2084,1.545333 -5.2052,3.681333 L 0.60468798,75.026675 c -1.00104264,2.142666 -0.71614638,4.557333 0.53906262,6.372 L 29.630666,122.10534 c 0.629733,0.932 1.512,1.70933 2.604267,2.21867 3.216133,1.49866 7.039066,0.10933 8.539066,-3.108 L 61.746398,76.242675 c 1.010934,-2.169333 3.080134,-3.509333 5.3088,-3.690667 L 234.87599,57.942675 c 2.21067,-0.197333 4.25734,-1.530666 5.26267,-3.685333 l 21.036,-45.1159988 c 1.50133,-3.216 0.10667,-7.0399999 -3.108,-8.53999982 -1.07867,-0.50266666 -2.22933,-0.68133332 -3.33733,-0.57199999" /><path
     id="path1483"
     style="fill:#9199a1;fill-opacity:1;fill-rule:nonzero;stroke:none;stroke-width:0.133333"
     d="m 232.51066,132.34001 -7.988,-17.57467 h -0.24 l -7.82933,17.57467 z m -34.51333,17.01986 24.848,-53.769196 c 0.23866,-0.481333 0.63866,-0.88 1.35733,-0.88 h 0.79867 c 0.79866,0 1.11866,0.398667 1.35866,0.88 l 24.608,53.769196 c 0.47867,1.03854 -0.16,2.0776 -1.35733,2.0776 h -6.95067 c -1.2,0 -1.75866,-0.47866 -2.31866,-1.59893 l -3.91334,-8.62813 h -23.88933 l -3.91467,8.62813 c -0.32,0.79893 -1.04,1.59893 -2.31733,1.59893 H 199.356 c -1.19867,0 -1.83734,-1.03906 -1.35867,-2.0776" /><path
     id="path1485"
     style="fill:#9199a1;fill-opacity:1;fill-rule:nonzero;stroke:none;stroke-width:0.133333"
     d="m 276.13333,141.69067 c 10.38533,0 17.97733,-7.832 17.97733,-18.29733 0,-10.38667 -7.592,-18.21733 -17.97733,-18.21733 h -9.108 v 36.51466 z M 256.71999,97.028008 c 0,-0.8 0.63734,-1.518667 1.43734,-1.518667 h 18.93466 c 15.41867,0 28.044,12.545329 28.044,27.883999 0,15.49987 -12.62533,28.04413 -28.044,28.04413 h -18.93466 c -0.8,0 -1.43734,-0.71866 -1.43734,-1.51866 V 97.028008" /><path
     id="path1487"
     style="fill:#9199a1;fill-opacity:1;fill-rule:nonzero;stroke:none;stroke-width:0.133333"
     d="m 304.47999,97.588008 c -0.48,-1.038667 0.15867,-2.078667 1.356,-2.078667 h 8.152 c 0.71867,0 1.19734,0.48 1.356,0.878667 l 15.34134,34.356002 h 0.55733 l 15.34133,-34.356002 c 0.15867,-0.398667 0.63867,-0.878667 1.35733,-0.878667 h 8.15067 c 1.19733,0 1.836,1.04 1.356,2.078667 l -24.76533,53.769332 c -0.23867,0.47867 -0.64,0.8776 -1.35867,0.8776 h -0.8 c -0.71866,0 -1.11733,-0.39893 -1.35733,-0.8776 L 304.47999,97.588008" /><path
     id="path1489"
     style="fill:#9199a1;fill-opacity:1;fill-rule:nonzero;stroke:none;stroke-width:0.133333"
     d="m 385.41999,132.34001 -7.98933,-17.57467 h -0.24 l -7.83067,17.57467 z m -34.516,17.01986 24.84933,-53.769196 c 0.24,-0.481333 0.63734,-0.88 1.35734,-0.88 h 0.79866 c 0.8,0 1.11734,0.398667 1.36,0.88 l 24.60667,53.769196 c 0.47867,1.03854 -0.15867,2.0776 -1.36,2.0776 h -6.95067 c -1.19733,0 -1.75733,-0.47866 -2.31733,-1.59893 l -3.91467,-8.62813 h -23.888 l -3.91333,8.62813 c -0.32,0.79893 -1.03867,1.59893 -2.31733,1.59893 h -6.95067 c -1.19867,0 -1.83867,-1.03906 -1.36,-2.0776" /><path
     id="path1491"
     style="fill:#9199a1;fill-opacity:1;fill-rule:nonzero;stroke:none;stroke-width:0.133333"
     d="m 409.62532,96.149341 c 0,-0.8 0.71867,-1.438667 1.51867,-1.438667 h 1.99733 l 33.23734,35.313336 h 0.0773 V 97.028008 c 0,-0.8 0.64133,-1.518667 1.51867,-1.518667 h 7.352 c 0.79866,0 1.51733,0.718667 1.51733,1.518667 v 53.769332 c 0,0.79853 -0.71867,1.4376 -1.51733,1.4376 h -1.91734 l -33.39866,-36.67227 h -0.0773 v 34.35614 c 0,0.8 -0.64133,1.51866 -1.51866,1.51866 H 411.144 c -0.8,0 -1.51867,-0.71866 -1.51867,-1.51866 V 96.149341" /><path
     id="path1493"
     style="fill:#9199a1;fill-opacity:1;fill-rule:nonzero;stroke:none;stroke-width:0.133333"
     d="m 476.72932,105.09734 h -12.224 c -0.87733,0 -1.51733,-0.71867 -1.51733,-1.51867 v -6.550662 c 0,-0.8 0.64,-1.518667 1.51733,-1.518667 h 34.91467 c 0.87733,0 1.51866,0.718667 1.51866,1.518667 v 6.550662 c 0,0.8 -0.64133,1.51867 -1.51866,1.51867 h -12.224 v 44.82147 c 0,0.8 -0.71867,1.51866 -1.51867,1.51866 h -7.42933 c -0.8,0 -1.51867,-0.71866 -1.51867,-1.51866 v -44.82147" /><path
     id="path1495"
     style="fill:#9199a1;fill-opacity:1;fill-rule:nonzero;stroke:none;stroke-width:0.133333"
     d="m 530.87332,132.34001 -7.98933,-17.57467 h -0.24 l -7.83067,17.57467 z m -34.516,17.01986 24.84933,-53.769196 c 0.23867,-0.481333 0.63734,-0.88 1.356,-0.88 h 0.8 c 0.8,0 1.11734,0.398667 1.36,0.88 l 24.60667,53.769196 c 0.47867,1.03854 -0.16,2.0776 -1.36,2.0776 h -6.95067 c -1.19733,0 -1.75733,-0.47866 -2.31733,-1.59893 l -3.91467,-8.62813 h -23.888 l -3.91333,8.62813 c -0.32,0.79893 -1.04,1.59893 -2.31867,1.59893 h -6.94933 c -1.19867,0 -1.83867,-1.03906 -1.36,-2.0776" /><path
     id="path1497"
     style="fill:#9199a1;fill-opacity:1;fill-rule:nonzero;stroke:none;stroke-width:0.133333"
     d="m 577.39332,94.710674 c 7.19067,0 14.06267,2.796 19.496,7.430666 0.63733,0.64 0.71867,1.59733 0.08,2.23733 l -4.95333,5.192 c -0.64,0.64 -1.35867,0.64 -2.07734,0 -3.436,-3.03466 -7.66933,-4.63333 -12.06533,-4.63333 -9.98667,0 -17.896,8.54933 -17.896,18.536 0,9.90667 7.90933,18.29493 17.976,18.29493 4.47467,0 7.90933,-1.35626 9.508,-1.99746 v -6.78947 h -6.39333 c -0.87734,0 -1.51734,-0.64133 -1.51734,-1.43867 v -6.312 c 0,-0.88 0.64,-1.51733 1.51734,-1.51733 h 15.34133 c 0.8,0 1.43733,0.71867 1.43733,1.51733 v 20.4548 c 0,0.63694 -0.32,1.03854 -0.63733,1.27854 0,0 -8.22933,5.19173 -19.816,5.19173 -15.89733,0 -28.68133,-12.62507 -28.68133,-28.60373 0,-15.97867 12.784,-28.841336 28.68133,-28.841336" /><path
     id="path1499"
     style="fill:#9199a1;fill-opacity:1;fill-rule:nonzero;stroke:none;stroke-width:0.133333"
     d="m 608.57598,97.028008 c 0,-0.8 0.64134,-1.518667 1.51867,-1.518667 h 32.51733 c 0.87867,0 1.51867,0.718667 1.51867,1.518667 v 6.550662 c 0,0.8 -0.64,1.51867 -1.51867,1.51867 h -23.65066 v 13.10267 h 19.73466 c 0.8,0 1.51867,0.71866 1.51867,1.51866 v 6.62934 c 0,0.88 -0.71867,1.51866 -1.51867,1.51866 h -19.73466 v 13.9828 h 23.65066 c 0.87867,0 1.51867,0.7188 1.51867,1.5172 v 6.55214 c 0,0.8 -0.64,1.51866 -1.51867,1.51866 h -32.51733 c -0.87733,0 -1.51867,-0.71866 -1.51867,-1.51866 V 97.028008" /><path
     id="path1501"
     style="fill:#9199a1;fill-opacity:1;fill-rule:nonzero;stroke:none;stroke-width:0.133333"
     d="m 198.564,195.21614 2.03999,-3.51347 c 0.452,-0.79066 1.416,-0.79066 1.92534,-0.39586 0.284,0.1692 4.87333,3.51293 8.556,3.51293 2.94666,0 5.156,-1.92653 5.156,-4.36347 0,-2.888 -2.436,-4.87346 -7.196,-6.79746 -5.32534,-2.1536 -10.652,-5.55467 -10.652,-12.24 0,-5.04427 3.74,-10.88027 12.748,-10.88027 5.78,0 10.2,2.94787 11.33333,3.79747 0.56667,0.34106 0.736,1.30413 0.34,1.8692 l -2.15333,3.22973 c -0.45334,0.6796 -1.30267,1.13333 -1.98267,0.6796 -0.45467,-0.2812 -4.76,-3.11453 -7.876,-3.11453 -3.22933,0 -4.98667,2.15306 -4.98667,3.96666 0,2.66147 2.09734,4.476 6.68534,6.34534 5.49733,2.20933 11.84266,5.4948 11.84266,12.8052 0,5.83586 -5.04266,11.2188 -13.032,11.2188 -7.13866,0 -11.33199,-3.34387 -12.46533,-4.41987 -0.51066,-0.50933 -0.79333,-0.7932 -0.28266,-1.7" /><path
     id="path1503"
     style="fill:#9199a1;fill-opacity:1;fill-rule:nonzero;stroke:none;stroke-width:0.133333"
     d="m 248.11066,193.96934 c 7.13867,0 13.032,-5.836 13.032,-12.97453 0,-7.14014 -5.89333,-13.088 -13.032,-13.088 -7.13867,0 -12.976,5.94786 -12.976,13.088 0,7.13853 5.83733,12.97453 12.976,12.97453 z m 0,-33.4308 c 11.33333,0 20.39733,9.12293 20.39733,20.45627 0,11.33066 -9.064,20.3412 -20.39733,20.3412 -11.33333,0 -20.34133,-9.01054 -20.34133,-20.3412 0,-11.33334 9.008,-20.45627 20.34133,-20.45627" /><path
     id="path1505"
     style="fill:#9199a1;fill-opacity:1;fill-rule:nonzero;stroke:none;stroke-width:0.133333"
     d="m 275.11199,162.18281 c 0,-0.5656 0.45334,-1.076 1.07734,-1.076 h 5.212 c 0.568,0 1.07866,0.5104 1.07866,1.076 v 31.78653 h 14.448 c 0.62267,0 1.07467,0.50933 1.07467,1.0776 v 4.64627 c 0,0.56413 -0.452,1.07506 -1.07467,1.07506 h -20.73866 c -0.624,0 -1.07734,-0.51093 -1.07734,-1.07506 v -37.5104" /><path
     id="path1507"
     style="fill:#9199a1;fill-opacity:1;fill-rule:nonzero;stroke:none;stroke-width:0.133333"
     d="m 301.15199,162.18281 c 0,-0.5656 0.50934,-1.076 1.07467,-1.076 h 5.384 c 0.62133,0 1.076,0.5104 1.076,1.076 v 23.17453 c 0,4.8172 3.28533,8.612 8.21467,8.612 4.93066,0 8.27333,-3.7948 8.27333,-8.5548 v -23.23173 c 0,-0.5656 0.45333,-1.076 1.076,-1.076 h 5.38267 c 0.568,0 1.07866,0.5104 1.07866,1.076 v 23.57186 c 0,8.612 -6.85733,15.58134 -15.81066,15.58134 -8.896,0 -15.74934,-6.96934 -15.74934,-15.58134 v -23.57186" /><path
     id="path1509"
     style="fill:#9199a1;fill-opacity:1;fill-rule:nonzero;stroke:none;stroke-width:0.133333"
     d="m 346.84399,167.90681 h -8.66933 c -0.62134,0 -1.07467,-0.51094 -1.07467,-1.07867 v -4.64533 c 0,-0.5656 0.45333,-1.076 1.07467,-1.076 h 24.764 c 0.62133,0 1.07466,0.5104 1.07466,1.076 v 4.64533 c 0,0.56773 -0.45333,1.07867 -1.07466,1.07867 h -8.66934 v 31.7864 c 0,0.56413 -0.51066,1.07506 -1.07866,1.07506 h -5.268 c -0.568,0 -1.07867,-0.51093 -1.07867,-1.07506 v -31.7864" /><path
     id="path1511"
     style="fill:#9199a1;fill-opacity:1;fill-rule:nonzero;stroke:none;stroke-width:0.133333"
     d="m 368.64132,162.18281 c 0,-0.5656 0.51067,-1.076 1.076,-1.076 h 5.27067 c 0.56533,0 1.07467,0.5104 1.07467,1.076 v 37.5104 c 0,0.56413 -0.50934,1.07506 -1.07467,1.07506 h -5.27067 c -0.56533,0 -1.076,-0.51093 -1.076,-1.07506 v -37.5104" /><path
     id="path1513"
     style="fill:#9199a1;fill-opacity:1;fill-rule:nonzero;stroke:none;stroke-width:0.133333"
     d="m 402.91466,193.96934 c 7.14133,0 13.03333,-5.836 13.03333,-12.97453 0,-7.14014 -5.892,-13.088 -13.03333,-13.088 -7.13734,0 -12.97334,5.94786 -12.97334,13.088 0,7.13853 5.836,12.97453 12.97334,12.97453 z m 0,-33.4308 c 11.33333,0 20.39866,9.12293 20.39866,20.45627 0,11.33066 -9.06533,20.3412 -20.39866,20.3412 -11.33067,0 -20.34134,-9.01054 -20.34134,-20.3412 0,-11.33334 9.01067,-20.45627 20.34134,-20.45627" /><path
     id="path1515"
     style="fill:#9199a1;fill-opacity:1;fill-rule:nonzero;stroke:none;stroke-width:0.133333"
     d="m 429.91732,161.55987 c 0,-0.56773 0.51067,-1.02133 1.07867,-1.02133 h 1.416 l 23.57067,25.04427 h 0.0573 v -23.4 c 0,-0.5656 0.45333,-1.076 1.07467,-1.076 h 5.21466 c 0.564,0 1.07467,0.5104 1.07467,1.076 v 38.13173 c 0,0.56827 -0.51067,1.02147 -1.07467,1.02147 h -1.36266 l -23.68267,-26.00787 h -0.0573 v 24.36507 c 0,0.56413 -0.452,1.07506 -1.07467,1.07506 h -5.156 c -0.568,0 -1.07867,-0.51093 -1.07867,-1.07506 v -38.13334" /><path
     id="path1517"
     style="fill:#9199a1;fill-opacity:1;fill-rule:nonzero;stroke:none;stroke-width:0.133333"
     d="m 470.64399,195.21614 2.03866,-3.51347 c 0.45334,-0.79066 1.41734,-0.79066 1.928,-0.39586 0.28267,0.1692 4.872,3.51293 8.556,3.51293 2.94534,0 5.15734,-1.92653 5.15734,-4.36347 0,-2.888 -2.43734,-4.87346 -7.19867,-6.79746 -5.32533,-2.1536 -10.65067,-5.55467 -10.65067,-12.24 0,-5.04427 3.74,-10.88027 12.748,-10.88027 5.78,0 10.2,2.94787 11.33334,3.79747 0.56666,0.34106 0.736,1.30413 0.33733,1.8692 l -2.15067,3.22973 c -0.45333,0.6796 -1.304,1.13333 -1.984,0.6796 -0.45333,-0.2812 -4.75866,-3.11453 -7.87466,-3.11453 -3.22934,0 -4.988,2.15306 -4.988,3.96666 0,2.66147 2.09733,4.476 6.688,6.34534 5.49466,2.20933 11.84133,5.4948 11.84133,12.8052 0,5.83586 -5.044,11.2188 -13.032,11.2188 -7.14,0 -11.33333,-3.34387 -12.46533,-4.41987 -0.51067,-0.50933 -0.79467,-0.7932 -0.284,-1.7" /></svg>
