<?xml version="1.0" encoding="UTF-8" standalone="no"?>
<svg
   xmlns:dc="http://purl.org/dc/elements/1.1/"
   xmlns:cc="http://creativecommons.org/ns#"
   xmlns:rdf="http://www.w3.org/1999/02/22-rdf-syntax-ns#"
   xmlns:svg="http://www.w3.org/2000/svg"
   xmlns="http://www.w3.org/2000/svg"
   viewBox="0 0 644.1333 269.06668"
   height="269.06668"
   width="644.1333"
   xml:space="preserve"
   id="svg1399"
   version="1.1"><metadata
     id="metadata1405"><rdf:RDF><cc:Work
         rdf:about=""><dc:format>image/svg+xml</dc:format><dc:type
           rdf:resource="http://purl.org/dc/dcmitype/StillImage" /><dc:title></dc:title></cc:Work></rdf:RDF></metadata><defs
     id="defs1403"><clipPath
       id="clipPath1417"
       clipPathUnits="userSpaceOnUse"><path
         id="path1415"
         d="M 579.813,1197.63 421.875,858.961 c -7.664,-16.43 -5.266,-34.973 4.664,-48.691 L 979.148,21.1797 c 4.739,-7 11.364,-12.83986 19.563,-16.64845 24.119,-11.25 52.799,-0.83984 64.049,23.29685 L 1221.37,367.98 c 7.62,16.379 5.27,34.86 -4.58,48.571 L 662.672,1205.33 c -4.652,6.54 -11.027,11.99 -18.809,15.62 -24.129,11.25 -52.804,0.8 -64.05,-23.32 z" /></clipPath><linearGradient
       id="linearGradient1423"
       spreadMethod="pad"
       gradientTransform="matrix(-869.072,501.744,501.744,869.072,1255.83,361.88)"
       gradientUnits="userSpaceOnUse"
       y2="0"
       x2="1"
       y1="0"
       x1="0"><stop
         id="stop1419"
         offset="0"
         style="stop-opacity:1;stop-color:#f0423e" /><stop
         id="stop1421"
         offset="1"
         style="stop-opacity:1;stop-color:#d23935" /></linearGradient><clipPath
       id="clipPath1433"
       clipPathUnits="userSpaceOnUse"><path
         id="path1431"
         d="M 1910.47,2017.78 224.059,1869.98 c -16.407,-1.62 -31.563,-11.59 -39.039,-27.61 L 4.53516,1455.3 c -7.50782,-16.07 -5.371098,-34.18 4.04297,-47.79 L 222.23,1102.21 c 4.723,-6.99 11.34,-12.82 19.532,-16.64 24.121,-11.24 52.793,-0.82 64.043,23.31 l 157.293,337.3 c 7.582,16.27 23.101,26.32 39.816,27.68 l 1258.656,109.57 c 16.58,1.48 31.93,11.48 39.47,27.64 l 157.77,338.37 c 11.26,24.12 0.8,52.8 -23.31,64.05 -8.09,3.77 -16.72,5.11 -25.03,4.29 z" /></clipPath><linearGradient
       id="linearGradient1439"
       spreadMethod="pad"
       gradientTransform="matrix(-1312.51,757.755,757.755,1312.51,1596.47,1256.34)"
       gradientUnits="userSpaceOnUse"
       y2="0"
       x2="1"
       y1="0"
       x1="0"><stop
         id="stop1435"
         offset="0"
         style="stop-opacity:1;stop-color:#f0423e" /><stop
         id="stop1437"
         offset="1"
         style="stop-opacity:1;stop-color:#d23935" /></linearGradient></defs><g
     transform="matrix(1.3333333,0,0,-1.3333333,0,269.06667)"
     id="g1407"><g
       transform="scale(0.1)"
       id="g1409"><g
         id="g1411"><g
           clip-path="url(#clipPath1417)"
           id="g1413"><path
             id="path1425"
             style="fill:url(#linearGradient1423);fill-opacity:1;fill-rule:nonzero;stroke:none"
             d="M 579.813,1197.63 421.875,858.961 c -7.664,-16.43 -5.266,-34.973 4.664,-48.691 L 979.148,21.1797 c 4.739,-7 11.364,-12.83986 19.563,-16.64845 24.119,-11.25 52.799,-0.83984 64.049,23.29685 L 1221.37,367.98 c 7.62,16.379 5.27,34.86 -4.58,48.571 L 662.672,1205.33 c -4.652,6.54 -11.027,11.99 -18.809,15.62 -24.129,11.25 -52.804,0.8 -64.05,-23.32" /></g></g><g
         id="g1427"><g
           clip-path="url(#clipPath1433)"
           id="g1429"><path
             id="path1441"
             style="fill:url(#linearGradient1439);fill-opacity:1;fill-rule:nonzero;stroke:none"
             d="M 1910.47,2017.78 224.059,1869.98 c -16.407,-1.62 -31.563,-11.59 -39.039,-27.61 L 4.53516,1455.3 c -7.50782,-16.07 -5.371098,-34.18 4.04297,-47.79 L 222.23,1102.21 c 4.723,-6.99 11.34,-12.82 19.532,-16.64 24.121,-11.24 52.793,-0.82 64.043,23.31 l 157.293,337.3 c 7.582,16.27 23.101,26.32 39.816,27.68 l 1258.656,109.57 c 16.58,1.48 31.93,11.48 39.47,27.64 l 157.77,338.37 c 11.26,24.12 0.8,52.8 -23.31,64.05 -8.09,3.77 -16.72,5.11 -25.03,4.29" /></g></g><path
         id="path1443"
         style="fill:#343333;fill-opacity:1;fill-rule:nonzero;stroke:none"
         d="m 1743.83,1025.45 -59.91,131.81 h -1.8 l -58.72,-131.81 z m -258.85,-127.649 186.36,403.269 c 1.79,3.61 4.79,6.6 10.18,6.6 h 5.99 c 5.99,0 8.39,-2.99 10.19,-6.6 l 184.56,-403.269 c 3.59,-7.789 -1.2,-15.582 -10.18,-15.582 h -52.13 c -9,0 -13.19,3.59 -17.39,11.992 l -29.35,64.711 h -179.17 l -29.36,-64.711 c -2.4,-5.992 -7.8,-11.992 -17.38,-11.992 h -52.13 c -8.99,0 -13.78,7.793 -10.19,15.582" /><path
         id="path1445"
         style="fill:#343333;fill-opacity:1;fill-rule:nonzero;stroke:none"
         d="m 2071,955.32 c 77.89,0 134.83,58.74 134.83,137.23 0,77.9 -56.94,136.63 -134.83,136.63 h -68.31 V 955.32 Z m -145.6,334.97 c 0,6 4.78,11.39 10.78,11.39 h 142.01 c 115.64,0 210.33,-94.09 210.33,-209.13 0,-116.249 -94.69,-210.331 -210.33,-210.331 h -142.01 c -6,0 -10.78,5.39 -10.78,11.39 v 396.681" /><path
         id="path1447"
         style="fill:#343333;fill-opacity:1;fill-rule:nonzero;stroke:none"
         d="m 2283.6,1286.09 c -3.6,7.79 1.19,15.59 10.17,15.59 h 61.14 c 5.39,0 8.98,-3.6 10.17,-6.59 l 115.06,-257.67 h 4.18 l 115.06,257.67 c 1.19,2.99 4.79,6.59 10.18,6.59 h 61.13 c 8.98,0 13.77,-7.8 10.17,-15.59 L 2495.12,882.82 c -1.79,-3.59 -4.8,-6.582 -10.19,-6.582 h -6 c -5.39,0 -8.38,2.992 -10.18,6.582 l -185.15,403.27" /><path
         id="path1449"
         style="fill:#343333;fill-opacity:1;fill-rule:nonzero;stroke:none"
         d="m 2890.65,1025.45 -59.92,131.81 h -1.8 l -58.73,-131.81 z m -258.87,-127.649 186.37,403.269 c 1.8,3.61 4.78,6.6 10.18,6.6 h 5.99 c 6,0 8.38,-2.99 10.2,-6.6 l 184.55,-403.269 c 3.59,-7.789 -1.19,-15.582 -10.2,-15.582 h -52.13 c -8.98,0 -13.18,3.59 -17.38,11.992 L 2920,958.922 h -179.16 l -29.35,-64.711 c -2.4,-5.992 -7.79,-11.992 -17.38,-11.992 h -52.13 c -8.99,0 -13.79,7.793 -10.2,15.582" /><path
         id="path1451"
         style="fill:#343333;fill-opacity:1;fill-rule:nonzero;stroke:none"
         d="m 3072.19,1296.88 c 0,6 5.39,10.79 11.39,10.79 h 14.98 l 249.28,-264.85 h 0.58 v 247.47 c 0,6 4.81,11.39 11.39,11.39 h 55.14 c 5.99,0 11.38,-5.39 11.38,-11.39 V 887.02 c 0,-5.989 -5.39,-10.782 -11.38,-10.782 h -14.38 l -250.49,275.042 h -0.58 V 893.609 c 0,-6 -4.81,-11.39 -11.39,-11.39 h -54.53 c -6,0 -11.39,5.39 -11.39,11.39 v 403.271" /><path
         id="path1453"
         style="fill:#343333;fill-opacity:1;fill-rule:nonzero;stroke:none"
         d="m 3575.47,1229.77 h -91.68 c -6.58,0 -11.38,5.39 -11.38,11.39 v 49.13 c 0,6 4.8,11.39 11.38,11.39 h 261.86 c 6.58,0 11.39,-5.39 11.39,-11.39 v -49.13 c 0,-6 -4.81,-11.39 -11.39,-11.39 h -91.68 V 893.609 c 0,-6 -5.39,-11.39 -11.39,-11.39 h -55.72 c -6,0 -11.39,5.39 -11.39,11.39 v 336.161" /><path
         id="path1455"
         style="fill:#343333;fill-opacity:1;fill-rule:nonzero;stroke:none"
         d="m 3981.55,1025.45 -59.92,131.81 h -1.8 l -58.73,-131.81 z m -258.87,-127.649 186.37,403.269 c 1.79,3.61 4.78,6.6 10.17,6.6 h 6 c 6,0 8.38,-2.99 10.2,-6.6 l 184.55,-403.269 c 3.59,-7.789 -1.2,-15.582 -10.2,-15.582 h -52.13 c -8.98,0 -13.18,3.59 -17.38,11.992 l -29.36,64.711 h -179.16 l -29.35,-64.711 c -2.4,-5.992 -7.8,-11.992 -17.39,-11.992 h -52.12 c -8.99,0 -13.79,7.793 -10.2,15.582" /><path
         id="path1457"
         style="fill:#343333;fill-opacity:1;fill-rule:nonzero;stroke:none"
         d="m 4330.45,1307.67 c 53.93,0 105.47,-20.97 146.22,-55.73 4.78,-4.8 5.39,-11.98 0.6,-16.78 l -37.15,-38.94 c -4.8,-4.8 -10.19,-4.8 -15.58,0 -25.77,22.76 -57.52,34.75 -90.49,34.75 -74.9,0 -134.22,-64.12 -134.22,-139.02 0,-74.3 59.32,-137.212 134.82,-137.212 33.56,0 59.32,10.172 71.31,14.981 v 50.921 h -47.95 c -6.58,0 -11.38,4.81 -11.38,10.79 v 47.34 c 0,6.6 4.8,11.38 11.38,11.38 h 115.06 c 6,0 10.78,-5.39 10.78,-11.38 V 925.359 c 0,-4.777 -2.4,-7.789 -4.78,-9.589 0,0 -61.72,-38.938 -148.62,-38.938 -119.23,0 -215.11,94.688 -215.11,214.528 0,119.84 95.88,216.31 215.11,216.31" /><path
         id="path1459"
         style="fill:#343333;fill-opacity:1;fill-rule:nonzero;stroke:none"
         d="m 4564.32,1290.29 c 0,6 4.81,11.39 11.39,11.39 h 243.88 c 6.59,0 11.39,-5.39 11.39,-11.39 v -49.13 c 0,-6 -4.8,-11.39 -11.39,-11.39 h -177.38 v -98.27 h 148.01 c 6,0 11.39,-5.39 11.39,-11.39 v -49.72 c 0,-6.6 -5.39,-11.39 -11.39,-11.39 H 4642.21 V 954.129 h 177.38 c 6.59,0 11.39,-5.391 11.39,-11.379 v -49.141 c 0,-6 -4.8,-11.39 -11.39,-11.39 h -243.88 c -6.58,0 -11.39,5.39 -11.39,11.39 v 396.681" /><path
         id="path1461"
         style="fill:#343333;fill-opacity:1;fill-rule:nonzero;stroke:none"
         d="m 1489.23,553.879 15.3,26.351 c 3.39,5.93 10.62,5.93 14.44,2.969 2.13,-1.269 36.55,-26.347 64.17,-26.347 22.1,0 38.67,14.449 38.67,32.726 0,21.66 -18.27,36.551 -53.97,50.981 -39.94,16.152 -79.89,41.66 -79.89,91.8 0,37.832 28.05,81.602 95.61,81.602 43.35,0 76.5,-22.109 85,-28.481 4.25,-2.558 5.52,-9.781 2.55,-14.019 l -16.15,-24.223 c -3.4,-5.097 -9.77,-8.5 -14.87,-5.097 -3.41,2.109 -35.7,23.359 -59.07,23.359 -24.22,0 -37.4,-16.148 -37.4,-29.75 0,-19.961 15.73,-33.57 50.14,-47.59 41.23,-16.57 88.82,-41.211 88.82,-96.039 0,-43.769 -37.82,-84.141 -97.74,-84.141 -53.54,0 -84.99,25.079 -93.49,33.149 -3.83,3.82 -5.95,5.949 -2.12,12.75" /><path
         id="path1463"
         style="fill:#343333;fill-opacity:1;fill-rule:nonzero;stroke:none"
         d="m 1860.83,563.23 c 53.54,0 97.74,43.77 97.74,97.309 0,53.551 -44.2,98.16 -97.74,98.16 -53.54,0 -97.32,-44.609 -97.32,-98.16 0,-53.539 43.78,-97.309 97.32,-97.309 z m 0,250.731 c 85,0 152.98,-68.422 152.98,-153.422 0,-84.98 -67.98,-152.559 -152.98,-152.559 -85,0 -152.56,67.579 -152.56,152.559 0,85 67.56,153.422 152.56,153.422" /><path
         id="path1465"
         style="fill:#343333;fill-opacity:1;fill-rule:nonzero;stroke:none"
         d="m 2063.34,801.629 c 0,4.242 3.4,8.07 8.08,8.07 h 39.09 c 4.26,0 8.09,-3.828 8.09,-8.07 V 563.23 h 108.36 c 4.67,0 8.06,-3.82 8.06,-8.082 v -34.847 c 0,-4.231 -3.39,-8.063 -8.06,-8.063 h -155.54 c -4.68,0 -8.08,3.832 -8.08,8.063 v 281.328" /><path
         id="path1467"
         style="fill:#343333;fill-opacity:1;fill-rule:nonzero;stroke:none"
         d="m 2258.64,801.629 c 0,4.242 3.82,8.07 8.06,8.07 h 40.38 c 4.66,0 8.07,-3.828 8.07,-8.07 V 627.82 c 0,-36.129 24.64,-64.59 61.61,-64.59 36.98,0 62.05,28.461 62.05,64.161 v 174.238 c 0,4.242 3.4,8.07 8.07,8.07 h 40.37 c 4.26,0 8.09,-3.828 8.09,-8.07 V 624.84 c 0,-64.59 -51.43,-116.86 -118.58,-116.86 -66.72,0 -118.12,52.27 -118.12,116.86 v 176.789" /><path
         id="path1469"
         style="fill:#343333;fill-opacity:1;fill-rule:nonzero;stroke:none"
         d="m 2601.33,758.699 h -65.02 c -4.66,0 -8.06,3.832 -8.06,8.09 v 34.84 c 0,4.242 3.4,8.07 8.06,8.07 h 185.73 c 4.66,0 8.06,-3.828 8.06,-8.07 v -34.84 c 0,-4.258 -3.4,-8.09 -8.06,-8.09 h -65.02 V 520.301 c 0,-4.231 -3.83,-8.063 -8.09,-8.063 h -39.51 c -4.26,0 -8.09,3.832 -8.09,8.063 v 238.398" /><path
         id="path1471"
         style="fill:#343333;fill-opacity:1;fill-rule:nonzero;stroke:none"
         d="m 2764.81,801.629 c 0,4.242 3.83,8.07 8.07,8.07 h 39.53 c 4.24,0 8.06,-3.828 8.06,-8.07 V 520.301 c 0,-4.231 -3.82,-8.063 -8.06,-8.063 h -39.53 c -4.24,0 -8.07,3.832 -8.07,8.063 v 281.328" /><path
         id="path1473"
         style="fill:#343333;fill-opacity:1;fill-rule:nonzero;stroke:none"
         d="m 3021.86,563.23 c 53.56,0 97.75,43.77 97.75,97.309 0,53.551 -44.19,98.16 -97.75,98.16 -53.53,0 -97.3,-44.609 -97.3,-98.16 0,-53.539 43.77,-97.309 97.3,-97.309 z m 0,250.731 c 85,0 152.99,-68.422 152.99,-153.422 0,-84.98 -67.99,-152.559 -152.99,-152.559 -84.98,0 -152.56,67.579 -152.56,152.559 0,85 67.58,153.422 152.56,153.422" /><path
         id="path1475"
         style="fill:#343333;fill-opacity:1;fill-rule:nonzero;stroke:none"
         d="m 3224.38,806.301 c 0,4.258 3.83,7.66 8.09,7.66 h 10.62 l 176.78,-187.832 h 0.43 v 175.5 c 0,4.242 3.4,8.07 8.06,8.07 h 39.11 c 4.23,0 8.06,-3.828 8.06,-8.07 V 515.641 c 0,-4.262 -3.83,-7.661 -8.06,-7.661 h -10.22 l -177.62,195.059 h -0.43 V 520.301 c 0,-4.231 -3.39,-8.063 -8.06,-8.063 h -38.67 c -4.26,0 -8.09,3.832 -8.09,8.063 v 286" /><path
         id="path1477"
         style="fill:#343333;fill-opacity:1;fill-rule:nonzero;stroke:none"
         d="m 3529.83,553.879 15.29,26.351 c 3.4,5.93 10.63,5.93 14.46,2.969 2.12,-1.269 36.54,-26.347 64.17,-26.347 22.09,0 38.68,14.449 38.68,32.726 0,21.66 -18.28,36.551 -53.99,50.981 -39.94,16.152 -79.88,41.66 -79.88,91.8 0,37.832 28.05,81.602 95.61,81.602 43.35,0 76.5,-22.109 85,-28.481 4.25,-2.558 5.52,-9.781 2.53,-14.019 l -16.13,-24.223 c -3.4,-5.097 -9.78,-8.5 -14.88,-5.097 -3.4,2.109 -35.69,23.359 -59.06,23.359 -24.22,0 -37.41,-16.148 -37.41,-29.75 0,-19.961 15.73,-33.57 50.16,-47.59 41.21,-16.57 88.81,-41.211 88.81,-96.039 0,-43.769 -37.83,-84.141 -97.74,-84.141 -53.55,0 -85,25.079 -93.49,33.149 -3.83,3.82 -5.96,5.949 -2.13,12.75" /><path
         id="path1479"
         style="fill:#f0423e;fill-opacity:1;fill-rule:nonzero;stroke:none"
         d="M 579.813,1197.63 421.875,858.961 c -7.664,-16.43 -5.266,-34.973 4.664,-48.691 L 979.148,21.1797 c 4.739,-7 11.364,-12.83986 19.563,-16.64845 24.119,-11.25 52.799,-0.83984 64.049,23.29685 L 1221.37,367.98 c 7.62,16.379 5.27,34.86 -4.58,48.571 L 662.672,1205.33 c -4.652,6.54 -11.027,11.99 -18.809,15.62 -24.129,11.25 -52.804,0.8 -64.05,-23.32" /><path
         id="path1481"
         style="fill:#f0423e;fill-opacity:1;fill-rule:nonzero;stroke:none"
         d="M 1910.47,2017.78 224.059,1869.98 c -16.407,-1.62 -31.563,-11.59 -39.039,-27.61 L 4.53516,1455.3 c -7.50782,-16.07 -5.371098,-34.18 4.04297,-47.79 L 222.23,1102.21 c 4.723,-6.99 11.34,-12.82 19.532,-16.64 24.121,-11.24 52.793,-0.82 64.043,23.31 l 157.293,337.3 c 7.582,16.27 23.101,26.32 39.816,27.68 l 1258.656,109.57 c 16.58,1.48 31.93,11.48 39.47,27.64 l 157.77,338.37 c 11.26,24.12 0.8,52.8 -23.31,64.05 -8.09,3.77 -16.72,5.11 -25.03,4.29" /><path
         id="path1483"
         style="fill:#343333;fill-opacity:1;fill-rule:nonzero;stroke:none"
         d="m 1743.83,1025.45 -59.91,131.81 h -1.8 l -58.72,-131.81 z m -258.85,-127.649 186.36,403.269 c 1.79,3.61 4.79,6.6 10.18,6.6 h 5.99 c 5.99,0 8.39,-2.99 10.19,-6.6 l 184.56,-403.269 c 3.59,-7.789 -1.2,-15.582 -10.18,-15.582 h -52.13 c -9,0 -13.19,3.59 -17.39,11.992 l -29.35,64.711 h -179.17 l -29.36,-64.711 c -2.4,-5.992 -7.8,-11.992 -17.38,-11.992 h -52.13 c -8.99,0 -13.78,7.793 -10.19,15.582" /><path
         id="path1485"
         style="fill:#343333;fill-opacity:1;fill-rule:nonzero;stroke:none"
         d="m 2071,955.32 c 77.89,0 134.83,58.74 134.83,137.23 0,77.9 -56.94,136.63 -134.83,136.63 h -68.31 V 955.32 Z m -145.6,334.97 c 0,6 4.78,11.39 10.78,11.39 h 142.01 c 115.64,0 210.33,-94.09 210.33,-209.13 0,-116.249 -94.69,-210.331 -210.33,-210.331 h -142.01 c -6,0 -10.78,5.39 -10.78,11.39 v 396.681" /><path
         id="path1487"
         style="fill:#343333;fill-opacity:1;fill-rule:nonzero;stroke:none"
         d="m 2283.6,1286.09 c -3.6,7.79 1.19,15.59 10.17,15.59 h 61.14 c 5.39,0 8.98,-3.6 10.17,-6.59 l 115.06,-257.67 h 4.18 l 115.06,257.67 c 1.19,2.99 4.79,6.59 10.18,6.59 h 61.13 c 8.98,0 13.77,-7.8 10.17,-15.59 L 2495.12,882.82 c -1.79,-3.59 -4.8,-6.582 -10.19,-6.582 h -6 c -5.39,0 -8.38,2.992 -10.18,6.582 l -185.15,403.27" /><path
         id="path1489"
         style="fill:#343333;fill-opacity:1;fill-rule:nonzero;stroke:none"
         d="m 2890.65,1025.45 -59.92,131.81 h -1.8 l -58.73,-131.81 z m -258.87,-127.649 186.37,403.269 c 1.8,3.61 4.78,6.6 10.18,6.6 h 5.99 c 6,0 8.38,-2.99 10.2,-6.6 l 184.55,-403.269 c 3.59,-7.789 -1.19,-15.582 -10.2,-15.582 h -52.13 c -8.98,0 -13.18,3.59 -17.38,11.992 L 2920,958.922 h -179.16 l -29.35,-64.711 c -2.4,-5.992 -7.79,-11.992 -17.38,-11.992 h -52.13 c -8.99,0 -13.79,7.793 -10.2,15.582" /><path
         id="path1491"
         style="fill:#343333;fill-opacity:1;fill-rule:nonzero;stroke:none"
         d="m 3072.19,1296.88 c 0,6 5.39,10.79 11.39,10.79 h 14.98 l 249.28,-264.85 h 0.58 v 247.47 c 0,6 4.81,11.39 11.39,11.39 h 55.14 c 5.99,0 11.38,-5.39 11.38,-11.39 V 887.02 c 0,-5.989 -5.39,-10.782 -11.38,-10.782 h -14.38 l -250.49,275.042 h -0.58 V 893.609 c 0,-6 -4.81,-11.39 -11.39,-11.39 h -54.53 c -6,0 -11.39,5.39 -11.39,11.39 v 403.271" /><path
         id="path1493"
         style="fill:#343333;fill-opacity:1;fill-rule:nonzero;stroke:none"
         d="m 3575.47,1229.77 h -91.68 c -6.58,0 -11.38,5.39 -11.38,11.39 v 49.13 c 0,6 4.8,11.39 11.38,11.39 h 261.86 c 6.58,0 11.39,-5.39 11.39,-11.39 v -49.13 c 0,-6 -4.81,-11.39 -11.39,-11.39 h -91.68 V 893.609 c 0,-6 -5.39,-11.39 -11.39,-11.39 h -55.72 c -6,0 -11.39,5.39 -11.39,11.39 v 336.161" /><path
         id="path1495"
         style="fill:#343333;fill-opacity:1;fill-rule:nonzero;stroke:none"
         d="m 3981.55,1025.45 -59.92,131.81 h -1.8 l -58.73,-131.81 z m -258.87,-127.649 186.37,403.269 c 1.79,3.61 4.78,6.6 10.17,6.6 h 6 c 6,0 8.38,-2.99 10.2,-6.6 l 184.55,-403.269 c 3.59,-7.789 -1.2,-15.582 -10.2,-15.582 h -52.13 c -8.98,0 -13.18,3.59 -17.38,11.992 l -29.36,64.711 h -179.16 l -29.35,-64.711 c -2.4,-5.992 -7.8,-11.992 -17.39,-11.992 h -52.12 c -8.99,0 -13.79,7.793 -10.2,15.582" /><path
         id="path1497"
         style="fill:#343333;fill-opacity:1;fill-rule:nonzero;stroke:none"
         d="m 4330.45,1307.67 c 53.93,0 105.47,-20.97 146.22,-55.73 4.78,-4.8 5.39,-11.98 0.6,-16.78 l -37.15,-38.94 c -4.8,-4.8 -10.19,-4.8 -15.58,0 -25.77,22.76 -57.52,34.75 -90.49,34.75 -74.9,0 -134.22,-64.12 -134.22,-139.02 0,-74.3 59.32,-137.212 134.82,-137.212 33.56,0 59.32,10.172 71.31,14.981 v 50.921 h -47.95 c -6.58,0 -11.38,4.81 -11.38,10.79 v 47.34 c 0,6.6 4.8,11.38 11.38,11.38 h 115.06 c 6,0 10.78,-5.39 10.78,-11.38 V 925.359 c 0,-4.777 -2.4,-7.789 -4.78,-9.589 0,0 -61.72,-38.938 -148.62,-38.938 -119.23,0 -215.11,94.688 -215.11,214.528 0,119.84 95.88,216.31 215.11,216.31" /><path
         id="path1499"
         style="fill:#343333;fill-opacity:1;fill-rule:nonzero;stroke:none"
         d="m 4564.32,1290.29 c 0,6 4.81,11.39 11.39,11.39 h 243.88 c 6.59,0 11.39,-5.39 11.39,-11.39 v -49.13 c 0,-6 -4.8,-11.39 -11.39,-11.39 h -177.38 v -98.27 h 148.01 c 6,0 11.39,-5.39 11.39,-11.39 v -49.72 c 0,-6.6 -5.39,-11.39 -11.39,-11.39 H 4642.21 V 954.129 h 177.38 c 6.59,0 11.39,-5.391 11.39,-11.379 v -49.141 c 0,-6 -4.8,-11.39 -11.39,-11.39 h -243.88 c -6.58,0 -11.39,5.39 -11.39,11.39 v 396.681" /><path
         id="path1501"
         style="fill:#343333;fill-opacity:1;fill-rule:nonzero;stroke:none"
         d="m 1489.23,553.879 15.3,26.351 c 3.39,5.93 10.62,5.93 14.44,2.969 2.13,-1.269 36.55,-26.347 64.17,-26.347 22.1,0 38.67,14.449 38.67,32.726 0,21.66 -18.27,36.551 -53.97,50.981 -39.94,16.152 -79.89,41.66 -79.89,91.8 0,37.832 28.05,81.602 95.61,81.602 43.35,0 76.5,-22.109 85,-28.481 4.25,-2.558 5.52,-9.781 2.55,-14.019 l -16.15,-24.223 c -3.4,-5.097 -9.77,-8.5 -14.87,-5.097 -3.41,2.109 -35.7,23.359 -59.07,23.359 -24.22,0 -37.4,-16.148 -37.4,-29.75 0,-19.961 15.73,-33.57 50.14,-47.59 41.23,-16.57 88.82,-41.211 88.82,-96.039 0,-43.769 -37.82,-84.141 -97.74,-84.141 -53.54,0 -84.99,25.079 -93.49,33.149 -3.83,3.82 -5.95,5.949 -2.12,12.75" /><path
         id="path1503"
         style="fill:#343333;fill-opacity:1;fill-rule:nonzero;stroke:none"
         d="m 1860.83,563.23 c 53.54,0 97.74,43.77 97.74,97.309 0,53.551 -44.2,98.16 -97.74,98.16 -53.54,0 -97.32,-44.609 -97.32,-98.16 0,-53.539 43.78,-97.309 97.32,-97.309 z m 0,250.731 c 85,0 152.98,-68.422 152.98,-153.422 0,-84.98 -67.98,-152.559 -152.98,-152.559 -85,0 -152.56,67.579 -152.56,152.559 0,85 67.56,153.422 152.56,153.422" /><path
         id="path1505"
         style="fill:#343333;fill-opacity:1;fill-rule:nonzero;stroke:none"
         d="m 2063.34,801.629 c 0,4.242 3.4,8.07 8.08,8.07 h 39.09 c 4.26,0 8.09,-3.828 8.09,-8.07 V 563.23 h 108.36 c 4.67,0 8.06,-3.82 8.06,-8.082 v -34.847 c 0,-4.231 -3.39,-8.063 -8.06,-8.063 h -155.54 c -4.68,0 -8.08,3.832 -8.08,8.063 v 281.328" /><path
         id="path1507"
         style="fill:#343333;fill-opacity:1;fill-rule:nonzero;stroke:none"
         d="m 2258.64,801.629 c 0,4.242 3.82,8.07 8.06,8.07 h 40.38 c 4.66,0 8.07,-3.828 8.07,-8.07 V 627.82 c 0,-36.129 24.64,-64.59 61.61,-64.59 36.98,0 62.05,28.461 62.05,64.161 v 174.238 c 0,4.242 3.4,8.07 8.07,8.07 h 40.37 c 4.26,0 8.09,-3.828 8.09,-8.07 V 624.84 c 0,-64.59 -51.43,-116.86 -118.58,-116.86 -66.72,0 -118.12,52.27 -118.12,116.86 v 176.789" /><path
         id="path1509"
         style="fill:#343333;fill-opacity:1;fill-rule:nonzero;stroke:none"
         d="m 2601.33,758.699 h -65.02 c -4.66,0 -8.06,3.832 -8.06,8.09 v 34.84 c 0,4.242 3.4,8.07 8.06,8.07 h 185.73 c 4.66,0 8.06,-3.828 8.06,-8.07 v -34.84 c 0,-4.258 -3.4,-8.09 -8.06,-8.09 h -65.02 V 520.301 c 0,-4.231 -3.83,-8.063 -8.09,-8.063 h -39.51 c -4.26,0 -8.09,3.832 -8.09,8.063 v 238.398" /><path
         id="path1511"
         style="fill:#343333;fill-opacity:1;fill-rule:nonzero;stroke:none"
         d="m 2764.81,801.629 c 0,4.242 3.83,8.07 8.07,8.07 h 39.53 c 4.24,0 8.06,-3.828 8.06,-8.07 V 520.301 c 0,-4.231 -3.82,-8.063 -8.06,-8.063 h -39.53 c -4.24,0 -8.07,3.832 -8.07,8.063 v 281.328" /><path
         id="path1513"
         style="fill:#343333;fill-opacity:1;fill-rule:nonzero;stroke:none"
         d="m 3021.86,563.23 c 53.56,0 97.75,43.77 97.75,97.309 0,53.551 -44.19,98.16 -97.75,98.16 -53.53,0 -97.3,-44.609 -97.3,-98.16 0,-53.539 43.77,-97.309 97.3,-97.309 z m 0,250.731 c 85,0 152.99,-68.422 152.99,-153.422 0,-84.98 -67.99,-152.559 -152.99,-152.559 -84.98,0 -152.56,67.579 -152.56,152.559 0,85 67.58,153.422 152.56,153.422" /><path
         id="path1515"
         style="fill:#343333;fill-opacity:1;fill-rule:nonzero;stroke:none"
         d="m 3224.38,806.301 c 0,4.258 3.83,7.66 8.09,7.66 h 10.62 l 176.78,-187.832 h 0.43 v 175.5 c 0,4.242 3.4,8.07 8.06,8.07 h 39.11 c 4.23,0 8.06,-3.828 8.06,-8.07 V 515.641 c 0,-4.262 -3.83,-7.661 -8.06,-7.661 h -10.22 l -177.62,195.059 h -0.43 V 520.301 c 0,-4.231 -3.39,-8.063 -8.06,-8.063 h -38.67 c -4.26,0 -8.09,3.832 -8.09,8.063 v 286" /><path
         id="path1517"
         style="fill:#343333;fill-opacity:1;fill-rule:nonzero;stroke:none"
         d="m 3529.83,553.879 15.29,26.351 c 3.4,5.93 10.63,5.93 14.46,2.969 2.12,-1.269 36.54,-26.347 64.17,-26.347 22.09,0 38.68,14.449 38.68,32.726 0,21.66 -18.28,36.551 -53.99,50.981 -39.94,16.152 -79.88,41.66 -79.88,91.8 0,37.832 28.05,81.602 95.61,81.602 43.35,0 76.5,-22.109 85,-28.481 4.25,-2.558 5.52,-9.781 2.53,-14.019 l -16.13,-24.223 c -3.4,-5.097 -9.78,-8.5 -14.88,-5.097 -3.4,2.109 -35.69,23.359 -59.06,23.359 -24.22,0 -37.41,-16.148 -37.41,-29.75 0,-19.961 15.73,-33.57 50.16,-47.59 41.21,-16.57 88.81,-41.211 88.81,-96.039 0,-43.769 -37.83,-84.141 -97.74,-84.141 -53.55,0 -85,25.079 -93.49,33.149 -3.83,3.82 -5.96,5.949 -2.13,12.75" /></g></g></svg>
