<?xml version="1.0" encoding="UTF-8" standalone="no"?>
<svg
   xmlns:dc="http://purl.org/dc/elements/1.1/"
   xmlns:cc="http://creativecommons.org/ns#"
   xmlns:rdf="http://www.w3.org/1999/02/22-rdf-syntax-ns#"
   xmlns:svg="http://www.w3.org/2000/svg"
   xmlns="http://www.w3.org/2000/svg"
   xmlns:sodipodi="http://sodipodi.sourceforge.net/DTD/sodipodi-0.dtd"
   xmlns:inkscape="http://www.inkscape.org/namespaces/inkscape"
   inkscape:version="1.0 (4035a4f, 2020-05-01)"
   sodipodi:docname="logo-bewotec.svg"
   xml:space="preserve"
   viewBox="0 0 225.39999 40"
   height="40"
   width="225.39999"
   y="0px"
   x="0px"
   id="Ebene_1"
   version="1.1"><metadata
   id="metadata1014"><rdf:RDF><cc:Work
       rdf:about=""><dc:format>image/svg+xml</dc:format><dc:type
         rdf:resource="http://purl.org/dc/dcmitype/StillImage" /></cc:Work></rdf:RDF></metadata><defs
   id="defs1012" /><sodipodi:namedview
   inkscape:current-layer="Ebene_1"
   inkscape:window-maximized="0"
   inkscape:window-y="25"
   inkscape:window-x="45"
   inkscape:cy="20"
   inkscape:cx="112.8"
   inkscape:zoom="3.425"
   showgrid="false"
   id="namedview1010"
   inkscape:window-height="763"
   inkscape:window-width="1503"
   inkscape:pageshadow="2"
   inkscape:pageopacity="0"
   guidetolerance="10"
   gridtolerance="10"
   objecttolerance="10"
   borderopacity="1"
   bordercolor="#666666"
   pagecolor="#ffffff" />
<style
   id="style983"
   type="text/css">
	.st0{fill-rule:evenodd;clip-rule:evenodd;fill:#E80033;}
	.st1{fill-rule:evenodd;clip-rule:evenodd;fill:#FFFFFF;}
	.st2{fill-rule:evenodd;clip-rule:evenodd;fill:#E5152E;}
	.st3{fill:#91A199;}
	.st4{fill:#E3032E;}
	.st5{fill:none;stroke:#1D1D1B;stroke-width:0.6133;}
	.st6{fill-rule:evenodd;clip-rule:evenodd;fill:#D51130;}
	.st7{fill-rule:evenodd;clip-rule:evenodd;}
	.st8{fill:#10384F;}
	.st9{fill:#89D329;}
	.st10{fill:#00BCFF;}
	.st11{fill-rule:evenodd;clip-rule:evenodd;fill:#008BD2;}
	.st12{fill-rule:evenodd;clip-rule:evenodd;fill:#9D9D9C;}
	.st13{fill-rule:evenodd;clip-rule:evenodd;fill:#001F60;}
	.st14{fill:#001F60;}
	.st15{fill:#0082CA;}
	.st16{fill:none;stroke:#0082CA;stroke-width:4.163924e-02;stroke-miterlimit:3.2;}
	.st17{fill:#DD2038;}
	.st18{fill:#717878;}
	.st19{fill-rule:evenodd;clip-rule:evenodd;fill:#717878;}
	.st20{fill:#253646;}
	.st21{fill:#D7041D;}
	.st22{fill-rule:evenodd;clip-rule:evenodd;fill:#009FE3;}
	.st23{fill-rule:evenodd;clip-rule:evenodd;fill:#0069B4;}
	.st24{fill-rule:evenodd;clip-rule:evenodd;fill:#575756;}
	.st25{fill-rule:evenodd;clip-rule:evenodd;fill:#FFD500;}
	.st26{fill:#FFDD00;}
	.st27{fill-rule:evenodd;clip-rule:evenodd;fill:#50B848;}
	.st28{fill:#50B848;}
	.st29{fill:none;stroke:#FFFFFF;stroke-width:1.0166;stroke-miterlimit:3.864;}
	.st30{fill:none;stroke:#50B848;stroke-width:0.9727;stroke-linecap:round;stroke-linejoin:round;stroke-miterlimit:3.864;}
	.st31{fill:#FFFFFF;}
	.st32{fill:none;stroke:#50B848;stroke-width:0.9727;stroke-miterlimit:3.864;}
	.st33{fill-rule:evenodd;clip-rule:evenodd;fill:#ED1C24;}
	.st34{fill:none;stroke:#50B848;stroke-width:1.1689;stroke-miterlimit:3.864;}
	.st35{fill:none;stroke:#50B848;stroke-width:0.6194;stroke-miterlimit:3.864;}
	.st36{fill-rule:evenodd;clip-rule:evenodd;fill:#FFDD00;}
	.st37{fill:#0095D4;}
	.st38{fill:#009ADE;}
	.st39{fill:#23234C;}
	.st40{fill-rule:evenodd;clip-rule:evenodd;fill:#F9B000;}
	.st41{fill-rule:evenodd;clip-rule:evenodd;fill:#1D2362;}
	.st42{fill:#404041;}
	.st43{fill:#EC1B34;}
	.st44{fill:#1A1A18;}
	.st45{fill:#E3000F;}
	.st46{fill:#9B9A9A;}
	.st47{clip-path:url(#SVGID_2_);fill:url(#SVGID_3_);}
	.st48{clip-path:url(#SVGID_5_);fill:url(#SVGID_6_);}
	.st49{clip-path:url(#SVGID_8_);fill:url(#SVGID_9_);}
	.st50{enable-background:new    ;}
	.st51{clip-path:url(#SVGID_11_);}
	.st52{clip-path:url(#SVGID_13_);fill:url(#SVGID_14_);}
	.st53{opacity:0.7;}
	.st54{clip-path:url(#SVGID_16_);}
	.st55{clip-path:url(#SVGID_20_);fill:url(#SVGID_21_);}
	.st56{clip-path:url(#SVGID_23_);fill:url(#SVGID_24_);}
	.st57{clip-path:url(#SVGID_26_);fill:url(#SVGID_27_);}
	.st58{clip-path:url(#SVGID_29_);fill:url(#SVGID_30_);}
	.st59{clip-path:url(#SVGID_32_);fill:url(#SVGID_33_);}
	.st60{fill:#878787;}
	.st61{fill:#818080;}
	.st62{fill:#B0B0B0;}
	.st63{clip-path:url(#SVGID_35_);fill:url(#SVGID_36_);}
	.st64{clip-path:url(#SVGID_38_);fill:url(#SVGID_39_);}
	.st65{fill:#FDFDFE;}
	.st66{clip-path:url(#SVGID_41_);fill:url(#SVGID_42_);}
	.st67{clip-path:url(#SVGID_44_);fill:url(#SVGID_45_);}
	.st68{clip-path:url(#SVGID_47_);fill:url(#SVGID_48_);}
	.st69{clip-path:url(#SVGID_50_);fill:url(#SVGID_51_);}
	.st70{clip-path:url(#SVGID_53_);fill:url(#SVGID_54_);}
	.st71{clip-path:url(#SVGID_56_);}
	.st72{clip-path:url(#SVGID_58_);fill:#EDEDED;}
	.st73{clip-path:url(#SVGID_60_);}
	.st74{clip-path:url(#SVGID_62_);fill:url(#SVGID_63_);}
	.st75{clip-path:url(#SVGID_65_);}
	.st76{clip-path:url(#SVGID_67_);fill:url(#SVGID_68_);}
	.st77{clip-path:url(#SVGID_70_);}
	.st78{clip-path:url(#SVGID_72_);fill:url(#SVGID_73_);}
	.st79{clip-path:url(#SVGID_75_);}
	.st80{clip-path:url(#SVGID_77_);fill:url(#SVGID_78_);}
	.st81{clip-path:url(#SVGID_80_);}
	.st82{clip-path:url(#SVGID_82_);fill:url(#SVGID_83_);}
	.st83{clip-path:url(#SVGID_85_);}
	.st84{clip-path:url(#SVGID_87_);fill:url(#SVGID_88_);}
	.st85{clip-path:url(#SVGID_90_);fill:url(#SVGID_91_);}
	.st86{fill-rule:evenodd;clip-rule:evenodd;fill:#E30613;}
	.st87{fill:#25378D;}
	.st88{fill:#232323;}
	.st89{fill-rule:evenodd;clip-rule:evenodd;fill:#051F41;stroke:#1D1D1B;stroke-width:0.2269;stroke-miterlimit:22.9256;}
	.st90{fill-rule:evenodd;clip-rule:evenodd;fill:#FF0000;}
	.st91{fill:#CD1013;}
	.st92{fill:none;}
	.st93{fill:url(#SVGID_92_);}
	.st94{fill:#E3001D;}
	.st95{clip-path:url(#SVGID_94_);fill:url(#SVGID_95_);}
	.st96{fill:#0D0D0D;}
	.st97{fill:#FFFFFF;stroke:#EDEDED;stroke-width:0.5522;}
	.st98{fill:#E1261C;}
	.st99{fill:#FDFDFD;}
	.st100{fill:#009640;}
	.st101{fill:#3C3C3B;}
	.st102{fill:#EF7D00;}
	.st103{fill:#81492B;}
	.st104{fill:#1D242C;}
	.st105{fill:#FA280A;}
	.st106{fill:#0091FA;}
	.st107{fill:#231F20;}
	.st108{fill:#EF3E42;}
	.st109{fill:#2D384A;}
	.st110{fill:#D00000;}
	.st111{fill-rule:evenodd;clip-rule:evenodd;fill:#FFDC00;}
	.st112{fill:#3C3C3C;}
	.st113{fill:#FF7700;}
	.st114{fill:#CB1A33;}
	.st115{fill-rule:evenodd;clip-rule:evenodd;fill:#FF001A;}
	.st116{fill-rule:evenodd;clip-rule:evenodd;fill:#343939;}
	.st117{fill-rule:evenodd;clip-rule:evenodd;fill:#E40613;}
	.st118{fill:#5092C9;}
	.st119{fill:#B3B6B6;}
	.st120{fill:#425056;}
	.st121{clip-path:url(#SVGID_97_);fill:url(#SVGID_98_);}
	.st122{clip-path:url(#SVGID_100_);fill:url(#SVGID_101_);}
	.st123{clip-path:url(#SVGID_103_);fill:url(#SVGID_104_);}
	.st124{fill:#115E9D;}
	.st125{fill:url(#path116_1_);}
	.st126{fill:#BAC6E2;}
	.st127{fill:#DCE2F1;}
	.st128{fill:#033A5F;}
	.st129{fill:#0E5389;}
	.st130{fill:#094775;}
	.st131{fill:#7693C3;}
	.st132{fill-rule:evenodd;clip-rule:evenodd;fill:#114277;}
	.st133{fill:#ED6B06;}
	.st134{fill:#F47C22;}
	.st135{fill:#FFFFFF;stroke:#E5E5E5;stroke-width:0.1446;}
	.st136{fill:#AF0010;}
	.st137{opacity:0.5;enable-background:new    ;}
	.st138{fill:url(#SVGID_105_);}
	.st139{fill:url(#box_links_bg-5_1_);}
	.st140{opacity:0.5;}
	.st141{fill:#BB001A;}
	.st142{fill:url(#box_links_bg-5-4_1_);}
	.st143{fill:#03000B;}
	.st144{fill:#E20026;}
	.st145{fill-rule:evenodd;clip-rule:evenodd;fill:#FFD300;}
	.st146{fill:#639ACD;}
	.st147{fill:none;stroke:#639ACD;stroke-width:0.4705;}
	.st148{fill:none;stroke:#639ACD;stroke-width:4.742401e-02;}
	.st149{fill:#3057AE;}
	.st150{fill:#DF0605;}
	.st151{fill:#FF6600;}
	.st152{fill:#0066B3;}
	.st153{fill:#063258;}
	.st154{fill:#F5231B;}
	.st155{fill:#E20613;}
	.st156{fill:#920C00;}
	.st157{fill:#9B1006;}
	.st158{fill:#C00808;}
	.st159{fill:#C80C0F;}
	.st160{fill:#29ABE2;}
	.st161{fill:#26527F;}
	.st162{fill-rule:evenodd;clip-rule:evenodd;fill:#FFCC01;}
	.st163{fill-rule:evenodd;clip-rule:evenodd;fill:#0197E3;}
	.st164{fill:#0197E3;}
	.st165{fill:#104C89;}
	.st166{fill:#465151;}
	.st167{fill:#B5B5B5;}
	.st168{fill:none;stroke:#B5B5B5;stroke-width:1.1221;stroke-miterlimit:10;}
	.st169{fill:none;stroke:#B5B5B5;stroke-width:1.9623;stroke-miterlimit:10;}
	.st170{fill:none;stroke:#B5B5B5;stroke-width:1.6831;stroke-miterlimit:10;}
	.st171{fill:none;stroke:#B5B5B5;stroke-width:1.1221;stroke-linejoin:bevel;stroke-miterlimit:10;}
	.st172{fill:none;stroke:#B5B5B5;stroke-width:0.2792;stroke-miterlimit:10;}
</style>
<g
   transform="translate(-47.2,-47.5)"
   id="g1007">
	<path
   id="path985"
   d="m 68.7,82.7 c -0.4,0 -0.9,-0.1 -1.3,-0.2 -2,-0.7 -3,-2.9 -2.3,-4.9 L 69.7,65 c 0.7,-2 2.9,-3 4.9,-2.3 2,0.7 3,2.9 2.3,4.9 l -4.5,12.5 c -0.6,1.6 -2.1,2.6 -3.7,2.6 z m -12.7,0 c -0.4,0 -0.9,-0.1 -1.3,-0.2 -2,-0.7 -3,-2.9 -2.3,-4.9 l 8.3,-22.8 c 0.7,-2 2.9,-3 4.9,-2.3 2,0.7 3,2.9 2.3,4.9 l -8.3,22.8 c -0.6,1.5 -2,2.5 -3.6,2.5 z"
   class="st11" />
	<path
   id="path987"
   d="M 49.4,85.3 H 87.5 V 49.7 H 49.4 Z m 40.3,2.2 H 47.2 v -40 h 42.5 z"
   class="st12" />
	<path
   id="path989"
   d="m 110.1,61.2 c 1.4,0 2,0.3 2,1.4 v 1.8 c 0,1.1 -0.7,1.4 -2,1.4 H 99.9 v -4.6 z m 0,7.8 c 1.5,0 2.1,0.3 2.1,1.7 v 1.4 c 0,1.4 -0.6,1.7 -2.1,1.7 H 99.9 V 69 Z m -14.6,8.3 h 15.2 c 3.7,0 5.6,-1.2 5.6,-3.7 v -2.4 c 0,-2 -1.2,-3.4 -3.4,-3.7 2.1,-0.3 3.3,-1.4 3.3,-3.2 V 62 c 0,-2.7 -1.4,-3.7 -4.3,-3.7 H 95.5 Z"
   class="st11" />
	<polygon
   id="polygon991"
   points="140.6,74.3 127.4,74.3 127.4,70.5 135,70.5 135,67.8 127.4,67.8 127.4,64.4 140.4,64.4 140.4,61.6 123.5,61.6 123.5,77.3 140.6,77.3 "
   class="st11" />
	<polygon
   id="polygon993"
   points="157.5,66.2 162,77.3 164.6,77.3 170.9,61.6 167.5,61.6 163.4,72.5 159.1,61.6 156.4,61.6 152,72.5 147.9,61.6 143.9,61.6 150.3,77.3 152.9,77.3 "
   class="st11" />
	<path
   id="path995"
   d="m 178.8,74.3 v -9.8 h 12.6 v 9.8 z m -3.9,-9 v 8.3 c 0,3 1,3.7 4.1,3.7 h 12.1 c 3.1,0 4.1,-0.7 4.1,-3.7 v -8.3 c 0,-3 -1,-3.7 -4.1,-3.7 H 179 c -3.1,0 -4.1,0.7 -4.1,3.7 z"
   class="st11" />
	<polygon
   id="polygon997"
   points="218.8,61.6 199.8,61.6 199.8,64.4 207.3,64.4 207.3,77.3 211.2,77.3 211.2,64.4 218.8,64.4 "
   class="st11" />
	<polygon
   id="polygon999"
   points="240.7,74.3 227.5,74.3 227.5,70.5 235.1,70.5 235.1,67.8 227.5,67.8 227.5,64.4 240.5,64.4 240.5,61.6 223.7,61.6 223.7,77.3 240.7,77.3 "
   class="st11" />
	<path
   id="path1001"
   d="m 260,64.5 v 2.9 l 3.9,-0.6 v -1.5 c 0,-3 -1,-3.7 -4.1,-3.7 H 250 c -3.1,0 -4.1,0.8 -4.1,3.7 v 8.3 c 0,2.9 0.9,3.7 4.1,3.7 h 9.8 c 3.1,0 4.1,-0.8 4.1,-3.7 V 71.7 L 260,70.9 v 3.3 H 249.7 V 64.4 H 260 Z"
   class="st11" />
	<path
   id="path1003"
   d="m 76.8,78.8 c 0,-2.1 1.7,-3.8 3.8,-3.8 2.1,0 3.8,1.7 3.8,3.8 0,2.1 -1.7,3.8 -3.8,3.8 -2.2,0 -3.8,-1.7 -3.8,-3.8 z"
   class="st11" />
	<path
   id="path1005"
   d="m 269.5,58.1 c 0.6,0 0.9,0.2 0.9,0.6 0,0.4 -0.3,0.6 -0.9,0.6 h -0.6 v -1.2 z m 0.1,-0.5 h -1.4 v 3.7 h 0.7 v -1.6 h 0.7 l 0.7,1.6 h 0.8 l -0.8,-1.7 c 0.5,-0.1 0.8,-0.5 0.8,-1 0,-0.6 -0.5,-1 -1.5,-1 z m 2.7,2 c 0,0.7 -0.3,1.4 -0.8,2 -0.6,0.5 -1.3,0.8 -2,0.8 -0.7,0 -1.4,-0.3 -2,-0.8 -0.5,-0.5 -0.8,-1.2 -0.8,-2 0,-0.7 0.3,-1.5 0.9,-2 0.5,-0.5 1.2,-0.8 2,-0.8 0.8,0 1.5,0.3 2,0.8 0.5,0.5 0.7,1.2 0.7,2 z m -2.8,-3.3 c -0.9,0 -1.7,0.3 -2.3,0.9 -0.6,0.6 -1,1.5 -1,2.3 0,0.9 0.3,1.6 0.9,2.3 0.6,0.6 1.4,1 2.3,1 0.8,0 1.7,-0.3 2.3,-1 0.6,-0.6 0.9,-1.4 0.9,-2.3 0,-0.9 -0.3,-1.7 -0.9,-2.3 -0.5,-0.6 -1.3,-0.9 -2.2,-0.9 z"
   class="st11" />
</g>
</svg>
