<svg width="104" height="104" viewBox="0 0 104 104" fill="none" xmlns="http://www.w3.org/2000/svg">
<path d="M97.5 97.5H71.5V71.5H97.5V97.5ZM78 91H91V78H78V91ZM13 65V71.5H27.9045L6.5 92.9045L11.0955 97.5L32.5 76.0955V91H39V65H13ZM61.75 35.75H42.25L32.5 48.75L52 68.25L71.5 48.75L61.75 35.75Z" fill="url(#paint0_linear_521_6018)"/>
<path d="M78 55.25V48.75C81.4478 48.75 84.7544 47.3804 87.1924 44.9424C89.6304 42.5044 91 39.1978 91 35.75C91 32.3022 89.6304 28.9956 87.1924 26.5576C84.7544 24.1196 81.4478 22.75 78 22.75H39V16.25H78C83.1717 16.25 88.1316 18.3045 91.7886 21.9614C95.4455 25.6184 97.5 30.5783 97.5 35.75C97.5 40.9217 95.4455 45.8816 91.7886 49.5386C88.1316 53.1955 83.1717 55.25 78 55.25ZM32.5 32.5H6.5V6.5H32.5V32.5ZM13 26H26V13H13V26Z" fill="url(#paint1_linear_521_6018)"/>
<defs>
<linearGradient id="paint0_linear_521_6018" x1="6.00589" y1="97.8391" x2="64.2545" y2="12.9375" gradientUnits="userSpaceOnUse">
<stop stop-color="#FF8906"/>
<stop offset="0.505208" stop-color="#F15B47"/>
<stop offset="1" stop-color="#E53170"/>
</linearGradient>
<linearGradient id="paint1_linear_521_6018" x1="6.00589" y1="55.5177" x2="47.2879" y2="-20.6996" gradientUnits="userSpaceOnUse">
<stop stop-color="#FF8906"/>
<stop offset="0.505208" stop-color="#F15B47"/>
<stop offset="1" stop-color="#E53170"/>
</linearGradient>
</defs>
</svg>
