<svg width="104" height="104" viewBox="0 0 104 104" fill="none" xmlns="http://www.w3.org/2000/svg">
<path d="M74.375 84.3375V83.6127V75.7347V75.6212L74.438 75.5268L79.5925 67.7918L79.5925 67.7918C80.0661 67.0813 80.3861 66.2799 80.5322 65.4387C80.6783 64.5976 80.6472 63.7353 80.441 62.907L74.375 84.3375ZM74.375 84.3375L74.9666 83.9189C80.9803 79.6636 85.6603 73.7863 88.4609 66.9725C91.2615 60.1586 92.0673 52.689 90.7843 45.4347L90.7295 45.125H90.415H78H77.625V45.5V51.6003V51.6464L77.6362 51.6912L80.4409 62.9066L74.375 84.3375ZM12.625 51.9998L12.625 52.0006C12.6405 61.1747 15.8552 70.0561 21.7152 77.1147C27.5753 84.1732 35.7138 88.9669 44.7284 90.6697L45.2563 90.7694L45.1679 90.2396L42.9644 77.0251L42.9297 76.817L42.7338 76.7386L30.2246 71.7336C29.0881 71.2788 28.114 70.494 27.4278 69.4803C26.7416 68.4666 26.3749 67.2706 26.375 66.0465V54.0055C26.3759 52.8692 26.6929 51.7555 27.2905 50.789C27.8882 49.8225 28.7429 49.0414 29.7591 48.5329L29.5913 48.1975L29.7591 48.5328L40.2788 43.2681C41.1283 42.8448 42.0645 42.6246 43.0136 42.625H43.0138H58.5H58.875V42.25V29.25V28.875H58.5H50.7553H50.523L50.4196 29.0829L48.9736 31.9879C48.9736 31.9879 48.9735 31.9879 48.9735 31.988C48.4647 33.0061 47.6823 33.8623 46.7141 34.4606C45.7458 35.0589 44.6299 35.3755 43.4917 35.375H43.4915H32.5C30.8756 35.375 29.3177 34.7297 28.169 33.581C27.0203 32.4324 26.375 30.8745 26.375 29.25V23.0133V22.1764L25.7504 22.7334C21.625 26.4122 18.3232 30.921 16.0613 35.9644C13.7994 41.0079 12.6284 46.4723 12.625 51.9998ZM51.1296 91.0357L51.1808 91.3429L51.4923 91.3489C51.5597 91.3502 51.6266 91.3552 51.7054 91.361L51.7223 91.3622C51.8048 91.3683 51.9002 91.375 52 91.375H52.0003C57.6677 91.3704 63.2663 90.1332 68.4078 87.749L68.625 87.6482V87.4088V73.882L74.8086 64.6002L74.8996 64.4636L74.861 64.3041L71.875 51.9553V39.375H88.725H89.2539L89.0789 38.8759C87.1658 33.4212 84.0712 28.4566 80.0163 24.3369C75.9615 20.2173 71.0465 17.0444 65.6228 15.0452C60.1991 13.0459 54.4007 12.2697 48.6421 12.772C42.8835 13.2742 37.307 15.0426 32.3114 17.9507L32.125 18.0591V18.2748V29.25V29.625H32.5H43.4915H43.7233L43.8269 29.4177L46.9733 23.125H64.625V48.375H43.017H42.9285L42.8493 48.4146L32.3323 53.6731L32.125 53.7767V54.0085V66.0498V66.3037L32.3608 66.3979L48.0703 72.6798L51.1296 91.0357ZM26.9299 14.4799C34.3506 9.52158 43.075 6.87504 51.9998 6.875C63.9635 6.8887 75.4333 11.6474 83.893 20.107C92.3527 28.5667 97.1114 40.0366 97.125 52.0004C97.1249 60.9252 94.4784 69.6495 89.5201 77.0701C84.5617 84.4909 77.5141 90.2747 69.2686 93.6901C61.0231 97.1055 51.95 97.9991 43.1966 96.2579C34.4432 94.5168 26.4027 90.219 20.0918 83.9082C13.781 77.5973 9.48324 69.5568 7.74208 60.8035C6.00093 52.0501 6.89455 42.9769 10.31 34.7314C13.7254 26.4859 19.5091 19.4383 26.9299 14.4799Z" fill="url(#paint0_linear_521_5717)" stroke="#F0F4F7" stroke-width="0.75"/>
<defs>
<linearGradient id="paint0_linear_521_5717" x1="6.00589" y1="97.9998" x2="98.0056" y2="7.00583" gradientUnits="userSpaceOnUse">
<stop stop-color="#FF8906"/>
<stop offset="0.505208" stop-color="#F15B47"/>
<stop offset="1" stop-color="#E53170"/>
</linearGradient>
</defs>
</svg>
