<svg width="104" height="104" viewBox="0 0 104 104" fill="none" xmlns="http://www.w3.org/2000/svg">
<path fill-rule="evenodd" clip-rule="evenodd" d="M54.0474 97.2727C54.4302 97.424 54.8383 97.5012 55.2499 97.5002C55.983 97.4959 56.6931 97.244 57.2649 96.7852L73.5149 83.7852C73.8979 83.4825 74.2079 83.0975 74.4217 82.6586C74.6355 82.2197 74.7477 81.7384 74.7499 81.2502V56.5827L87.0349 44.3302C90.3658 41.0179 93.006 37.0773 94.8024 32.7369C96.5989 28.3965 97.5157 23.7426 97.4999 19.0452V13.0002C97.4999 11.2763 96.8151 9.62299 95.5961 8.40401C94.3771 7.18502 92.7238 6.5002 90.9999 6.5002H84.9549C80.2575 6.48438 75.6036 7.40125 71.2632 9.19767C66.9228 10.9941 62.9822 13.6343 59.6699 16.9652L47.4174 29.2502H22.7499C22.2591 29.2563 21.776 29.3735 21.337 29.5931C20.8979 29.8126 20.5143 30.1287 20.2149 30.5177L7.21491 46.7677C6.85217 47.2172 6.61578 47.7553 6.5301 48.3265C6.44441 48.8978 6.51252 49.4815 6.72741 50.0177C6.93966 50.5501 7.28896 51.017 7.73987 51.3709C8.19079 51.7247 8.72727 51.9531 9.29491 52.0327L32.0449 55.2827L32.9549 48.7827L15.8274 46.3452L24.3099 35.7502H48.7499C49.1776 35.7527 49.6016 35.6707 49.9976 35.509C50.3936 35.3472 50.7537 35.1089 51.0574 34.8077L64.2849 21.5802C66.992 18.8546 70.2127 16.6929 73.7607 15.2202C77.3086 13.7475 81.1134 12.9929 84.9549 13.0002H90.9999V19.0452C91.0072 22.8867 90.2527 26.6915 88.7799 30.2394C87.3072 33.7874 85.1455 37.0081 82.4199 39.7152L69.1924 52.9427C68.8912 53.2464 68.6529 53.6065 68.4911 54.0025C68.3294 54.3985 68.2474 54.8225 68.2499 55.2502V79.6902L57.7199 88.1727L55.2824 71.0452L48.7824 71.9552L52.0324 94.7052C52.112 95.2728 52.3404 95.8093 52.6942 96.2602C53.0481 96.7111 53.515 97.0604 54.0474 97.2727ZM49.6758 49.709L23.6855 75.6992L28.281 80.2947L54.2713 54.3045L49.6758 49.709Z" fill="url(#paint0_linear_521_5934)"/>
<defs>
<linearGradient id="paint0_linear_521_5934" x1="6" y1="98" x2="98" y2="7" gradientUnits="userSpaceOnUse">
<stop stop-color="#FF8906"/>
<stop offset="0.505208" stop-color="#F15B47"/>
<stop offset="1" stop-color="#E53170"/>
</linearGradient>
</defs>
</svg>
