<svg width="32" height="32" viewBox="0 0 32 32" fill="none" xmlns="http://www.w3.org/2000/svg">
<circle cx="16" cy="16" r="14" fill="white"/>
<path fill-rule="evenodd" clip-rule="evenodd" d="M16 2.00008C12.6763 2.00053 9.46112 3.18346 6.92968 5.33728C4.39824 7.49109 2.71564 10.4753 2.18288 13.756C1.65012 17.0368 2.30195 20.4 4.02177 23.2442C5.74159 26.0884 8.41719 28.2279 11.57 29.2801C12.27 29.4101 12.57 28.9801 12.57 28.6101V26.2301C8.67998 27.0701 7.85998 24.3501 7.85998 24.3501C7.58643 23.4929 7.0107 22.7644 6.23998 22.3001C4.96998 21.4401 6.33998 21.4501 6.33998 21.4501C6.78358 21.5128 7.207 21.676 7.57789 21.9273C7.94878 22.1786 8.25733 22.5113 8.47998 22.9001C8.86732 23.5948 9.51471 24.1073 10.2798 24.3248C11.0449 24.5423 11.8651 24.4471 12.56 24.0601C12.6164 23.3506 12.9292 22.6858 13.44 22.1901C10.34 21.8301 7.06998 20.6301 7.06998 15.2701C7.04731 13.878 7.5632 12.5309 8.50998 11.5101C8.08144 10.3043 8.13154 8.98006 8.64998 7.81008C8.64998 7.81008 9.81998 7.43008 12.5 9.24008C14.7915 8.61503 17.2085 8.61503 19.5 9.24008C22.17 7.43008 23.34 7.81008 23.34 7.81008C23.8584 8.98006 23.9085 10.3043 23.48 11.5101C24.4268 12.5309 24.9427 13.878 24.92 15.2701C24.92 20.6501 21.65 21.8301 18.53 22.1801C18.8642 22.5188 19.1219 22.9253 19.2858 23.3721C19.4497 23.8189 19.5159 24.2956 19.48 24.7701V28.6101C19.48 29.0701 19.73 29.4201 20.48 29.2801C23.6369 28.2266 26.3153 26.083 28.0348 23.2335C29.7544 20.3841 30.4026 17.0153 29.8633 13.7313C29.324 10.4472 27.6324 7.46266 25.0918 5.31285C22.5513 3.16304 19.328 1.98859 16 2.00008Z" fill="#43464A"/>
</svg>
