<svg width="104" height="104" viewBox="0 0 104 104" fill="none" xmlns="http://www.w3.org/2000/svg">
<mask id="path-1-inside-1_521_5755" fill="white">
<path d="M84.5 71.5C82.1857 71.512 79.9175 72.1487 77.935 73.3428L65.5428 60.9473C67.3084 58.2973 68.2505 55.1843 68.2505 52C68.2505 48.8158 67.3084 45.7027 65.5428 43.0528L73.8205 34.775C75.9145 35.7836 78.2979 36.0186 80.5486 35.4382C82.7992 34.8577 84.7717 33.4995 86.1168 31.604C87.4619 29.7084 88.0926 27.398 87.8973 25.082C87.702 22.7659 86.6932 20.5938 85.0497 18.9503C83.4062 17.3068 81.2341 16.298 78.918 16.1027C76.602 15.9074 74.2916 16.5382 72.3961 17.8832C70.5005 19.2283 69.1423 21.2008 68.5619 23.4515C67.9815 25.7021 68.2164 28.0855 69.225 30.1795L60.9473 38.4573C58.2973 36.6916 55.1843 35.7495 52 35.7495C48.8158 35.7495 45.7027 36.6916 43.0528 38.4573L30.6573 26.0618C31.8508 24.0802 32.4874 21.8132 32.5 19.5C32.5 16.9288 31.7376 14.4154 30.3091 12.2776C28.8807 10.1398 26.8503 8.47351 24.4749 7.48957C22.0995 6.50563 19.4856 6.24819 16.9638 6.7498C14.4421 7.25141 12.1257 8.48953 10.3076 10.3076C8.48954 12.1257 7.25141 14.4421 6.7498 16.9638C6.24819 19.4856 6.50563 22.0995 7.48957 24.4749C8.47351 26.8503 10.1398 28.8807 12.2776 30.3091C14.4154 31.7376 16.9289 32.5 19.5 32.5C21.8143 32.488 24.0825 31.8513 26.065 30.6573L38.4573 43.0528C36.6917 45.7027 35.7495 48.8158 35.7495 52C35.7495 55.1843 36.6917 58.2973 38.4573 60.9473L26.0618 73.3428C24.0801 72.1494 21.8132 71.5128 19.5 71.5C16.9289 71.5 14.4154 72.2624 12.2776 73.6909C10.1398 75.1194 8.47351 77.1497 7.48957 79.5251C6.50563 81.9006 6.24819 84.5144 6.7498 87.0362C7.25141 89.5579 8.48954 91.8743 10.3076 93.6924C12.1257 95.5105 14.4421 96.7486 16.9638 97.2502C19.4856 97.7518 22.0995 97.4944 24.4749 96.5104C26.8503 95.5265 28.8807 93.8603 30.3091 91.7224C31.7376 89.5846 32.5 87.0712 32.5 84.5C32.488 82.1857 31.8513 79.9175 30.6573 77.935L43.0528 65.5428C44.7812 66.6948 46.7156 67.5025 48.75 67.9218V78.598C46.5816 79.3647 44.754 80.8732 43.5902 82.8571C42.4265 84.8409 42.0015 87.1723 42.3904 89.4391C42.7794 91.706 43.9571 93.7624 45.7156 95.2448C47.4741 96.7273 49.7 97.5404 52 97.5404C54.3 97.5404 56.5259 96.7273 58.2844 95.2448C60.0429 93.7624 61.2207 91.706 61.6096 89.4391C61.9985 87.1723 61.5736 84.8409 60.4098 82.8571C59.2461 80.8732 57.4185 79.3647 55.25 78.598V67.9218C57.2844 67.5025 59.2188 66.6948 60.9473 65.5428L73.3428 77.9383C72.1493 79.9198 71.5126 82.1868 71.5 84.5C71.5 87.0712 72.2625 89.5846 73.6909 91.7224C75.1194 93.8603 77.1497 95.5265 79.5251 96.5104C81.9006 97.4944 84.5144 97.7518 87.0362 97.2502C89.5579 96.7486 91.8743 95.5105 93.6924 93.6924C95.5105 91.8743 96.7486 89.5579 97.2502 87.0362C97.7518 84.5144 97.4944 81.9006 96.5105 79.5251C95.5265 77.1497 93.8603 75.1194 91.7224 73.6909C89.5846 72.2624 87.0712 71.5 84.5 71.5ZM52 42.25C53.9284 42.25 55.8134 42.8218 57.4168 43.8932C59.0202 44.9645 60.2699 46.4873 61.0078 48.2688C61.7458 50.0504 61.9389 52.0108 61.5627 53.9021C61.1865 55.7935 60.2579 57.5307 58.8943 58.8943C57.5307 60.2579 55.7935 61.1865 53.9021 61.5627C52.0108 61.9389 50.0504 61.7458 48.2688 61.0078C46.4873 60.2699 44.9645 59.0202 43.8932 57.4168C42.8218 55.8134 42.25 53.9284 42.25 52C42.2526 49.4149 43.2807 46.9365 45.1086 45.1086C46.9365 43.2806 49.4149 42.2526 52 42.25ZM13 19.5C13 18.2144 13.3812 16.9577 14.0955 15.8888C14.8097 14.8199 15.8248 13.9868 17.0126 13.4948C18.2003 13.0028 19.5072 12.8741 20.7681 13.1249C22.029 13.3757 23.1872 13.9948 24.0962 14.9038C25.0052 15.8129 25.6243 16.971 25.8751 18.2319C26.1259 19.4928 25.9972 20.7997 25.5052 21.9874C25.0133 23.1752 24.1801 24.1903 23.1112 24.9046C22.0423 25.6188 20.7856 26 19.5 26C17.7766 25.9983 16.1243 25.3129 14.9057 24.0943C13.6871 22.8757 13.0017 21.2234 13 19.5ZM19.5 91C18.2144 91 16.9577 90.6188 15.8888 89.9046C14.8199 89.1903 13.9868 88.1752 13.4948 86.9874C13.0028 85.7997 12.8741 84.4928 13.1249 83.2319C13.3757 81.971 13.9948 80.8129 14.9038 79.9038C15.8129 78.9948 16.971 78.3757 18.2319 78.1249C19.4928 77.8741 20.7997 78.0028 21.9875 78.4948C23.1752 78.9868 24.1903 79.8199 24.9046 80.8888C25.6188 81.9577 26 83.2144 26 84.5C25.9983 86.2234 25.3129 87.8757 24.0943 89.0943C22.8757 90.3129 21.2234 90.9983 19.5 91ZM84.5 91C83.2144 91 81.9577 90.6188 80.8888 89.9046C79.8199 89.1903 78.9868 88.1752 78.4948 86.9874C78.0028 85.7997 77.8741 84.4928 78.1249 83.2319C78.3757 81.971 78.9948 80.8129 79.9038 79.9038C80.8129 78.9948 81.9711 78.3757 83.2319 78.1249C84.4928 77.8741 85.7997 78.0028 86.9875 78.4948C88.1752 78.9868 89.1903 79.8199 89.9046 80.8888C90.6188 81.9577 91 83.2144 91 84.5C90.9974 86.2231 90.3118 87.8749 89.0934 89.0934C87.8749 90.3118 86.2231 90.9974 84.5 91Z"/>
</mask>
<path d="M84.5 71.5C82.1857 71.512 79.9175 72.1487 77.935 73.3428L65.5428 60.9473C67.3084 58.2973 68.2505 55.1843 68.2505 52C68.2505 48.8158 67.3084 45.7027 65.5428 43.0528L73.8205 34.775C75.9145 35.7836 78.2979 36.0186 80.5486 35.4382C82.7992 34.8577 84.7717 33.4995 86.1168 31.604C87.4619 29.7084 88.0926 27.398 87.8973 25.082C87.702 22.7659 86.6932 20.5938 85.0497 18.9503C83.4062 17.3068 81.2341 16.298 78.918 16.1027C76.602 15.9074 74.2916 16.5382 72.3961 17.8832C70.5005 19.2283 69.1423 21.2008 68.5619 23.4515C67.9815 25.7021 68.2164 28.0855 69.225 30.1795L60.9473 38.4573C58.2973 36.6916 55.1843 35.7495 52 35.7495C48.8158 35.7495 45.7027 36.6916 43.0528 38.4573L30.6573 26.0618C31.8508 24.0802 32.4874 21.8132 32.5 19.5C32.5 16.9288 31.7376 14.4154 30.3091 12.2776C28.8807 10.1398 26.8503 8.47351 24.4749 7.48957C22.0995 6.50563 19.4856 6.24819 16.9638 6.7498C14.4421 7.25141 12.1257 8.48953 10.3076 10.3076C8.48954 12.1257 7.25141 14.4421 6.7498 16.9638C6.24819 19.4856 6.50563 22.0995 7.48957 24.4749C8.47351 26.8503 10.1398 28.8807 12.2776 30.3091C14.4154 31.7376 16.9289 32.5 19.5 32.5C21.8143 32.488 24.0825 31.8513 26.065 30.6573L38.4573 43.0528C36.6917 45.7027 35.7495 48.8158 35.7495 52C35.7495 55.1843 36.6917 58.2973 38.4573 60.9473L26.0618 73.3428C24.0801 72.1494 21.8132 71.5128 19.5 71.5C16.9289 71.5 14.4154 72.2624 12.2776 73.6909C10.1398 75.1194 8.47351 77.1497 7.48957 79.5251C6.50563 81.9006 6.24819 84.5144 6.7498 87.0362C7.25141 89.5579 8.48954 91.8743 10.3076 93.6924C12.1257 95.5105 14.4421 96.7486 16.9638 97.2502C19.4856 97.7518 22.0995 97.4944 24.4749 96.5104C26.8503 95.5265 28.8807 93.8603 30.3091 91.7224C31.7376 89.5846 32.5 87.0712 32.5 84.5C32.488 82.1857 31.8513 79.9175 30.6573 77.935L43.0528 65.5428C44.7812 66.6948 46.7156 67.5025 48.75 67.9218V78.598C46.5816 79.3647 44.754 80.8732 43.5902 82.8571C42.4265 84.8409 42.0015 87.1723 42.3904 89.4391C42.7794 91.706 43.9571 93.7624 45.7156 95.2448C47.4741 96.7273 49.7 97.5404 52 97.5404C54.3 97.5404 56.5259 96.7273 58.2844 95.2448C60.0429 93.7624 61.2207 91.706 61.6096 89.4391C61.9985 87.1723 61.5736 84.8409 60.4098 82.8571C59.2461 80.8732 57.4185 79.3647 55.25 78.598V67.9218C57.2844 67.5025 59.2188 66.6948 60.9473 65.5428L73.3428 77.9383C72.1493 79.9198 71.5126 82.1868 71.5 84.5C71.5 87.0712 72.2625 89.5846 73.6909 91.7224C75.1194 93.8603 77.1497 95.5265 79.5251 96.5104C81.9006 97.4944 84.5144 97.7518 87.0362 97.2502C89.5579 96.7486 91.8743 95.5105 93.6924 93.6924C95.5105 91.8743 96.7486 89.5579 97.2502 87.0362C97.7518 84.5144 97.4944 81.9006 96.5105 79.5251C95.5265 77.1497 93.8603 75.1194 91.7224 73.6909C89.5846 72.2624 87.0712 71.5 84.5 71.5ZM52 42.25C53.9284 42.25 55.8134 42.8218 57.4168 43.8932C59.0202 44.9645 60.2699 46.4873 61.0078 48.2688C61.7458 50.0504 61.9389 52.0108 61.5627 53.9021C61.1865 55.7935 60.2579 57.5307 58.8943 58.8943C57.5307 60.2579 55.7935 61.1865 53.9021 61.5627C52.0108 61.9389 50.0504 61.7458 48.2688 61.0078C46.4873 60.2699 44.9645 59.0202 43.8932 57.4168C42.8218 55.8134 42.25 53.9284 42.25 52C42.2526 49.4149 43.2807 46.9365 45.1086 45.1086C46.9365 43.2806 49.4149 42.2526 52 42.25ZM13 19.5C13 18.2144 13.3812 16.9577 14.0955 15.8888C14.8097 14.8199 15.8248 13.9868 17.0126 13.4948C18.2003 13.0028 19.5072 12.8741 20.7681 13.1249C22.029 13.3757 23.1872 13.9948 24.0962 14.9038C25.0052 15.8129 25.6243 16.971 25.8751 18.2319C26.1259 19.4928 25.9972 20.7997 25.5052 21.9874C25.0133 23.1752 24.1801 24.1903 23.1112 24.9046C22.0423 25.6188 20.7856 26 19.5 26C17.7766 25.9983 16.1243 25.3129 14.9057 24.0943C13.6871 22.8757 13.0017 21.2234 13 19.5ZM19.5 91C18.2144 91 16.9577 90.6188 15.8888 89.9046C14.8199 89.1903 13.9868 88.1752 13.4948 86.9874C13.0028 85.7997 12.8741 84.4928 13.1249 83.2319C13.3757 81.971 13.9948 80.8129 14.9038 79.9038C15.8129 78.9948 16.971 78.3757 18.2319 78.1249C19.4928 77.8741 20.7997 78.0028 21.9875 78.4948C23.1752 78.9868 24.1903 79.8199 24.9046 80.8888C25.6188 81.9577 26 83.2144 26 84.5C25.9983 86.2234 25.3129 87.8757 24.0943 89.0943C22.8757 90.3129 21.2234 90.9983 19.5 91ZM84.5 91C83.2144 91 81.9577 90.6188 80.8888 89.9046C79.8199 89.1903 78.9868 88.1752 78.4948 86.9874C78.0028 85.7997 77.8741 84.4928 78.1249 83.2319C78.3757 81.971 78.9948 80.8129 79.9038 79.9038C80.8129 78.9948 81.9711 78.3757 83.2319 78.1249C84.4928 77.8741 85.7997 78.0028 86.9875 78.4948C88.1752 78.9868 89.1903 79.8199 89.9046 80.8888C90.6188 81.9577 91 83.2144 91 84.5C90.9974 86.2231 90.3118 87.8749 89.0934 89.0934C87.8749 90.3118 86.2231 90.9974 84.5 91Z" fill="url(#paint0_linear_521_5755)" stroke="#F0F4F7" stroke-width="1.5" mask="url(#path-1-inside-1_521_5755)"/>
<defs>
<linearGradient id="paint0_linear_521_5755" x1="6.00589" y1="98.0404" x2="98.046" y2="7.04687" gradientUnits="userSpaceOnUse">
<stop stop-color="#FF8906"/>
<stop offset="0.505208" stop-color="#F15B47"/>
<stop offset="1" stop-color="#E53170"/>
</linearGradient>
</defs>
</svg>
