<svg width="104" height="104" viewBox="0 0 104 104" fill="none" xmlns="http://www.w3.org/2000/svg">
<path d="M84.125 81.2504V97.125H78.375V81.25V81.2495C78.3697 76.8421 76.6165 72.6166 73.5 69.5C70.3834 66.3835 66.1579 64.6303 61.7505 64.625H61.75H42.25H42.2495C37.8421 64.6303 33.6166 66.3835 30.5 69.5C27.3835 72.6166 25.6303 76.8421 25.625 81.2495V81.25V97.125H19.875V81.2504C19.8818 75.3182 22.2413 69.6308 26.4361 65.4361C30.6308 61.2413 36.3182 58.8818 42.2504 58.875H61.7496C67.6818 58.8818 73.3692 61.2413 77.5639 65.4361C81.7587 69.6308 84.1182 75.3182 84.125 81.2504ZM84.6373 39.5123L95.2457 45.6373L92.3708 50.6167L81.7623 44.4917L84.6373 39.5123ZM84.875 26.375H97.125V32.125H84.875V26.375ZM19.3627 39.5123L22.2377 44.4917L11.6293 50.6167L8.75426 45.6373L19.3627 39.5123ZM61.2364 15.4268C58.5024 13.6 55.2881 12.625 52 12.625C47.5908 12.625 43.3621 14.3766 40.2444 17.4943C37.1266 20.6121 35.375 24.8408 35.375 29.25C35.375 32.5381 36.35 35.7524 38.1768 38.4864C40.0036 41.2203 42.6001 43.3512 45.6379 44.6095C48.6757 45.8678 52.0184 46.197 55.2434 45.5556C58.4683 44.9141 61.4306 43.3307 63.7556 41.0056C66.0807 38.6806 67.6641 35.7183 68.3056 32.4934C68.947 29.2684 68.6178 25.9257 67.3595 22.8879C66.1012 19.8501 63.9703 17.2536 61.2364 15.4268ZM39.5691 10.6459C43.2487 8.18727 47.5746 6.875 52 6.875C57.9342 6.875 63.6254 9.23236 67.8215 13.4285C72.0176 17.6246 74.375 23.3158 74.375 29.25C74.375 33.6754 73.0627 38.0013 70.6041 41.6809C68.1455 45.3604 64.651 48.2283 60.5625 49.9218C56.474 51.6153 51.9752 52.0584 47.6349 51.1951C43.2945 50.3317 39.3077 48.2007 36.1785 45.0715C33.0493 41.9423 30.9183 37.9555 30.0549 33.6151C29.1916 29.2748 29.6347 24.776 31.3282 20.6875C33.0217 16.599 35.8896 13.1045 39.5691 10.6459ZM81.7623 14.0083L92.3708 7.88326L95.2457 12.8627L84.6373 18.9877L81.7623 14.0083ZM6.875 26.375H19.125V32.125H6.875V26.375ZM19.3627 18.9877L8.75426 12.8627L11.6293 7.88326L22.2377 14.0083L19.3627 18.9877Z" fill="url(#paint0_linear_521_5748)" stroke="#F0F4F7" stroke-width="0.75"/>
<defs>
<linearGradient id="paint0_linear_521_5748" x1="6.00589" y1="97.9998" x2="98.0056" y2="7.00583" gradientUnits="userSpaceOnUse">
<stop stop-color="#FF8906"/>
<stop offset="0.505208" stop-color="#F15B47"/>
<stop offset="1" stop-color="#E53170"/>
</linearGradient>
</defs>
</svg>
