<svg width="104" height="104" viewBox="0 0 104 104" fill="none" xmlns="http://www.w3.org/2000/svg">
<path d="M45.5 53.9175L37.0825 45.5L32.5 50.0825L45.5 63.0825L71.5 37.0825L66.9175 32.5L45.5 53.9175Z" fill="url(#paint0_linear_528_5965)"/>
<path d="M52 97.5L31.928 86.7978C26.2058 83.7535 21.4207 79.2085 18.086 73.6506C14.7514 68.0926 12.9931 61.7316 13 55.25V13C13.0017 11.2766 13.6871 9.62432 14.9057 8.40571C16.1243 7.18709 17.7766 6.50172 19.5 6.5H84.5C86.2234 6.50172 87.8757 7.18709 89.0943 8.40571C90.3129 9.62432 90.9983 11.2766 91 13V55.25C91.0069 61.7316 89.2487 68.0926 85.914 73.6506C82.5794 79.2085 77.7942 83.7535 72.072 86.7978L52 97.5ZM19.5 13V55.25C19.4946 60.5534 20.9336 65.7581 23.6625 70.3055C26.3914 74.8529 30.3072 78.5713 34.9895 81.0615L52 90.1322L69.0105 81.0648C73.6933 78.5742 77.6094 74.8554 80.3384 70.3073C83.0673 65.7593 84.506 60.5539 84.5 55.25V13H19.5Z" fill="url(#paint1_linear_528_5965)"/>
<defs>
<linearGradient id="paint0_linear_528_5965" x1="32.2882" y1="63.2505" x2="62.3938" y2="25.2784" gradientUnits="userSpaceOnUse">
<stop stop-color="#FF8906"/>
<stop offset="0.505208" stop-color="#F15B47"/>
<stop offset="1" stop-color="#E53170"/>
</linearGradient>
<linearGradient id="paint1_linear_528_5965" x1="12.5765" y1="97.9998" x2="103.341" y2="21.0519" gradientUnits="userSpaceOnUse">
<stop stop-color="#FF8906"/>
<stop offset="0.505208" stop-color="#F15B47"/>
<stop offset="1" stop-color="#E53170"/>
</linearGradient>
</defs>
</svg>
