<svg width="104" height="104" viewBox="0 0 104 104" fill="none" xmlns="http://www.w3.org/2000/svg">
<path d="M92.4528 52.3412L74.75 43.4947V22.75C74.7497 22.1466 74.5814 21.5552 74.264 21.042C73.9465 20.5289 73.4925 20.1142 72.9528 19.8445L53.4528 10.0945C53.0017 9.86906 52.5043 9.75171 52 9.75171C51.4957 9.75171 50.9984 9.86906 50.5473 10.0945L31.0473 19.8445C30.5075 20.1142 30.0535 20.5289 29.736 21.042C29.4186 21.5552 29.2503 22.1466 29.25 22.75V43.4915L11.5473 52.3412C11.007 52.6112 10.5526 53.0264 10.2352 53.5401C9.91773 54.0539 9.74972 54.646 9.75 55.25V78C9.75032 78.6034 9.91862 79.1948 10.236 79.7079C10.5535 80.2211 11.0075 80.6357 11.5473 80.9055L31.0473 90.6555C31.4984 90.8806 31.9958 90.9979 32.5 90.9979C33.0042 90.9979 33.5016 90.8806 33.9527 90.6555L52 81.6367L70.0472 90.662C70.4984 90.8871 70.9958 91.0044 71.5 91.0044C72.0042 91.0044 72.5016 90.8871 72.9528 90.662L92.4528 80.912C92.9935 80.6418 93.4482 80.2261 93.7657 79.7117C94.0832 79.1973 94.2509 78.6045 94.25 78V55.25C94.2503 54.646 94.0823 54.0539 93.7648 53.5401C93.4473 53.0264 92.993 52.6112 92.4528 52.3412ZM68.25 43.4947L55.25 49.9947V34.5117L68.25 28.0117V43.4947ZM52 16.6367L64.233 22.75L52 28.8665L39.767 22.75L52 16.6367ZM35.75 28.0117L48.75 34.5117V49.9947L35.75 43.4947V28.0117ZM29.25 82.4915L16.25 75.9915V60.5085L29.25 67.0085V82.4915ZM32.5 61.3665L20.267 55.25L32.5 49.1335L44.733 55.25L32.5 61.3665ZM35.75 67.0085L48.75 60.5085V75.9915L35.75 82.4915V67.0085ZM68.25 82.4915L55.25 75.9915V60.5085L68.25 67.0085V82.4915ZM71.5 61.3665L59.267 55.25L71.5 49.1335L83.733 55.25L71.5 61.3665ZM87.75 75.9915L74.75 82.4915V67.0085L87.75 60.5085V75.9915Z" fill="url(#paint0_linear_528_5951)"/>
<defs>
<linearGradient id="paint0_linear_528_5951" x1="9.29119" y1="91.4506" x2="91.4088" y2="6.98468" gradientUnits="userSpaceOnUse">
<stop stop-color="#FF8906"/>
<stop offset="0.505208" stop-color="#F15B47"/>
<stop offset="1" stop-color="#E53170"/>
</linearGradient>
</defs>
</svg>
