<svg width="104" height="104" viewBox="0 0 104 104" fill="none" xmlns="http://www.w3.org/2000/svg">
<path d="M74.75 74.75V84.5H27.625C23.7462 84.5 20.0263 82.9592 17.2836 80.2164C14.5408 77.4737 13 73.7538 13 69.875C13 65.9962 14.5408 62.2763 17.2836 59.5336C20.0263 56.7908 23.7462 55.25 27.625 55.25H29.25V48.75H27.625C22.0223 48.75 16.6491 50.9757 12.6874 54.9374C8.72566 58.8991 6.5 64.2723 6.5 69.875C6.5 75.4777 8.72566 80.8509 12.6874 84.8126C16.6491 88.7743 22.0223 91 27.625 91H74.75V100.75H100.75V74.75H74.75ZM94.25 94.25H81.25V81.25H94.25V94.25Z" fill="url(#paint0_linear_528_6030)"/>
<path d="M68.25 71.5H61.75V61.75H42.25V71.5H35.75V61.75C35.7517 60.0266 36.4371 58.3743 37.6557 57.1557C38.8743 55.9371 40.5266 55.2517 42.25 55.25H61.75C63.4734 55.2517 65.1257 55.9371 66.3443 57.1557C67.5629 58.3743 68.2483 60.0266 68.25 61.75V71.5ZM52 52C50.0716 52 48.1866 51.4282 46.5832 50.3568C44.9798 49.2855 43.7301 47.7627 42.9922 45.9812C42.2542 44.1996 42.0611 42.2392 42.4373 40.3479C42.8135 38.4566 43.7421 36.7193 45.1057 35.3557C46.4693 33.9922 48.2066 33.0636 50.0979 32.6873C51.9892 32.3111 53.9496 32.5042 55.7312 33.2422C57.5127 33.9801 59.0355 35.2298 60.1068 36.8332C61.1782 38.4366 61.75 40.3216 61.75 42.25C61.7474 44.8351 60.7194 47.3135 58.8914 49.1414C57.0635 50.9694 54.5851 51.9974 52 52ZM52 39C51.3572 39 50.7289 39.1906 50.1944 39.5477C49.6599 39.9048 49.2434 40.4124 48.9974 41.0063C48.7514 41.6001 48.687 42.2536 48.8124 42.884C48.9378 43.5145 49.2474 44.0936 49.7019 44.5481C50.1564 45.0026 50.7355 45.3122 51.366 45.4376C51.9964 45.563 52.6499 45.4986 53.2437 45.2526C53.8376 45.0066 54.3452 44.5901 54.7023 44.0556C55.0594 43.5212 55.25 42.8928 55.25 42.25C55.2491 41.3883 54.9065 40.5622 54.2971 39.9529C53.6878 39.3436 52.8617 39.0009 52 39Z" fill="url(#paint1_linear_528_6030)"/>
<path d="M76.375 13H29.25V3.25H3.25V29.25H29.25V19.5H76.375C80.2538 19.5 83.9737 21.0408 86.7164 23.7836C89.4592 26.5263 91 30.2462 91 34.125C91 38.0038 89.4592 41.7237 86.7164 44.4664C83.9737 47.2092 80.2538 48.75 76.375 48.75H74.75V55.25H76.375C81.9777 55.25 87.3509 53.0243 91.3126 49.0626C95.2743 45.1009 97.5 39.7277 97.5 34.125C97.5 28.5223 95.2743 23.1491 91.3126 19.1874C87.3509 15.2257 81.9777 13 76.375 13ZM22.75 22.75H9.75V9.75H22.75V22.75Z" fill="url(#paint2_linear_528_6030)"/>
<defs>
<linearGradient id="paint0_linear_528_6030" x1="5.98825" y1="101.036" x2="50.7228" y2="20.8406" gradientUnits="userSpaceOnUse">
<stop stop-color="#FF8906"/>
<stop offset="0.505208" stop-color="#F15B47"/>
<stop offset="1" stop-color="#E53170"/>
</linearGradient>
<linearGradient id="paint1_linear_528_6030" x1="35.5735" y1="71.7142" x2="74.2789" y2="39.8123" gradientUnits="userSpaceOnUse">
<stop stop-color="#FF8906"/>
<stop offset="0.505208" stop-color="#F15B47"/>
<stop offset="1" stop-color="#E53170"/>
</linearGradient>
<linearGradient id="paint2_linear_528_6030" x1="2.73825" y1="55.5356" x2="47.4728" y2="-24.6594" gradientUnits="userSpaceOnUse">
<stop stop-color="#FF8906"/>
<stop offset="0.505208" stop-color="#F15B47"/>
<stop offset="1" stop-color="#E53170"/>
</linearGradient>
</defs>
</svg>
