<svg width="104" height="104" viewBox="0 0 104 104" fill="none" xmlns="http://www.w3.org/2000/svg">
<path d="M97.5 97.5H91V81.25C90.9948 76.9418 89.2811 72.8116 86.2348 69.7652C83.1884 66.7189 79.0582 65.0052 74.75 65V58.5C80.7816 58.5069 86.5641 60.906 90.8291 65.1709C95.094 69.4359 97.4931 75.2184 97.5 81.25V97.5ZM71.5 97.5H65V81.25C64.9948 76.9418 63.2811 72.8116 60.2348 69.7652C57.1884 66.7189 53.0582 65.0052 48.75 65H29.25C24.9418 65.0052 20.8116 66.7189 17.7652 69.7652C14.7189 72.8116 13.0052 76.9418 13 81.25V97.5H6.5V81.25C6.50688 75.2184 8.90596 69.4359 13.1709 65.1709C17.4359 60.906 23.2184 58.5069 29.25 58.5H48.75C54.7816 58.5069 60.5641 60.906 64.8291 65.1709C69.094 69.4359 71.4931 75.2184 71.5 81.25V97.5ZM65 6.5V13C69.3098 13 73.443 14.712 76.4905 17.7595C79.5379 20.807 81.25 24.9402 81.25 29.25C81.25 33.5598 79.5379 37.693 76.4905 40.7405C73.443 43.788 69.3098 45.5 65 45.5V52C71.0337 52 76.8202 49.6031 81.0867 45.3367C85.3531 41.0702 87.75 35.2837 87.75 29.25C87.75 23.2163 85.3531 17.4298 81.0867 13.1633C76.8202 8.89687 71.0337 6.5 65 6.5ZM39 13C42.2139 13 45.3557 13.953 48.028 15.7386C50.7003 17.5242 52.7831 20.0621 54.013 23.0314C55.243 26.0007 55.5648 29.268 54.9378 32.4202C54.3108 35.5724 52.7631 38.4679 50.4905 40.7405C48.2179 43.0131 45.3224 44.5608 42.1702 45.1878C39.018 45.8148 35.7507 45.493 32.7814 44.263C29.8121 43.0331 27.2742 40.9503 25.4886 38.278C23.703 35.6057 22.75 32.4639 22.75 29.25C22.75 24.9402 24.462 20.807 27.5095 17.7595C30.557 14.712 34.6902 13 39 13ZM39 6.5C34.5005 6.5 30.102 7.83426 26.3608 10.3341C22.6196 12.8339 19.7036 16.3869 17.9817 20.544C16.2598 24.701 15.8093 29.2752 16.6871 33.6883C17.5649 38.1014 19.7317 42.155 22.9133 45.3367C26.095 48.5183 30.1486 50.6851 34.5617 51.5629C38.9748 52.4407 43.549 51.9902 47.7061 50.2683C51.8631 48.5464 55.4161 45.6304 57.9159 41.8892C60.4157 38.148 61.75 33.7495 61.75 29.25C61.75 23.2163 59.3531 17.4298 55.0867 13.1633C50.8202 8.89687 45.0337 6.5 39 6.5Z" fill="url(#paint0_linear_521_5978)"/>
<defs>
<linearGradient id="paint0_linear_521_5978" x1="6.00589" y1="97.9998" x2="98.0056" y2="7.00583" gradientUnits="userSpaceOnUse">
<stop stop-color="#FF8906"/>
<stop offset="0.505208" stop-color="#F15B47"/>
<stop offset="1" stop-color="#E53170"/>
</linearGradient>
</defs>
</svg>
