<svg width="104" height="104" viewBox="0 0 104 104" fill="none" xmlns="http://www.w3.org/2000/svg">
<g clip-path="url(#clip0_521_5985)">
<path d="M52 0L13 19.4285V65.143C13 75.4864 17.1089 85.4062 24.4228 92.7202C31.7368 100.034 41.6566 104.143 52 104.143C62.3434 104.143 72.2632 100.034 79.5772 92.7202C86.8911 85.4062 91 75.4864 91 65.143V19.4285L52 0ZM74.1975 88.7705L52 77.714V84.955L68.367 93.1093C63.4362 95.9812 57.8363 97.5046 52.1302 97.5264C46.424 97.5481 40.8127 96.0675 35.8601 93.2332C30.9076 90.3989 26.7884 86.3108 23.9166 81.38C21.0448 76.4491 19.5216 70.8492 19.5 65.143V23.4325L52 7.241L84.5 23.4325V35.62L52 19.4285V26.6695L84.5 42.861V55.0485L52 38.857V46.098L84.5 62.2895V65.143C84.5015 68.0953 84.0969 71.0338 83.2975 73.8758L52 58.2855V65.5265L80.9088 79.9273C79.194 83.2372 76.924 86.2284 74.1975 88.7705Z" fill="url(#paint0_linear_521_5985)"/>
</g>
<defs>
<linearGradient id="paint0_linear_521_5985" x1="12.5765" y1="104.715" x2="113.302" y2="30.0995" gradientUnits="userSpaceOnUse">
<stop stop-color="#FF8906"/>
<stop offset="0.505208" stop-color="#F15B47"/>
<stop offset="1" stop-color="#E53170"/>
</linearGradient>
<clipPath id="clip0_521_5985">
<rect width="104" height="104" fill="white"/>
</clipPath>
</defs>
</svg>
