<svg width="104" height="104" viewBox="0 0 104 104" fill="none" xmlns="http://www.w3.org/2000/svg">
<path d="M60.8998 56.8161L61.1292 57.0456L61.3892 56.8515C65.2487 53.9712 69.9345 52.413 74.7503 52.4085C79.7901 52.4031 84.684 54.0992 88.6395 57.2222C92.595 60.3452 95.3803 64.7121 96.5443 69.6155C97.7083 74.519 97.1828 79.6718 95.053 84.2394C92.9232 88.8069 89.3137 92.5217 84.8093 94.782C80.3048 97.0422 75.1692 97.7156 70.2343 96.693C65.2995 95.6705 60.8543 93.0118 57.6189 89.1478C54.3835 85.2837 52.5474 80.4405 52.4079 75.4027C52.2684 70.3649 53.8337 65.4276 56.8504 61.3904L57.0445 61.1307L56.8154 60.9011L43.1329 47.1861L42.9034 46.956L42.643 47.1506C38.6047 50.168 33.6658 51.7333 28.6267 51.5929C23.5876 51.4525 18.7435 49.6145 14.8796 46.3768C11.0156 43.1391 8.35821 38.6915 7.33801 33.7547C6.31782 28.818 6.99462 23.6813 9.25872 19.1773C11.5228 14.6732 15.2416 11.0657 19.8123 8.93941C24.383 6.81308 29.5378 6.29254 34.4413 7.46213C39.3448 8.63173 43.7097 11.4229 46.8286 15.3834C49.9475 19.3438 51.6376 24.2415 51.625 29.2825L51.625 29.2844C51.6368 34.0965 50.0648 38.7789 47.1515 42.6089L46.9532 42.8696L47.1848 43.1011L60.8998 56.8161ZM15.4268 20.0471C13.6 22.7811 12.625 25.9954 12.625 29.2835C12.625 33.6927 14.3765 37.9213 17.4943 41.0391C20.6121 44.1569 24.8407 45.9085 29.25 45.9085C32.5381 45.9085 35.7523 44.9334 38.4863 43.1066C41.2203 41.2799 43.3512 38.6834 44.6095 35.6456C45.8678 32.6078 46.197 29.265 45.5555 26.0401C44.914 22.8152 43.3307 19.8529 41.0056 17.5278C38.6806 15.2028 35.7183 13.6194 32.4933 12.9779C29.2684 12.3364 25.9257 12.6657 22.8878 13.924C19.85 15.1823 17.2536 17.3131 15.4268 20.0471Z" fill="url(#paint0_linear_521_5740)" stroke="#F0F4F7" stroke-width="0.75"/>
<defs>
<linearGradient id="paint0_linear_521_5740" x1="6.00576" y1="98.0336" x2="98.0627" y2="7.01567" gradientUnits="userSpaceOnUse">
<stop stop-color="#FF8906"/>
<stop offset="0.505208" stop-color="#F15B47"/>
<stop offset="1" stop-color="#E53170"/>
</linearGradient>
</defs>
</svg>
