<svg width="104" height="104" viewBox="0 0 104 104" fill="none" xmlns="http://www.w3.org/2000/svg">
<path d="M65 19.5C60.5241 19.4977 56.0969 20.4275 52 22.23C47.9031 20.4275 43.4759 19.4977 39 19.5C30.3805 19.5 22.114 22.9241 16.019 29.019C9.9241 35.114 6.5 43.3805 6.5 52C6.5 60.6195 9.9241 68.886 16.019 74.981C22.114 81.0759 30.3805 84.5 39 84.5C43.4759 84.5023 47.9031 83.5725 52 81.77C56.0969 83.5725 60.5241 84.5023 65 84.5C73.6195 84.5 81.886 81.0759 87.981 74.981C94.0759 68.886 97.5 60.6195 97.5 52C97.5 43.3805 94.0759 35.114 87.981 29.019C81.886 22.9241 73.6195 19.5 65 19.5ZM39 78C32.1044 78 25.4912 75.2607 20.6152 70.3848C15.7393 65.5088 13 58.8956 13 52C13 45.1044 15.7393 38.4912 20.6152 33.6152C25.4912 28.7393 32.1044 26 39 26C40.925 26.0018 42.8437 26.2199 44.72 26.65C40.9242 29.6953 37.8607 33.5541 35.7557 37.9417C33.6507 42.3293 32.5578 47.1336 32.5578 52C32.5578 56.8664 33.6507 61.6707 35.7557 66.0583C37.8607 70.4459 40.9242 74.3047 44.72 77.35C42.8437 77.7801 40.925 77.9982 39 78ZM65 52C64.9953 56.5594 63.7917 61.0375 61.51 64.9849C59.2283 68.9323 55.9486 72.2103 52 74.49C48.06 72.2045 44.7895 68.924 42.5161 64.9769C40.2427 61.0299 39.0461 56.5549 39.0461 52C39.0461 47.4451 40.2427 42.9701 42.5161 39.0231C44.7895 35.076 48.06 31.7955 52 29.51C55.9486 31.7897 59.2283 35.0677 61.51 39.0151C63.7917 42.9625 64.9953 47.4406 65 52ZM65 78C63.075 77.9982 61.1563 77.7801 59.28 77.35C63.0758 74.3047 66.1393 70.4459 68.2443 66.0583C70.3493 61.6707 71.4422 56.8664 71.4422 52C71.4422 47.1336 70.3493 42.3293 68.2443 37.9417C66.1393 33.5541 63.0758 29.6953 59.28 26.65C61.1563 26.2199 63.075 26.0018 65 26C71.8956 26 78.5088 28.7393 83.3848 33.6152C88.2607 38.4912 91 45.1044 91 52C91 58.8956 88.2607 65.5088 83.3848 70.3848C78.5088 75.2607 71.8956 78 65 78Z" fill="url(#paint0_linear_528_5990)"/>
<defs>
<linearGradient id="paint0_linear_528_5990" x1="6.00589" y1="84.857" x2="68.3903" y2="-1.52633" gradientUnits="userSpaceOnUse">
<stop stop-color="#FF8906"/>
<stop offset="0.505208" stop-color="#F15B47"/>
<stop offset="1" stop-color="#E53170"/>
</linearGradient>
</defs>
</svg>
