<svg width="104" height="104" viewBox="0 0 104 104" fill="none" xmlns="http://www.w3.org/2000/svg">
<path d="M44.3525 48.4484C43.4082 48.3685 42.4618 48.5756 41.6372 49.0426C40.8126 49.5095 40.1481 50.2145 39.7308 51.0654C39.3135 51.9162 39.1628 52.8732 39.2984 53.8111C39.434 54.749 39.8496 55.6241 40.4908 56.3218C41.132 57.0196 41.969 57.5076 42.8921 57.7218C43.8152 57.936 44.7815 57.8666 45.6645 57.5226C46.5475 57.1785 47.306 56.5759 47.8409 55.7936C48.3757 55.0113 48.6619 54.0858 48.662 53.1381C48.6873 52.5472 48.5958 51.957 48.3929 51.4014C48.19 50.8458 47.8795 50.3356 47.4793 49.9001C47.079 49.4645 46.5969 49.1121 46.0604 48.863C45.5239 48.6139 44.9435 48.473 44.3525 48.4484ZM59.7738 48.4484C58.8295 48.3685 57.8831 48.5756 57.0585 49.0426C56.2338 49.5095 55.5694 50.2145 55.1521 51.0654C54.7348 51.9162 54.5841 52.8732 54.7197 53.8111C54.8553 54.749 55.2709 55.6241 55.9121 56.3218C56.5533 57.0196 57.3902 57.5076 58.3133 57.7218C59.2365 57.936 60.2027 57.8666 61.0857 57.5226C61.9687 57.1785 62.7273 56.5759 63.2621 55.7936C63.797 55.0113 64.0832 54.0858 64.0833 53.1381C64.1085 52.5472 64.0171 51.957 63.8142 51.4014C63.6112 50.8458 63.3007 50.3356 62.9005 49.9001C62.5003 49.4645 62.0181 49.1121 61.4816 48.863C60.9451 48.6139 60.3648 48.473 59.7738 48.4484Z" fill="url(#paint0_linear_528_6177)"/>
<path d="M80.3075 13H23.6925C22.5523 13.0026 21.4237 13.2297 20.3713 13.6685C19.3188 14.1074 18.3632 14.7492 17.5589 15.5575C16.7546 16.3657 16.1173 17.3245 15.6837 18.379C15.25 19.4336 15.0283 20.5633 15.0313 21.7035V78.8255C15.0283 79.9657 15.25 81.0954 15.6837 82.15C16.1173 83.2045 16.7546 84.1633 17.5589 84.9715C18.3632 85.7798 19.3188 86.4216 20.3713 86.8604C21.4237 87.2993 22.5523 87.5264 23.6925 87.529H71.604L69.3648 79.7128L74.7728 84.7405L79.885 89.4725L88.9688 97.5V21.7035C88.9718 20.5633 88.7501 19.4336 88.3164 18.379C87.8827 17.3245 87.2455 16.3657 86.4412 15.5575C85.6369 14.7492 84.6812 14.1074 83.6288 13.6685C82.5764 13.2297 81.4478 13.0026 80.3075 13V13ZM63.999 68.1785C63.999 68.1785 62.478 66.3617 61.2105 64.7562C64.273 64.0352 66.9818 62.2543 68.8578 59.7285C67.3375 60.7402 65.7075 61.5765 63.999 62.2213C62.0335 63.0602 59.9779 63.6698 57.8728 64.038C54.2543 64.7042 50.5433 64.6899 46.93 63.9957C44.8087 63.5807 42.7298 62.9726 40.7193 62.179C39.6595 61.7715 38.629 61.2915 37.635 60.7425C37.5083 60.658 37.3815 60.6158 37.2548 60.5312C37.1912 60.4996 37.134 60.4567 37.0858 60.4045C36.6805 60.1836 36.2857 59.944 35.9028 59.6862C37.7109 62.1592 40.3261 63.9226 43.2965 64.6718C42.029 66.2773 40.4658 68.1785 40.4658 68.1785C37.956 68.2461 35.4681 67.6958 33.2211 66.5759C30.974 65.4561 29.0366 63.8011 27.5795 61.7565C27.7167 53.1912 29.797 44.7689 33.6635 37.1248C37.0661 34.4523 41.2145 32.9022 45.5358 32.6885L45.9583 33.1955C41.8927 34.2016 38.0988 36.0913 34.8465 38.7302C34.8465 38.7302 35.776 38.2232 37.3393 37.505C40.3762 36.1187 43.613 35.2204 46.93 34.8432C47.1665 34.7943 47.4069 34.766 47.6483 34.7587C50.4795 34.3899 53.3448 34.3615 56.1828 34.6742C60.6458 35.184 64.966 36.5618 68.9 38.7302C65.8126 36.2171 62.2268 34.3882 58.3798 33.3645L58.9713 32.6885C63.2926 32.9022 67.441 34.4523 70.8435 37.1248C74.7101 44.7689 76.7904 53.1912 76.9275 61.7565C75.4586 63.799 73.513 65.4518 71.2598 66.571C69.0066 67.6902 66.5141 68.2421 63.999 68.1785V68.1785Z" fill="url(#paint1_linear_528_6177)"/>
<defs>
<linearGradient id="paint0_linear_528_6177" x1="39.1151" y1="57.8953" x2="45.4736" y2="41.2995" gradientUnits="userSpaceOnUse">
<stop stop-color="#FF8906"/>
<stop offset="0.505208" stop-color="#F15B47"/>
<stop offset="1" stop-color="#E53170"/>
</linearGradient>
<linearGradient id="paint1_linear_528_6177" x1="14.6298" y1="97.9641" x2="99.1788" y2="24.7925" gradientUnits="userSpaceOnUse">
<stop stop-color="#FF8906"/>
<stop offset="0.505208" stop-color="#F15B47"/>
<stop offset="1" stop-color="#E53170"/>
</linearGradient>
</defs>
</svg>
