<svg width="104" height="104" viewBox="0 0 104 104" fill="none" xmlns="http://www.w3.org/2000/svg">
<path d="M13.375 25.375V97.125H19.125V28.4375V28.25L19.275 28.1375L29.025 20.825L29.25 20.6562L29.475 20.825L39.225 28.1375L39.375 28.25V28.4375V97.125H45.125V54.4375V54.25L45.275 54.1375L55.025 46.825L55.25 46.6562L55.475 46.825L65.225 54.1375L65.375 54.25V54.4375V97.125H71.125V80.4375V80.25L71.275 80.1375L81.025 72.825L81.25 72.6562L81.475 72.825L91.225 80.1375L91.375 80.25V80.4375V97.125H97.125V77.375L81.25 65.4688L71.725 72.6125L71.125 73.0625V72.3125V51.375L55.25 39.4687L45.725 46.6125L45.125 47.0625V46.3125V25.375L29.25 13.4687L13.375 25.375Z" fill="url(#paint0_linear_521_5732)" stroke="#F0F4F7" stroke-width="0.75"/>
<defs>
<linearGradient id="paint0_linear_521_5732" x1="97.9588" y1="97.9641" x2="12.5305" y2="13.4697" gradientUnits="userSpaceOnUse">
<stop stop-color="#FF8906"/>
<stop offset="0.505208" stop-color="#F15B47"/>
<stop offset="1" stop-color="#E53170"/>
</linearGradient>
</defs>
</svg>
