<svg width="104" height="104" viewBox="0 0 104 104" fill="none" xmlns="http://www.w3.org/2000/svg">
<path d="M58.125 52C58.125 55.3827 55.3827 58.125 52 58.125C48.6173 58.125 45.875 55.3827 45.875 52C45.875 48.6173 48.6173 45.875 52 45.875C55.3827 45.875 58.125 48.6173 58.125 52Z" fill="url(#paint0_linear_521_5724)" stroke="#F0F4F7" stroke-width="0.75"/>
<path d="M85.3027 63.667L81.25 67.7197L65.5303 52L81.25 36.2803L85.3027 40.333L77.1818 48.4853L76.5446 49.125H77.4475H97.125V54.875H77.4475H76.5446L77.1818 55.5147L85.3027 63.667ZM49.125 77.4475V76.5446L48.4853 77.1818L40.333 85.3027L36.2803 81.25L52 65.5303L67.7197 81.25L63.667 85.3027L55.5147 77.1818L54.875 76.5446V77.4475V97.125H49.125V77.4475ZM26.5525 54.875H6.875V49.125H26.5525H27.4554L26.8182 48.4853L18.6973 40.333L22.75 36.2803L38.4697 52L22.75 67.7197L18.6973 63.667L26.8182 55.5147L27.4554 54.875H26.5525ZM54.875 26.5525V27.4554L55.5147 26.8182L63.667 18.6973L67.7197 22.75L52 38.4697L36.2803 22.75L40.333 18.6973L48.4853 26.8182L49.125 27.4554V26.5525V6.875H54.875V26.5525Z" fill="url(#paint1_linear_521_5724)" stroke="#F0F4F7" stroke-width="0.75"/>
<defs>
<linearGradient id="paint0_linear_521_5724" x1="45.4294" y1="58.5714" x2="58.5722" y2="45.5723" gradientUnits="userSpaceOnUse">
<stop stop-color="#FF8906"/>
<stop offset="0.505208" stop-color="#F15B47"/>
<stop offset="1" stop-color="#E53170"/>
</linearGradient>
<linearGradient id="paint1_linear_521_5724" x1="6.00589" y1="97.9998" x2="98.0056" y2="7.00583" gradientUnits="userSpaceOnUse">
<stop stop-color="#FF8906"/>
<stop offset="0.505208" stop-color="#F15B47"/>
<stop offset="1" stop-color="#E53170"/>
</linearGradient>
</defs>
</svg>
