<svg width="104" height="104" viewBox="0 0 104 104" fill="none" xmlns="http://www.w3.org/2000/svg">
<path d="M26 29.25C23.4288 29.25 20.9154 28.4876 18.7776 27.0591C16.6397 25.6307 14.9735 23.6003 13.9896 21.2249C13.0056 18.8495 12.7482 16.2356 13.2498 13.7138C13.7514 11.1921 14.9895 8.8757 16.8076 7.05762C18.6257 5.23954 20.9421 4.00141 23.4638 3.4998C25.9856 2.99819 28.5994 3.25563 30.9749 4.23957C33.3503 5.22351 35.3806 6.88975 36.8091 9.02759C38.2376 11.1654 39 13.6788 39 16.25C39 19.6978 37.6304 23.0044 35.1924 25.4424C32.7544 27.8804 29.4478 29.25 26 29.25ZM26 9.75001C24.7144 9.75001 23.4577 10.1312 22.3888 10.8455C21.3199 11.5597 20.4868 12.5748 19.9948 13.7626C19.5028 14.9503 19.3741 16.2572 19.6249 17.5181C19.8757 18.779 20.4948 19.9372 21.4038 20.8462C22.3128 21.7552 23.471 22.3743 24.7319 22.6251C25.9928 22.8759 27.2997 22.7472 28.4874 22.2552C29.6752 21.7633 30.6903 20.9301 31.4046 19.8612C32.1188 18.7923 32.5 17.5356 32.5 16.25C32.5 14.5261 31.8152 12.8728 30.5962 11.6538C29.3772 10.4348 27.7239 9.75001 26 9.75001ZM78 29.25C75.4288 29.25 72.9154 28.4876 70.7776 27.0591C68.6397 25.6307 66.9735 23.6003 65.9896 21.2249C65.0056 18.8495 64.7482 16.2356 65.2498 13.7138C65.7514 11.1921 66.9895 8.8757 68.8076 7.05762C70.6257 5.23954 72.9421 4.00141 75.4638 3.4998C77.9856 2.99819 80.5994 3.25563 82.9749 4.23957C85.3503 5.22351 87.3806 6.88975 88.8091 9.02759C90.2376 11.1654 91 13.6788 91 16.25C91 19.6978 89.6304 23.0044 87.1924 25.4424C84.7544 27.8804 81.4478 29.25 78 29.25ZM78 9.75001C76.7144 9.75001 75.4577 10.1312 74.3888 10.8455C73.3199 11.5597 72.4868 12.5748 71.9948 13.7626C71.5028 14.9503 71.3741 16.2572 71.6249 17.5181C71.8757 18.779 72.4948 19.9372 73.4038 20.8462C74.3129 21.7552 75.471 22.3743 76.7319 22.6251C77.9928 22.8759 79.2997 22.7472 80.4874 22.2552C81.6752 21.7633 82.6903 20.9301 83.4045 19.8612C84.1188 18.7923 84.5 17.5356 84.5 16.25C84.5 14.5261 83.8152 12.8728 82.5962 11.6538C81.3772 10.4348 79.7239 9.75001 78 9.75001ZM84.5 97.5H71.5C69.7761 97.5 68.1228 96.8152 66.9038 95.5962C65.6848 94.3772 65 92.7239 65 91V68.25H71.5V91H84.5V61.75H91V42.25C91 41.3881 90.6576 40.5614 90.0481 39.9519C89.4386 39.3424 88.612 39 87.75 39H66.885L52 65L37.115 39H16.25C15.388 39 14.5614 39.3424 13.9519 39.9519C13.3424 40.5614 13 41.3881 13 42.25V61.75H19.5V91H32.5V68.25H39V91C39 92.7239 38.3152 94.3772 37.0962 95.5962C35.8772 96.8152 34.2239 97.5 32.5 97.5H19.5C17.7761 97.5 16.1228 96.8152 14.9038 95.5962C13.6848 94.3772 13 92.7239 13 91V68.25C11.2761 68.25 9.62279 67.5652 8.40381 66.3462C7.18482 65.1272 6.5 63.4739 6.5 61.75V42.25C6.5 39.6641 7.52723 37.1842 9.35571 35.3557C11.1842 33.5272 13.6641 32.5 16.25 32.5H40.885L52 52L63.115 32.5H87.75C90.3359 32.5 92.8158 33.5272 94.6443 35.3557C96.4728 37.1842 97.5 39.6641 97.5 42.25V61.75C97.5 63.4739 96.8152 65.1272 95.5962 66.3462C94.3772 67.5652 92.7239 68.25 91 68.25V91C91 92.7239 90.3152 94.3772 89.0962 95.5962C87.8772 96.8152 86.2239 97.5 84.5 97.5Z" fill="url(#paint0_linear_521_6130)"/>
<defs>
<linearGradient id="paint0_linear_521_6130" x1="6.00589" y1="98.0177" x2="101.196" y2="7.11473" gradientUnits="userSpaceOnUse">
<stop stop-color="#FF8906"/>
<stop offset="0.505208" stop-color="#F15B47"/>
<stop offset="1" stop-color="#E53170"/>
</linearGradient>
</defs>
</svg>
