<svg width="104" height="104" viewBox="0 0 104 104" fill="none" xmlns="http://www.w3.org/2000/svg">
<path d="M39 48.75H19.8575C20.4615 44.7276 21.8978 40.8754 24.0747 37.4395C26.2515 34.0035 29.1211 31.0593 32.5 28.795L38.3175 24.895L34.7425 19.5L28.925 23.4C24.0282 26.6632 20.0126 31.0848 17.2345 36.2723C14.4565 41.4599 13.002 47.253 13 53.1375V74.75C13 76.4739 13.6848 78.1272 14.9038 79.3462C16.1228 80.5652 17.7761 81.25 19.5 81.25H39C40.7239 81.25 42.3772 80.5652 43.5962 79.3462C44.8152 78.1272 45.5 76.4739 45.5 74.75V55.25C45.5 53.5261 44.8152 51.8728 43.5962 50.6538C42.3772 49.4348 40.7239 48.75 39 48.75ZM84.5 48.75H65.3575C65.9615 44.7276 67.3978 40.8754 69.5747 37.4395C71.7515 34.0035 74.6211 31.0593 78 28.795L83.8175 24.895L80.275 19.5L74.425 23.4C69.5282 26.6632 65.5126 31.0848 62.7345 36.2723C59.9565 41.4599 58.502 47.253 58.5 53.1375V74.75C58.5 76.4739 59.1848 78.1272 60.4038 79.3462C61.6228 80.5652 63.2761 81.25 65 81.25H84.5C86.2239 81.25 87.8772 80.5652 89.0962 79.3462C90.3152 78.1272 91 76.4739 91 74.75V55.25C91 53.5261 90.3152 51.8728 89.0962 50.6538C87.8772 49.4348 86.2239 48.75 84.5 48.75Z" fill="url(#paint0_linear_521_6225)"/>
<defs>
<linearGradient id="paint0_linear_521_6225" x1="12.5765" y1="81.5891" x2="73.4929" y2="5.48334" gradientUnits="userSpaceOnUse">
<stop stop-color="#FF8906"/>
<stop offset="0.505208" stop-color="#F15B47"/>
<stop offset="1" stop-color="#E53170"/>
</linearGradient>
</defs>
</svg>
