<svg width="104" height="104" viewBox="0 0 104 104" fill="none" xmlns="http://www.w3.org/2000/svg">
<path fill-rule="evenodd" clip-rule="evenodd" d="M47.1349 58.0712C47.6267 58.3527 48.1836 58.5006 48.7502 58.5002C49.2391 58.4997 49.7216 58.3888 50.1617 58.1759C50.6019 57.963 50.9883 57.6536 51.2922 57.2706C51.5962 56.8876 51.8098 56.441 51.9172 55.964C52.0246 55.4871 52.0229 54.992 51.9124 54.5157L48.4674 39.6567L57.6259 29.8417C58.026 29.4133 58.3028 28.8847 58.4269 28.3118C58.5511 27.7389 58.518 27.1431 58.3311 26.5875C58.1442 26.0319 57.8106 25.5371 57.3655 25.1557C56.9204 24.7743 56.3804 24.5203 55.8027 24.4207L42.5524 22.1392L35.3894 8.26174C35.1133 7.72558 34.6933 7.27685 34.1767 6.96575C33.66 6.65465 33.0669 6.49346 32.4639 6.5002C31.8608 6.50695 31.2715 6.68137 30.7619 7.00395C30.2523 7.32653 29.8426 7.78454 29.5784 8.32674L22.8639 22.1392L9.21394 24.4207C8.63492 24.5179 8.09305 24.7702 7.64588 25.1506C7.19872 25.5311 6.86297 26.0256 6.67431 26.5816C6.48565 27.1375 6.45113 27.7343 6.5744 28.3083C6.69768 28.8823 6.97415 29.4122 7.37444 29.8417L16.5329 39.6567L13.0847 54.5157C12.9416 55.1318 12.9814 55.7763 13.1993 56.3701C13.4171 56.9639 13.8034 57.4813 14.311 57.8587C14.8185 58.2362 15.4251 58.4574 16.0565 58.4951C16.6879 58.5328 17.3166 58.3855 17.8654 58.0712L32.5002 49.6862L47.1349 58.0712ZM34.1166 43.1242C33.6161 42.8349 32.5013 42.2499 32.5013 42.2499C32.5013 42.2499 31.3898 42.8349 30.8828 43.1242L21.1003 48.7272L23.6483 37.7519L16.2578 29.8317L27.2461 27.9954L32.5891 17.0039L38.2603 27.9954L48.7676 29.8057L41.3511 37.7519L43.8991 48.7272L34.1166 43.1242ZM71.5 97.5H91C92.7234 97.4983 94.3757 96.8129 95.5943 95.5943C96.8129 94.3757 97.4983 92.7234 97.5 91V71.5C97.4983 69.7766 96.8129 68.1243 95.5943 66.9057C94.3757 65.6871 92.7234 65.0017 91 65H71.5C69.7766 65.0017 68.1243 65.6871 66.9057 66.9057C65.6871 68.1243 65.0017 69.7766 65 71.5V91C65.0017 92.7234 65.6871 94.3757 66.9057 95.5943C68.1243 96.8129 69.7766 97.4983 71.5 97.5ZM71.4967 71.5H71.5H91V91H71.5L71.4967 71.5ZM39 84.5H58.5V78H39C38.1383 77.9991 37.3122 77.6565 36.7029 77.0471C36.0935 76.4378 35.7509 75.6117 35.75 74.75V61.75H29.25V74.75C29.2526 77.3351 30.2806 79.8135 32.1086 81.6414C33.9365 83.4694 36.4149 84.4974 39 84.5ZM78 58.5H84.5V48.75C84.4974 46.1649 83.4694 43.6865 81.6414 41.8586C79.8135 40.0306 77.3351 39.0026 74.75 39H58.5V45.5H74.75C75.6117 45.5009 76.4378 45.8435 77.0471 46.4529C77.6565 47.0622 77.9991 47.8883 78 48.75V58.5Z" fill="url(#paint0_linear_521_5948)"/>
<defs>
<linearGradient id="paint0_linear_521_5948" x1="6.00786" y1="97.9998" x2="98.0076" y2="7.0078" gradientUnits="userSpaceOnUse">
<stop stop-color="#FF8906"/>
<stop offset="0.505208" stop-color="#F15B47"/>
<stop offset="1" stop-color="#E53170"/>
</linearGradient>
</defs>
</svg>
