<svg width="104" height="104" viewBox="0 0 104 104" fill="none" xmlns="http://www.w3.org/2000/svg">
<path d="M48.75 65H55.25V78H48.75V65ZM65 58.5H71.5V78H65V58.5ZM32.5 45.5H39V78H32.5V45.5Z" fill="url(#paint0_linear_521_5970)"/>
<path d="M81.25 16.25H71.5V13C71.5 11.2761 70.8152 9.62279 69.5962 8.40381C68.3772 7.18482 66.7239 6.5 65 6.5H39C37.2761 6.5 35.6228 7.18482 34.4038 8.40381C33.1848 9.62279 32.5 11.2761 32.5 13V16.25H22.75C21.0261 16.25 19.3728 16.9348 18.1538 18.1538C16.9348 19.3728 16.25 21.0261 16.25 22.75V91C16.25 92.7239 16.9348 94.3772 18.1538 95.5962C19.3728 96.8152 21.0261 97.5 22.75 97.5H81.25C82.9739 97.5 84.6272 96.8152 85.8462 95.5962C87.0652 94.3772 87.75 92.7239 87.75 91V22.75C87.75 21.0261 87.0652 19.3728 85.8462 18.1538C84.6272 16.9348 82.9739 16.25 81.25 16.25ZM39 13H65V26H39V13ZM81.25 91H22.75V22.75H32.5V32.5H71.5V22.75H81.25V91Z" fill="url(#paint1_linear_521_5970)"/>
<defs>
<linearGradient id="paint0_linear_521_5970" x1="32.2882" y1="78.1785" x2="64.6708" y2="39.7442" gradientUnits="userSpaceOnUse">
<stop stop-color="#FF8906"/>
<stop offset="0.505208" stop-color="#F15B47"/>
<stop offset="1" stop-color="#E53170"/>
</linearGradient>
<linearGradient id="paint1_linear_521_5970" x1="15.8618" y1="97.9998" x2="105.018" y2="28.7146" gradientUnits="userSpaceOnUse">
<stop stop-color="#FF8906"/>
<stop offset="0.505208" stop-color="#F15B47"/>
<stop offset="1" stop-color="#E53170"/>
</linearGradient>
</defs>
</svg>
