<svg width="104" height="104" viewBox="0 0 104 104" fill="none" xmlns="http://www.w3.org/2000/svg">
<path d="M87.75 81.25H68.25C65.6641 81.25 63.1842 82.2772 61.3557 84.1057C59.5272 85.9342 58.5 88.4141 58.5 91V97.5H65V91C65 90.1381 65.3424 89.3114 65.9519 88.7019C66.5614 88.0924 67.388 87.75 68.25 87.75H87.75C88.612 87.75 89.4386 88.0924 90.0481 88.7019C90.6576 89.3114 91 90.1381 91 91V97.5H97.5V91C97.5 88.4141 96.4728 85.9342 94.6443 84.1057C92.8158 82.2772 90.3359 81.25 87.75 81.25ZM65 65C65 67.5712 65.7624 70.0846 67.1909 72.2224C68.6194 74.3603 70.6497 76.0265 73.0251 77.0104C75.4006 77.9944 78.0144 78.2518 80.5362 77.7502C83.0579 77.2486 85.3743 76.0105 87.1924 74.1924C89.0105 72.3743 90.2486 70.0579 90.7502 67.5362C91.2518 65.0144 90.9944 62.4006 90.0104 60.0251C89.0265 57.6497 87.3603 55.6194 85.2224 54.1909C83.0846 52.7624 80.5712 52 78 52C74.5522 52 71.2456 53.3696 68.8076 55.8076C66.3696 58.2456 65 61.5522 65 65ZM84.5 65C84.5 66.2856 84.1188 67.5423 83.4045 68.6112C82.6903 69.6801 81.6752 70.5133 80.4874 71.0052C79.2997 71.4972 77.9928 71.6259 76.7319 71.3751C75.471 71.1243 74.3129 70.5052 73.4038 69.5962C72.4948 68.6872 71.8757 67.529 71.6249 66.2681C71.3741 65.0072 71.5028 63.7003 71.9948 62.5126C72.4868 61.3248 73.3199 60.3097 74.3888 59.5955C75.4577 58.8812 76.7144 58.5 78 58.5C79.7239 58.5 81.3772 59.1848 82.5962 60.4038C83.8152 61.6228 84.5 63.2761 84.5 65ZM19.5 68.25V65H13V68.25C13 74.2837 15.3969 80.0702 19.6633 84.3367C23.9298 88.6031 29.7163 91 35.75 91H45.5V84.5H35.75C31.4402 84.5 27.307 82.788 24.2595 79.7405C21.212 76.693 19.5 72.5598 19.5 68.25ZM61.75 32.5H84.5V39H61.75V32.5ZM61.75 19.5H94.25V26H61.75V19.5ZM61.75 6.50001H94.25V13H61.75V6.50001ZM35.75 35.75H16.25C13.6641 35.75 11.1842 36.7772 9.35571 38.6057C7.52723 40.4342 6.5 42.9141 6.5 45.5V52H13V45.5C13 44.6381 13.3424 43.8114 13.9519 43.2019C14.5614 42.5924 15.388 42.25 16.25 42.25H35.75C36.612 42.25 37.4386 42.5924 38.0481 43.2019C38.6576 43.8114 39 44.6381 39 45.5V52H45.5V45.5C45.5 42.9141 44.4728 40.4342 42.6443 38.6057C40.8158 36.7772 38.3359 35.75 35.75 35.75ZM26 32.5C28.5712 32.5 31.0846 31.7376 33.2224 30.3091C35.3603 28.8807 37.0265 26.8503 38.0104 24.4749C38.9944 22.0995 39.2518 19.4856 38.7502 16.9638C38.2486 14.4421 37.0105 12.1257 35.1924 10.3076C33.3743 8.48953 31.0579 7.25141 28.5362 6.7498C26.0144 6.24819 23.4006 6.50563 21.0251 7.48957C18.6497 8.47351 16.6194 10.1398 15.1909 12.2776C13.7624 14.4154 13 16.9288 13 19.5C13 22.9478 14.3696 26.2544 16.8076 28.6924C19.2456 31.1304 22.5522 32.5 26 32.5ZM26 13C27.2856 13 28.5423 13.3812 29.6112 14.0955C30.6801 14.8097 31.5132 15.8248 32.0052 17.0126C32.4972 18.2003 32.6259 19.5072 32.3751 20.7681C32.1243 22.029 31.5052 23.1872 30.5962 24.0962C29.6872 25.0052 28.529 25.6243 27.2681 25.8751C26.0072 26.1259 24.7003 25.9972 23.5126 25.5052C22.3248 25.0133 21.3097 24.1801 20.5954 23.1112C19.8812 22.0423 19.5 20.7856 19.5 19.5C19.5 17.7761 20.1848 16.1228 21.4038 14.9038C22.6228 13.6848 24.2761 13 26 13Z" fill="url(#paint0_linear_528_5982)"/>
<defs>
<linearGradient id="paint0_linear_528_5982" x1="6.00589" y1="97.9998" x2="98.0056" y2="7.00584" gradientUnits="userSpaceOnUse">
<stop stop-color="#FF8906"/>
<stop offset="0.505208" stop-color="#F15B47"/>
<stop offset="1" stop-color="#E53170"/>
</linearGradient>
</defs>
</svg>
