<svg width="104" height="104" viewBox="0 0 104 104" fill="none" xmlns="http://www.w3.org/2000/svg">
<path d="M51.9997 78L32.2072 50.05C28.9675 46.225 26.8812 41.5583 26.1913 36.5933C25.5013 31.6284 26.2361 26.5697 28.3101 22.0063C30.3841 17.4428 33.7119 13.5625 37.9059 10.8173C42.0999 8.07202 46.9876 6.57481 51.9997 6.5C58.9473 6.56866 65.5846 9.38793 70.4578 14.3403C75.3311 19.2928 78.043 25.9746 77.9997 32.9225C78.0023 38.9835 75.9389 44.8644 72.1497 49.595L51.9997 78ZM51.9997 13C46.7732 13.06 41.7841 15.1917 38.128 18.927C34.4719 22.6624 32.4477 27.6959 32.4997 32.9225C32.5214 37.6929 34.2377 42.3004 37.3422 45.9225L51.9997 66.69L67.0472 45.5C69.9075 41.9297 71.4766 37.4972 71.4997 32.9225C71.5517 27.6959 69.5274 22.6624 65.8713 18.927C62.2152 15.1917 57.2261 13.06 51.9997 13Z" fill="url(#paint0_linear_521_6008)"/>
<path d="M52 35.75C55.5899 35.75 58.5 32.8399 58.5 29.25C58.5 25.6601 55.5899 22.75 52 22.75C48.4101 22.75 45.5 25.6601 45.5 29.25C45.5 32.8399 48.4101 35.75 52 35.75Z" fill="url(#paint1_linear_521_6008)"/>
<path d="M91 39H84.5V45.5H91V91H13V45.5H19.5V39H13C11.2761 39 9.62279 39.6848 8.40381 40.9038C7.18482 42.1228 6.5 43.7761 6.5 45.5V91C6.5 92.7239 7.18482 94.3772 8.40381 95.5962C9.62279 96.8152 11.2761 97.5 13 97.5H91C92.7239 97.5 94.3772 96.8152 95.5962 95.5962C96.8152 94.3772 97.5 92.7239 97.5 91V45.5C97.5 43.7761 96.8152 42.1228 95.5962 40.9038C94.3772 39.6848 92.7239 39 91 39Z" fill="url(#paint2_linear_521_6008)"/>
<defs>
<linearGradient id="paint0_linear_521_6008" x1="25.6568" y1="78.3927" x2="94.219" y2="29.0168" gradientUnits="userSpaceOnUse">
<stop stop-color="#FF8906"/>
<stop offset="0.505208" stop-color="#F15B47"/>
<stop offset="1" stop-color="#E53170"/>
</linearGradient>
<linearGradient id="paint1_linear_521_6008" x1="45.4294" y1="35.8214" x2="58.5722" y2="22.8223" gradientUnits="userSpaceOnUse">
<stop stop-color="#FF8906"/>
<stop offset="0.505208" stop-color="#F15B47"/>
<stop offset="1" stop-color="#E53170"/>
</linearGradient>
<linearGradient id="paint2_linear_521_6008" x1="6.00589" y1="97.8213" x2="60.0575" y2="14.6603" gradientUnits="userSpaceOnUse">
<stop stop-color="#FF8906"/>
<stop offset="0.505208" stop-color="#F15B47"/>
<stop offset="1" stop-color="#E53170"/>
</linearGradient>
</defs>
</svg>
