<svg width="104" height="104" viewBox="0 0 104 104" fill="none" xmlns="http://www.w3.org/2000/svg">
<path d="M74.75 52.0335C69.8535 52.0381 65.0891 53.6224 61.165 56.551L47.45 42.836C50.4131 38.9404 52.012 34.1779 52 29.2835C52.0128 24.1579 50.2944 19.1782 47.1232 15.1514C43.9521 11.1245 39.514 8.28656 34.5283 7.09737C29.5426 5.90817 24.3014 6.43744 19.6541 8.5994C15.0068 10.7614 11.2257 14.4293 8.92367 19.0089C6.62162 23.5884 5.93348 28.8111 6.97077 33.8306C8.00806 38.8501 10.71 43.3723 14.6387 46.6642C18.5674 49.9562 23.4926 51.825 28.6162 51.9678C33.7398 52.1105 38.7615 50.519 42.8675 47.451L56.55 61.166C53.4828 65.2708 51.8912 70.2909 52.033 75.4131C52.1748 80.5353 54.0418 85.4597 57.3314 89.3885C60.621 93.3173 65.1407 96.0205 70.1583 97.0602C75.1758 98.0999 80.3975 97.4153 84.9774 95.1171C89.5574 92.819 93.2273 89.042 95.3929 84.3979C97.5584 79.7537 98.0927 74.5146 96.9092 69.5289C95.7256 64.5433 92.8936 60.1032 88.8719 56.9279C84.8501 53.7526 79.8741 52.028 74.75 52.0335V52.0335ZM13 29.2835C13 26.0695 13.953 22.9277 15.7386 20.2554C17.5241 17.5831 20.0621 15.5003 23.0314 14.2704C26.0006 13.0405 29.268 12.7187 32.4202 13.3457C35.5724 13.9727 38.4678 15.5204 40.7404 17.793C43.013 20.0656 44.5607 22.9611 45.1877 26.1132C45.8147 29.2654 45.4929 32.5328 44.263 35.5021C43.0331 38.4714 40.9503 41.0093 38.278 42.7948C35.6057 44.5804 32.4639 45.5335 29.25 45.5335C24.9402 45.5335 20.8069 43.8214 17.7595 40.774C14.712 37.7265 13 33.5932 13 29.2835Z" fill="url(#paint0_linear_528_6026)"/>
<defs>
<linearGradient id="paint0_linear_528_6026" x1="6.00576" y1="98.0336" x2="98.0627" y2="7.01567" gradientUnits="userSpaceOnUse">
<stop stop-color="#FF8906"/>
<stop offset="0.505208" stop-color="#F15B47"/>
<stop offset="1" stop-color="#E53170"/>
</linearGradient>
</defs>
</svg>
