<?xml version="1.0" encoding="UTF-8" standalone="no"?>
<svg
   xmlns:dc="http://purl.org/dc/elements/1.1/"
   xmlns:cc="http://creativecommons.org/ns#"
   xmlns:rdf="http://www.w3.org/1999/02/22-rdf-syntax-ns#"
   xmlns:svg="http://www.w3.org/2000/svg"
   xmlns="http://www.w3.org/2000/svg"
   viewBox="0 0 264.47373 139.66279"
   height="139.6628"
   width="264.47372"
   xml:space="preserve"
   id="svg833"
   version="1.1"><metadata
     id="metadata839"><rdf:RDF><cc:Work
         rdf:about=""><dc:format>image/svg+xml</dc:format><dc:type
           rdf:resource="http://purl.org/dc/dcmitype/StillImage" /><dc:title></dc:title></cc:Work></rdf:RDF></metadata><defs
     id="defs837"><clipPath
       id="clipPath849"
       clipPathUnits="userSpaceOnUse"><path
         id="path847"
         d="M 0,153.07 H 240.94 V 0 H 0 Z" /></clipPath></defs><g
     transform="matrix(1.3333333,0,0,-1.3333333,-29.725593,171.08266)"
     id="g841"><g
       id="g843"><g
         clip-path="url(#clipPath849)"
         id="g845"><g
           transform="translate(31.5825,119.1304)"
           id="g851"><path
             id="path853"
             style="fill:#5a5f60;fill-opacity:1;fill-rule:nonzero;stroke:none"
             d="M 0,0 -0.118,-0.941 C -0.447,-3.547 -0.333,-5.438 0.224,-6.615 0.781,-7.792 1.836,-8.381 3.39,-8.381 h 0.165 c 2.606,0 4.112,1.569 4.52,4.709 H 9.817 L 9.771,-4.002 C 9.487,-5.964 8.833,-7.439 7.805,-8.428 6.776,-9.417 5.305,-9.911 3.39,-9.911 c -2.15,0 -3.66,0.714 -4.532,2.142 -0.87,1.428 -1.109,3.704 -0.717,6.828 L -1.742,0 c 0.392,3.139 1.181,5.418 2.367,6.839 1.184,1.42 2.844,2.131 4.979,2.131 3.938,0 5.626,-2.088 5.061,-6.262 L 10.571,2.025 H 8.829 C 9.08,3.923 8.954,5.301 8.452,6.157 7.95,7.012 7.008,7.439 5.627,7.439 H 5.462 C 3.924,7.439 2.712,6.847 1.825,5.662 0.938,4.477 0.33,2.59 0,0" /></g><g
           transform="translate(48.415,110.7021)"
           id="g855"><path
             id="path857"
             style="fill:#5a5f60;fill-opacity:1;fill-rule:nonzero;stroke:none"
             d="M 0,0 C 1.146,0 2.072,0.408 2.778,1.225 3.485,2.041 3.94,3.194 4.144,4.685 L 4.215,5.203 C 4.418,6.725 4.269,7.911 3.767,8.758 3.265,9.605 2.41,10.029 1.201,10.029 0.056,10.029 -0.867,9.621 -1.565,8.805 -2.264,7.989 -2.715,6.835 -2.918,5.344 L -2.989,4.827 C -3.193,3.304 -3.048,2.119 -2.554,1.271 -2.059,0.424 -1.208,0 0,0 m 0,-1.483 c -1.789,0 -3.076,0.581 -3.86,1.742 -0.785,1.161 -1.052,2.668 -0.801,4.52 l 0.07,0.518 c 0.267,1.915 0.88,3.43 1.838,4.544 0.957,1.114 2.274,1.671 3.954,1.671 1.79,0 3.081,-0.58 3.873,-1.741 C 5.866,8.609 6.137,7.102 5.886,5.25 L 5.815,4.732 C 5.549,2.817 4.937,1.303 3.979,0.188 3.021,-0.926 1.696,-1.483 0,-1.483" /></g><g
           transform="translate(72.146,109.478)"
           id="g859"><path
             id="path861"
             style="fill:#5a5f60;fill-opacity:1;fill-rule:nonzero;stroke:none"
             d="m 0,0 h -1.648 l 1.154,8.805 c 0.22,1.633 -0.503,2.448 -2.166,2.448 -0.691,0 -1.327,-0.192 -1.908,-0.576 C -5.148,10.292 -5.611,9.856 -5.956,9.37 L -7.18,0 h -1.648 l 1.153,8.805 c 0.22,1.633 -0.502,2.448 -2.166,2.448 -1.271,0 -2.369,-0.628 -3.296,-1.883 L -14.361,0 h -1.648 l 1.201,9.087 0.306,3.391 h 1.413 v -1.672 c 0.972,1.287 2.244,1.93 3.813,1.93 1.789,0 2.857,-0.691 3.202,-2.071 1.067,1.38 2.393,2.071 3.978,2.071 1.146,0 2.017,-0.317 2.614,-0.953 0.596,-0.636 0.816,-1.55 0.659,-2.742 z" /></g><g
           transform="translate(80.1499,110.7021)"
           id="g863"><path
             id="path865"
             style="fill:#5a5f60;fill-opacity:1;fill-rule:nonzero;stroke:none"
             d="M 0,0 C 2.26,0 3.61,1.562 4.05,4.685 L 4.121,5.203 C 4.324,6.725 4.175,7.911 3.673,8.758 3.17,9.605 2.347,10.029 1.202,10.029 c -1.351,0 -2.473,-0.596 -3.368,-1.789 l -0.8,-6.192 C -2.715,1.499 -2.342,1.021 -1.848,0.612 -1.353,0.204 -0.738,0 0,0 m 1.601,11.512 c 1.648,0 2.821,-0.576 3.52,-1.73 C 5.819,8.629 6.043,7.118 5.792,5.25 L 5.721,4.732 C 5.454,2.802 4.87,1.284 3.967,0.177 3.065,-0.93 1.812,-1.483 0.212,-1.483 c -0.847,0 -1.565,0.189 -2.153,0.565 -0.59,0.377 -1.01,0.785 -1.261,1.224 l -0.823,-6.239 h -1.649 l 1.813,13.796 0.306,3.39 h 1.413 V 9.676 c 0.392,0.565 0.922,1.012 1.59,1.342 0.665,0.33 1.384,0.494 2.153,0.494" /></g><g
           transform="translate(89.2847,121.9556)"
           id="g867"><path
             id="path869"
             style="fill:#5a5f60;fill-opacity:1;fill-rule:nonzero;stroke:none"
             d="m 0,0 h 1.648 l -1.13,-8.499 c -0.252,-1.836 0.565,-2.754 2.448,-2.754 1.428,0 2.62,0.651 3.578,1.954 L 7.769,0 H 9.417 L 8.216,-9.087 7.91,-12.478 H 6.498 v 1.743 c -0.974,-1.334 -2.339,-2.001 -4.097,-2.001 -1.318,0 -2.28,0.364 -2.884,1.095 -0.604,0.729 -0.829,1.698 -0.671,2.907 z" /></g><g
           transform="translate(104.6104,121.9556)"
           id="g871"><path
             id="path873"
             style="fill:#5a5f60;fill-opacity:1;fill-rule:nonzero;stroke:none"
             d="M 0,0 H 3.956 L 3.767,-1.483 h -3.955 l -0.966,-7.345 c -0.125,-0.926 -0.02,-1.562 0.319,-1.907 0.336,-0.346 0.851,-0.518 1.541,-0.518 0.628,0 1.153,0.07 1.578,0.212 l -0.189,-1.437 c -0.518,-0.172 -1.059,-0.258 -1.624,-0.258 -2.527,0 -3.626,1.247 -3.296,3.743 l 0.989,7.51 H -3.813 L -3.625,0 h 1.977 l 0.471,3.531 h 1.648 z" /></g><g
           transform="translate(116.0044,120.7314)"
           id="g875"><path
             id="path877"
             style="fill:#5a5f60;fill-opacity:1;fill-rule:nonzero;stroke:none"
             d="m 0,0 c -1.13,0 -2.071,-0.396 -2.825,-1.189 -0.753,-0.792 -1.216,-1.84 -1.389,-3.143 H 2.943 C 3.335,-1.444 2.355,0 0,0 m 4.427,-5.697 h -8.805 c -0.299,-2.888 0.815,-4.332 3.342,-4.332 1.146,0 2.017,0.271 2.614,0.812 0.595,0.542 0.949,1.197 1.059,1.966 H 4.214 L 4.167,-7.557 c -0.158,-1.036 -0.691,-1.954 -1.6,-2.755 -0.911,-0.8 -2.128,-1.2 -3.65,-1.2 -1.978,0 -3.354,0.576 -4.131,1.73 -0.777,1.154 -1.04,2.664 -0.788,4.532 l 0.07,0.518 c 0.267,1.883 0.898,3.39 1.895,4.52 0.996,1.13 2.342,1.695 4.037,1.695 1.822,0 3.096,-0.561 3.826,-1.683 0.73,-1.123 0.968,-2.649 0.718,-4.579 z" /></g><g
           transform="translate(129,122.2144)"
           id="g879"><path
             id="path881"
             style="fill:#5a5f60;fill-opacity:1;fill-rule:nonzero;stroke:none"
             d="M 0,0 0.329,-0.023 0.141,-1.647 h -0.329 c -1.507,0 -2.7,-0.66 -3.579,-1.978 l -1.201,-9.111 h -1.647 l 1.2,9.087 0.306,3.39 h 1.413 V -1.883 C -2.802,-0.627 -1.57,0 0,0" /></g><g
           transform="translate(149.3408,127.8413)"
           id="g883"><path
             id="path885"
             style="fill:#5a5f60;fill-opacity:1;fill-rule:nonzero;stroke:none"
             d="M 0,0 -2.401,-18.363 H -4.19 l -6.64,15.491 -0.494,-4.309 -1.46,-11.182 h -1.648 L -12.03,0 h 1.789 l 6.638,-15.491 0.496,4.308 L -1.648,0 Z" /></g><g
           transform="translate(156.6387,120.7314)"
           id="g887"><path
             id="path889"
             style="fill:#5a5f60;fill-opacity:1;fill-rule:nonzero;stroke:none"
             d="m 0,0 c -1.13,0 -2.072,-0.396 -2.825,-1.189 -0.753,-0.792 -1.217,-1.84 -1.389,-3.143 H 2.942 C 3.335,-1.444 2.354,0 0,0 m 4.426,-5.697 h -8.805 c -0.299,-2.888 0.816,-4.332 3.344,-4.332 1.144,0 2.015,0.271 2.612,0.812 0.596,0.542 0.95,1.197 1.059,1.966 H 4.214 L 4.167,-7.557 c -0.157,-1.036 -0.69,-1.954 -1.601,-2.755 -0.911,-0.8 -2.128,-1.2 -3.649,-1.2 -1.978,0 -3.354,0.576 -4.132,1.73 -0.776,1.154 -1.04,2.664 -0.789,4.532 l 0.071,0.518 c 0.267,1.883 0.899,3.39 1.896,4.52 0.995,1.13 2.342,1.695 4.037,1.695 1.82,0 3.096,-0.561 3.825,-1.683 0.73,-1.123 0.969,-2.649 0.718,-4.579 z" /></g><g
           transform="translate(167.1855,121.9556)"
           id="g891"><path
             id="path893"
             style="fill:#5a5f60;fill-opacity:1;fill-rule:nonzero;stroke:none"
             d="M 0,0 H 3.955 L 3.767,-1.483 h -3.956 l -0.965,-7.345 c -0.125,-0.926 -0.019,-1.562 0.318,-1.907 0.337,-0.346 0.851,-0.518 1.542,-0.518 0.628,0 1.153,0.07 1.577,0.212 l -0.188,-1.437 c -0.518,-0.172 -1.059,-0.258 -1.624,-0.258 -2.528,0 -3.625,1.247 -3.296,3.743 l 0.989,7.51 H -3.813 L -3.626,0 h 1.979 l 0.469,3.531 h 1.649 z" /></g><g
           transform="translate(180.4395,120.1191)"
           id="g895"><path
             id="path897"
             style="fill:#5a5f60;fill-opacity:1;fill-rule:nonzero;stroke:none"
             d="m 0,0 -4.237,-10.641 h -2.166 l -1.06,12.477 h 1.625 L -5.062,-8.922 -0.777,1.836 H 1.225 L 2.708,-8.922 6.286,1.836 H 7.957 L 3.648,-10.641 H 1.46 Z" /></g><g
           transform="translate(193.835,110.7021)"
           id="g899"><path
             id="path901"
             style="fill:#5a5f60;fill-opacity:1;fill-rule:nonzero;stroke:none"
             d="m 0,0 c 1.146,0 2.072,0.408 2.778,1.225 0.706,0.816 1.161,1.969 1.366,3.46 l 0.07,0.518 C 4.418,6.725 4.269,7.911 3.767,8.758 3.265,9.605 2.409,10.029 1.201,10.029 0.056,10.029 -0.868,9.621 -1.565,8.805 -2.264,7.989 -2.715,6.835 -2.919,5.344 L -2.99,4.827 C -3.193,3.304 -3.049,2.119 -2.555,1.271 -2.06,0.424 -1.209,0 0,0 m 0,-1.483 c -1.788,0 -3.076,0.581 -3.86,1.742 -0.786,1.161 -1.052,2.668 -0.801,4.52 l 0.07,0.518 c 0.267,1.915 0.879,3.43 1.837,4.544 0.957,1.114 2.275,1.671 3.955,1.671 1.789,0 3.08,-0.58 3.872,-1.741 C 5.866,8.609 6.137,7.102 5.886,5.25 L 5.814,4.732 C 5.548,2.817 4.936,1.303 3.979,0.188 3.021,-0.926 1.695,-1.483 0,-1.483" /></g><g
           transform="translate(208.1719,122.2144)"
           id="g903"><path
             id="path905"
             style="fill:#5a5f60;fill-opacity:1;fill-rule:nonzero;stroke:none"
             d="M 0,0 0.33,-0.023 0.142,-1.647 h -0.329 c -1.507,0 -2.701,-0.66 -3.58,-1.978 l -1.2,-9.111 h -1.648 l 1.2,9.087 0.307,3.39 h 1.412 V -1.883 C -2.802,-0.627 -1.569,0 0,0" /></g><g
           transform="translate(209.3965,109.478)"
           id="g907"><path
             id="path909"
             style="fill:#5a5f60;fill-opacity:1;fill-rule:nonzero;stroke:none"
             d="M 0,0 2.472,18.834 H 4.119 L 2.425,5.98 9.157,12.478 h 2.096 L 6.333,7.769 9.628,0 H 7.839 L 5.085,6.592 2.118,3.72 1.647,0 Z" /></g><g
           transform="translate(59.8057,74.6855)"
           id="g911"><path
             id="path913"
             style="fill:#17828d;fill-opacity:1;fill-rule:nonzero;stroke:none"
             d="m 0,0 3.237,2.986 c -3.095,3.421 -8.292,5.131 -15.788,5.131 -0.929,0 -1.832,-0.04 -2.702,-0.115 l -2.341,-2.72 z" /></g><g
           transform="translate(38.1934,66.3203)"
           id="g915"><path
             id="path917"
             style="fill:#17828d;fill-opacity:1;fill-rule:nonzero;stroke:none"
             d="m 0,0 c 1.916,4.016 4.649,6.192 8.398,6.192 h 0.738 c 3.36,0 5.33,-1.183 6.28,-3.536 L 20.86,7.674 3.392,12.921 -3.077,5.398 Z" /></g><g
           transform="translate(60.7827,74.3916)"
           id="g919"><path
             id="path921"
             style="fill:#17828d;fill-opacity:1;fill-rule:nonzero;stroke:none"
             d="M 0,0 4.931,-1.483 C 4.443,0.059 3.746,1.424 2.829,2.606 Z" /></g><g
           transform="translate(51.4268,41.3027)"
           id="g923"><path
             id="path925"
             style="fill:#17828d;fill-opacity:1;fill-rule:nonzero;stroke:none"
             d="m 0,0 c -0.028,-0.138 -0.059,-0.275 -0.091,-0.409 l 0.39,-0.114 z" /></g><g
           transform="translate(57.0713,44.0684)"
           id="g927"><path
             id="path929"
             style="fill:#17828d;fill-opacity:1;fill-rule:nonzero;stroke:none"
             d="m 0,0 h -5.188 c -0.067,-0.488 -0.138,-0.962 -0.209,-1.42 l 1.261,-2.222 1.757,-0.512 z" /></g><g
           transform="translate(53.916,68.0625)"
           id="g931"><path
             id="path933"
             style="fill:#17828d;fill-opacity:1;fill-rule:nonzero;stroke:none"
             d="m 0,0 c 0.535,-1.995 0.516,-4.654 0.099,-7.973 h 11.984 l 0.29,2.354 c 0.455,3.647 0.362,6.797 -0.29,9.463 l -5.97,1.794 z" /></g><g
           transform="translate(42.3306,33.8516)"
           id="g935"><path
             id="path937"
             style="fill:#17828d;fill-opacity:1;fill-rule:nonzero;stroke:none"
             d="m 0,0 h -0.738 c -5.105,0 -7.145,3.951 -7.164,11.067 l -4.279,1.251 -7.485,-6.895 c 0.854,-5.847 3.183,-9.934 6.804,-12.475 L 3.239,0.327 C 2.308,0.114 1.244,0 0,0" /></g><g
           transform="translate(22.4282,48.4248)"
           id="g939"><path
             id="path941"
             style="fill:#17828d;fill-opacity:1;fill-rule:nonzero;stroke:none"
             d="m 0,0 c -0.208,-2.981 -0.173,-5.672 0.099,-8.081 l 6.638,6.114 z" /></g><g
           transform="translate(63.7168,42.9668)"
           id="g943"><path
             id="path945"
             style="fill:#17828d;fill-opacity:1;fill-rule:nonzero;stroke:none"
             d="m 0,0 0.146,1.102 h -5.779 l -2.522,-4.411 1.198,-0.348 6.882,3.153 C -0.05,-0.335 -0.023,-0.171 0,0" /></g><g
           transform="translate(30.9053,46.8633)"
           id="g947"><path
             id="path949"
             style="fill:#17828d;fill-opacity:1;fill-rule:nonzero;stroke:none"
             d="M 0,0 3.53,-1.031 C 3.558,0.374 3.656,1.896 3.822,3.524 Z" /></g><g
           transform="translate(52.7417,36.5029)"
           id="g951"><path
             id="path953"
             style="fill:#17828d;fill-opacity:1;fill-rule:nonzero;stroke:none"
             d="m 0,0 -22.398,-10.268 c 3.009,-1.81 6.811,-2.67 11.325,-2.67 1.316,0 2.572,0.062 3.778,0.184 z" /></g><g
           transform="translate(62.3267,36.7666)"
           id="g955"><path
             id="path957"
             style="fill:#17828d;fill-opacity:1;fill-rule:nonzero;stroke:none"
             d="M 0,0 -5.5,1.607 -6.429,1.182 C -6.421,1.119 -6.41,1.06 -6.41,0.995 c 0,-0.563 -0.262,-1.061 -0.669,-1.394 l 3.546,-6.233 C -2.056,-4.84 -0.875,-2.642 0,0" /></g><g
           transform="translate(58.0488,38.9316)"
           id="g959"><path
             id="path961"
             style="fill:#17828d;fill-opacity:1;fill-rule:nonzero;stroke:none"
             d="M 0,0 4.542,-1.328 C 4.893,-0.14 5.187,1.127 5.425,2.487 Z" /></g><g
           transform="translate(54.4512,35.9883)"
           id="g963"><path
             id="path965"
             style="fill:#17828d;fill-opacity:1;fill-rule:nonzero;stroke:none"
             d="m 0,0 c -0.11,-0.021 -0.224,-0.035 -0.343,-0.035 -0.213,0 -0.413,0.044 -0.602,0.112 l -6.977,-12.188 c 4.865,0.661 8.77,2.424 11.657,5.558 z" /></g><g
           transform="translate(41.29,80.2456)"
           id="g967"><path
             id="path969"
             style="fill:#17828d;fill-opacity:1;fill-rule:nonzero;stroke:none"
             d="M 0,0 1.985,2.304 C 0.095,2.056 -1.65,1.617 -3.266,0.981 Z" /></g><g
           transform="translate(52.3013,37.7617)"
           id="g971"><path
             id="path973"
             style="fill:#17828d;fill-opacity:1;fill-rule:nonzero;stroke:none"
             d="M 0,0 C 0,0.461 0.177,0.876 0.46,1.195 L 0.051,1.92 -1.179,2.278 c -0.527,-1.945 -1.308,-3.47 -2.626,-4.52 l 3.872,1.777 C 0.027,-0.315 0,-0.16 0,0" /></g><g
           transform="translate(40.6641,79.5166)"
           id="g975"><path
             id="path977"
             style="fill:#17828d;fill-opacity:1;fill-rule:nonzero;stroke:none"
             d="M 0,0 -3.888,1.168 C -5.674,0.312 -7.276,-0.821 -8.714,-2.228 l 2.71,-4.758 z" /></g><g
           transform="translate(34.0493,71.8232)"
           id="g979"><path
             id="path981"
             style="fill:#17828d;fill-opacity:1;fill-rule:nonzero;stroke:none"
             d="M 0,0 -2.737,4.81 C -6.161,1.121 -8.556,-4.308 -10.041,-11.683 Z" /></g><g
           transform="translate(34.873,51.7168)"
           id="g983"><path
             id="path985"
             style="fill:#17828d;fill-opacity:1;fill-rule:nonzero;stroke:none"
             d="m 0,0 c 0.012,0.099 0.02,0.192 0.036,0.289 l 0.291,2.425 c 0.535,4.369 1.363,8.028 2.548,10.89 L -0.362,19.295 -11.188,6.698 c -0.228,-1.297 -0.433,-2.647 -0.61,-4.054 l -0.296,-2.355 c -0.114,-0.922 -0.201,-1.812 -0.276,-2.686 l 7.418,-2.166 z" /></g><g
           transform="translate(174.4619,79.355)"
           id="g987"><path
             id="path989"
             style="fill:#17828d;fill-opacity:1;fill-rule:nonzero;stroke:none"
             d="M 0,0 0.074,-1.576 0.42,-1.247 C 0.204,-1 0.07,-0.681 0.07,-0.327 c 0,0.101 0.007,0.199 0.027,0.296 z" /></g><g
           transform="translate(165.5693,50.3828)"
           id="g991"><path
             id="path993"
             style="fill:#17828d;fill-opacity:1;fill-rule:nonzero;stroke:none"
             d="m 0,0 -5.858,12.099 c -0.074,0.009 -0.146,0.023 -0.208,0.045 l -5.574,-5.212 -2.978,-9.961 12.586,-3.78 z" /></g><g
           transform="translate(157.0879,67.8955)"
           id="g995"><path
             id="path997"
             style="fill:#17828d;fill-opacity:1;fill-rule:nonzero;stroke:none"
             d="m 0,0 -2.662,-8.911 4.352,4.068 c -0.145,0.214 -0.232,0.475 -0.232,0.752 0,0.25 0.075,0.481 0.193,0.68 z" /></g><g
           transform="translate(161.1934,64.1084)"
           id="g999"><path
             id="path1001"
             style="fill:#17828d;fill-opacity:1;fill-rule:nonzero;stroke:none"
             d="m 0,0 c 0.023,-0.097 0.038,-0.199 0.038,-0.304 0,-0.48 -0.256,-0.898 -0.638,-1.136 l 5.347,-11.037 6.992,23.452 z" /></g><g
           transform="translate(74.8657,87.3125)"
           id="g1003"><path
             id="path1005"
             style="fill:#17828d;fill-opacity:1;fill-rule:nonzero;stroke:none"
             d="M 0,0 H 20.379 L 14.47,13.331 Z" /></g><g
           transform="translate(135.0352,62.5557)"
           id="g1007"><path
             id="path1009"
             style="fill:#17828d;fill-opacity:1;fill-rule:nonzero;stroke:none"
             d="M 0,0 14.296,16.333 14.238,18.17 -0.429,11.452 Z" /></g><g
           transform="translate(143.793,50.3887)"
           id="g1011"><path
             id="path1013"
             style="fill:#17828d;fill-opacity:1;fill-rule:nonzero;stroke:none"
             d="M 0,0 C 0.398,0 0.768,-0.13 1.071,-0.345 L 6.311,4.552 5.578,27.214 -8.714,10.887 -8.368,1.634 -1.269,-0.502 C -0.935,-0.192 -0.492,0 0,0" /></g><g
           transform="translate(175.9297,77.6294)"
           id="g1015"><path
             id="path1017"
             style="fill:#17828d;fill-opacity:1;fill-rule:nonzero;stroke:none"
             d="M 0,0 C -0.086,0 -0.164,0.01 -0.243,0.024 L -1.344,-1 l 1.253,-26.219 12,19.954 L 11.668,-2.25 1.301,0.887 C 1.097,0.367 0.592,0 0,0" /></g><g
           transform="translate(157.459,69.1406)"
           id="g1019"><path
             id="path1021"
             style="fill:#17828d;fill-opacity:1;fill-rule:nonzero;stroke:none"
             d="m 0,0 1.977,-4.079 c 0.142,0.053 0.295,0.085 0.453,0.085 0.312,0 0.591,-0.11 0.82,-0.288 l 12.72,11.89 0.8,2.678 -12.559,3.797 z" /></g><g
           transform="translate(73.5693,87.3125)"
           id="g1023"><path
             id="path1025"
             style="fill:#17828d;fill-opacity:1;fill-rule:nonzero;stroke:none"
             d="M 0,0 15.194,13.997 H -12.945 L -18.251,7.824 -12.775,0 Z" /></g><g
           transform="translate(90.0166,101.27)"
           id="g1027"><path
             id="path1029"
             style="fill:#17828d;fill-opacity:1;fill-rule:nonzero;stroke:none"
             d="m 0,0 6.188,-13.958 h 37.909 l 0.463,-12.353 14.668,6.72 -0.086,2.587 -1.556,3.218 L 11.905,0.04 H 0.043 Z" /></g><g
           transform="translate(163.29,42.7305)"
           id="g1031"><path
             id="path1033"
             style="fill:#17828d;fill-opacity:1;fill-rule:nonzero;stroke:none"
             d="m 0,0 -12.588,3.782 -0.294,-0.987 -0.037,1.088 -4.782,1.435 c -0.209,-0.801 -0.934,-1.392 -1.796,-1.392 -0.358,0 -0.686,0.104 -0.969,0.277 l -6.969,-6.513 0.594,-16.065 h 0.749 l 23.81,10.719 z" /></g><g
           transform="translate(195.3359,67.6084)"
           id="g1035"><path
             id="path1037"
             style="fill:#17828d;fill-opacity:1;fill-rule:nonzero;stroke:none"
             d="m 0,0 -5.555,-19.576 13.938,6.272 c -0.012,0.075 -0.024,0.148 -0.024,0.225 0,0.232 0.047,0.451 0.126,0.657 z" /></g><g
           transform="translate(150.1396,53.7754)"
           id="g1039"><path
             id="path1041"
             style="fill:#17828d;fill-opacity:1;fill-rule:nonzero;stroke:none"
             d="m 0,0 -4.7,-4.395 c 0.07,-0.132 0.122,-0.272 0.162,-0.417 l 4.742,-1.426 z" /></g><g
           transform="translate(161.917,84.0664)"
           id="g1043"><path
             id="path1045"
             style="fill:#17828d;fill-opacity:1;fill-rule:nonzero;stroke:none"
             d="m 0,0 13.123,-3.969 c 0.24,0.203 0.551,0.331 0.89,0.331 0.39,0 0.741,-0.159 0.994,-0.413 l 6.066,5.674 -8.809,12.905 H 5.831 L 3.57,11.947 Z" /></g><g
           transform="translate(104.9512,101.3096)"
           id="g1047"><path
             id="path1049"
             style="fill:#17828d;fill-opacity:1;fill-rule:nonzero;stroke:none"
             d="M 0,0 42.127,-12.75 35.95,0 Z" /></g><g
           transform="translate(54.7993,95.8774)"
           id="g1051"><path
             id="path1053"
             style="fill:#17828d;fill-opacity:1;fill-rule:nonzero;stroke:none"
             d="M 0,0 4.667,5.432 H -3.807 Z" /></g><g
           transform="translate(187.918,68.7842)"
           id="g1055"><path
             id="path1057"
             style="fill:#17828d;fill-opacity:1;fill-rule:nonzero;stroke:none"
             d="m 0,0 -12.003,-19.955 0.326,-6.894 12.694,5.714 z" /></g><g
           transform="translate(148.2207,88.2129)"
           id="g1059"><path
             id="path1061"
             style="fill:#17828d;fill-opacity:1;fill-rule:nonzero;stroke:none"
             d="M 0,0 0.82,-0.249 0.382,13.097 h -6.725 z" /></g><g
           transform="translate(216.2656,89.2827)"
           id="g1063"><path
             id="path1065"
             style="fill:#17828d;fill-opacity:1;fill-rule:nonzero;stroke:none"
             d="M 0,0 2.776,9.312 H -3.856 Z" /></g><g
           transform="translate(204.8223,98.5947)"
           id="g1067"><path
             id="path1069"
             style="fill:#17828d;fill-opacity:1;fill-rule:nonzero;stroke:none"
             d="M 0,0 H -0.682 L -1.297,-2.156 Z" /></g><g
           transform="translate(166.582,98.5947)"
           id="g1071"><path
             id="path1073"
             style="fill:#17828d;fill-opacity:1;fill-rule:nonzero;stroke:none"
             d="M 0,0 H -0.323 L -0.488,-0.555 Z" /></g><g
           transform="translate(176.3945,38.7949)"
           id="g1075"><path
             id="path1077"
             style="fill:#17828d;fill-opacity:1;fill-rule:nonzero;stroke:none"
             d="m 0,0 0.686,-14.439 h 19.839 l 2.265,7.591 z" /></g><g
           transform="translate(139.3418,24.3555)"
           id="g1079"><path
             id="path1081"
             style="fill:#17828d;fill-opacity:1;fill-rule:nonzero;stroke:none"
             d="m 0,0 h 18.468 l 2.863,9.606 z" /></g><g
           transform="translate(54.2041,95.1875)"
           id="g1083"><path
             id="path1085"
             style="fill:#17828d;fill-opacity:1;fill-rule:nonzero;stroke:none"
             d="m 0,0 -4.283,6.122 h -18.625 l -6.67,-13.997 h 22.806 z" /></g><g
           transform="translate(183.6436,86.2964)"
           id="g1087"><path
             id="path1089"
             style="fill:#17828d;fill-opacity:1;fill-rule:nonzero;stroke:none"
             d="M 0,0 3.281,3.067 2.837,12.298 H -8.399 Z" /></g><g
           transform="translate(59.7227,87.3125)"
           id="g1091"><path
             id="path1093"
             style="fill:#17828d;fill-opacity:1;fill-rule:nonzero;stroke:none"
             d="M 0,0 -4.999,7.135 -11.133,0 Z" /></g><g
           transform="translate(211.459,98.5947)"
           id="g1095"><path
             id="path1097"
             style="fill:#17828d;fill-opacity:1;fill-rule:nonzero;stroke:none"
             d="m 0,0 h -5.612 l -3.24,-5.387 -5.609,-19.758 13.35,-4.04 5.52,18.535 z" /></g><g
           transform="translate(184.1396,85.5615)"
           id="g1099"><path
             id="path1101"
             style="fill:#17828d;fill-opacity:1;fill-rule:nonzero;stroke:none"
             d="M 0,0 3.191,-4.67 2.842,2.651 Z" /></g><g
           transform="translate(187.5547,76.3081)"
           id="g1103"><path
             id="path1105"
             style="fill:#17828d;fill-opacity:1;fill-rule:nonzero;stroke:none"
             d="m 0,0 -0.142,2.907 -3.92,5.738 -5.994,-5.602 z" /></g><g
           transform="translate(149.0879,86.4248)"
           id="g1107"><path
             id="path1109"
             style="fill:#17828d;fill-opacity:1;fill-rule:nonzero;stroke:none"
             d="m 0,0 -0.017,0.616 -0.33,0.099 z" /></g><g
           transform="translate(142.2012,47.5547)"
           id="g1111"><path
             id="path1113"
             style="fill:#17828d;fill-opacity:1;fill-rule:nonzero;stroke:none"
             d="m 0,0 c -0.174,0.283 -0.275,0.612 -0.275,0.967 0,0.211 0.044,0.408 0.106,0.595 L -6.74,3.539 -6.39,-5.97 Z" /></g><g
           transform="translate(195.6504,68.707)"
           id="g1115"><path
             id="path1117"
             style="fill:#17828d;fill-opacity:1;fill-rule:nonzero;stroke:none"
             d="m 0,0 8.714,-12.758 c 0.323,0.277 0.737,0.447 1.197,0.447 0.304,0 0.588,-0.08 0.845,-0.21 l 3.691,12.38 -13.34,4.039 z" /></g><g
           transform="translate(205.3613,52.6836)"
           id="g1119"><path
             id="path1121"
             style="fill:#17828d;fill-opacity:1;fill-rule:nonzero;stroke:none"
             d="m 0,0 c -0.556,0.06 -1.04,0.355 -1.34,0.796 l -14.556,-6.556 -0.424,-1.492 -0.06,1.276 -12.692,-5.715 0.062,-1.267 23.086,-6.936 z" /></g><g
           transform="translate(115.1221,40.416)"
           id="g1123"><path
             id="path1125"
             style="fill:#17828d;fill-opacity:1;fill-rule:nonzero;stroke:none"
             d="m 0,0 c 0,0.357 0.142,0.68 0.37,0.922 l -7.737,17.444 -0.091,-0.69 -1.247,-11.906 -4.89,12.584 -10.726,-4.916 11.253,-28.986 13.17,15.04 C 0.036,-0.353 0,-0.181 0,0" /></g><g
           transform="translate(120.2637,67.3555)"
           id="g1127"><path
             id="path1129"
             style="fill:#17828d;fill-opacity:1;fill-rule:nonzero;stroke:none"
             d="m 0,0 -12.11,-5.548 -0.177,-1.351 0.169,-0.384 10.739,-3.227 z" /></g><g
           transform="translate(86.4668,51.8682)"
           id="g1131"><path
             id="path1133"
             style="fill:#17828d;fill-opacity:1;fill-rule:nonzero;stroke:none"
             d="m 0,0 c -0.039,-0.335 -0.201,-0.63 -0.437,-0.841 l 1.253,-1.788 0.33,3.153 z" /></g><g
           transform="translate(78.5054,68.9766)"
           id="g1135"><path
             id="path1137"
             style="fill:#17828d;fill-opacity:1;fill-rule:nonzero;stroke:none"
             d="M 0,0 21.576,-6.482 14.095,12.782 H 1.675 Z" /></g><g
           transform="translate(100.4839,61.4551)"
           id="g1139"><path
             id="path1141"
             style="fill:#17828d;fill-opacity:1;fill-rule:nonzero;stroke:none"
             d="m 0,0 -22.092,6.64 -0.678,-5.191 6.795,-9.705 c 0.189,0.103 0.402,0.164 0.631,0.164 0.476,0 0.889,-0.246 1.126,-0.62 l 1.45,0.663 0.694,6.597 2.072,-5.33 10.73,4.918 z" /></g><g
           transform="translate(108.6138,59.0137)"
           id="g1143"><path
             id="path1145"
             style="fill:#17828d;fill-opacity:1;fill-rule:nonzero;stroke:none"
             d="m 0,0 7.659,-17.275 c 0.063,0.007 0.126,0.019 0.189,0.019 0.117,0 0.227,-0.019 0.339,-0.049 l 0.126,0.148 1.844,14.105 z" /></g><g
           transform="translate(116.4966,39.0752)"
           id="g1147"><path
             id="path1149"
             style="fill:#17828d;fill-opacity:1;fill-rule:nonzero;stroke:none"
             d="M 0,0 H -0.035 C -0.271,0 -0.487,0.065 -0.686,0.173 L -13.654,-14.645 H -1.851 L 0.051,-0.118 Z" /></g><g
           transform="translate(83.8003,52.0225)"
           id="g1151"><path
             id="path1153"
             style="fill:#17828d;fill-opacity:1;fill-rule:nonzero;stroke:none"
             d="M 0,0 C 0,0.181 0.036,0.354 0.103,0.512 L -6.256,9.59 -8.049,-4.098 0.062,-0.381 C 0.023,-0.261 0,-0.132 0,0" /></g><g
           transform="translate(73.8457,33.3115)"
           id="g1155"><path
             id="path1157"
             style="fill:#17828d;fill-opacity:1;fill-rule:nonzero;stroke:none"
             d="M 0,0 -1.162,-8.881 H 10.23 l 0.736,5.677 z" /></g><g
           transform="translate(87.1362,47.9131)"
           id="g1159"><path
             id="path1161"
             style="fill:#17828d;fill-opacity:1;fill-rule:nonzero;stroke:none"
             d="m 0,0 -1.942,2.773 c -0.019,0 -0.035,-0.005 -0.055,-0.005 -0.279,0 -0.54,0.086 -0.756,0.232 l -8.761,-4.019 -1.663,-12.702 10.968,-3.205 z" /></g><g
           transform="translate(120.3975,68.3838)"
           id="g1163"><path
             id="path1165"
             style="fill:#17828d;fill-opacity:1;fill-rule:nonzero;stroke:none"
             d="M 0,0 1.745,13.375 H -9.644 l -2.47,-18.925 z" /></g></g></g></g></svg>
