<svg width="336" height="64" viewBox="0 0 336 64" fill="none" xmlns="http://www.w3.org/2000/svg">
<path fill-rule="evenodd" clip-rule="evenodd" d="M98.459 18.4921L100.497 10H189.834L194.59 38.8733L205.8 10H215.311L217.689 38.8733L228.219 10H241.467L223.124 53.4797H207.498L205.8 35.8161L197.987 53.4797H185.079L176.247 18.4921H98.459ZM127.332 53.4789L133.446 20.8691H148.053L157.564 37.8534L159.942 20.8691H174.209L167.755 53.4789H153.488L144.316 36.155L140.919 53.4789H127.332ZM127.331 21.5509C124.274 20.8715 115.422 20.3875 109.328 22.2303C100.775 24.8163 94.3809 32.421 93.7017 38.5353C93.0226 44.6497 97.5705 52.2449 104.572 53.4815C110.347 54.5014 118.5 53.8212 121.557 53.1418L123.934 41.252L123.932 41.2527C122.233 42.0455 118.838 43.6298 116.121 43.6298C112.086 43.6298 107.926 40.4658 108.648 36.4964C109.328 32.7607 113.744 30.3149 118.159 30.3821C121.153 30.4276 123.977 32.4827 125.246 33.4061L125.293 33.4401L127.331 21.5509Z" fill="#003366"/>
</svg>
