<svg width="336" height="48" viewBox="0 0 336 48" fill="none" xmlns="http://www.w3.org/2000/svg">
<path d="M91.8569 11.4775V15.1825H71.7866L77.2798 11.4775H91.8569ZM84.1353 16.9252V36.5449H79.5199V16.9252H84.1353ZM44.3323 11.4775C44.5682 11.4476 44.8079 11.4722 45.0328 11.5492C45.2578 11.6263 45.4621 11.7538 45.6302 11.922C45.7983 12.0902 45.9257 12.2947 46.0026 12.5197C46.0794 12.7447 46.1038 12.9843 46.0738 13.2202L47.0555 36.5332H42.7389L41.874 15.0786H41.1806L36.4951 31.8828C36.4397 32.3214 36.2165 32.7214 35.8724 32.9989C35.5283 33.2764 35.0901 33.4098 34.6498 33.371H31.4512C31.0013 33.4119 30.5526 33.281 30.1951 33.0047C29.8377 32.7285 29.598 32.3272 29.5241 31.8815L24.8503 15.0786H24.1231L23.3166 36.5319H19L19.9805 13.2215C19.9543 12.9862 19.9814 12.748 20.0598 12.5245C20.1381 12.3011 20.2656 12.0981 20.4329 11.9305C20.6002 11.763 20.803 11.6352 21.0263 11.5565C21.2497 11.4779 21.4878 11.4504 21.7232 11.4762H26.2593C26.6951 11.4488 27.1251 11.587 27.4632 11.8633C27.8013 12.1395 28.0225 12.5333 28.0826 12.9657L31.9265 26.687C32.0954 27.2597 32.2343 27.8428 32.3421 28.4298C32.4564 29.0063 32.5836 29.5842 32.7213 30.1725H33.3576C33.507 29.5959 33.6342 29.018 33.7602 28.4298C33.8875 27.8415 34.0147 27.2753 34.1641 26.6519L37.9729 12.9644C38.0287 12.5259 38.2522 12.1261 38.5966 11.8491C38.941 11.572 39.3794 11.4393 39.8196 11.4788H44.3323V11.4775ZM57.2913 11.4087H61.1573C62.4729 11.4087 63.778 11.4087 65.0584 11.4775C66.3389 11.5476 67.5518 11.6047 68.6946 11.6982L68.4738 15.0786H58.677C58.4035 15.0544 58.128 15.0869 57.8677 15.1741C57.6074 15.2612 57.3679 15.4011 57.1641 15.585C56.8026 16.0335 56.629 16.6047 56.6797 17.1785V30.8309C56.629 31.4049 56.803 31.9763 57.1641 32.4243C57.3679 32.6083 57.6074 32.7482 57.8677 32.8353C58.128 32.9224 58.4035 32.955 58.677 32.9308H68.4738L68.6946 36.3137C67.5388 36.4046 66.3856 36.4748 65.0584 36.5085C63.7312 36.5436 62.4742 36.567 61.1573 36.5786H57.2913C55.9321 36.6468 54.5996 36.1834 53.576 35.2865C53.1087 34.8415 52.7399 34.3034 52.4935 33.7071C52.247 33.1108 52.1282 32.4694 52.1449 31.8244V16.1629C52.1281 15.5179 52.2468 14.8765 52.4933 14.2801C52.7398 13.6838 53.1086 13.1458 53.576 12.7008C54.5996 11.8039 55.9321 11.3405 57.2913 11.4087ZM52.7903 21.7951H67.0895V25.1416H52.7916V21.7951H52.7903ZM99.4746 11.4775V36.5332H94.9385V11.4775H99.4746ZM114.753 11.0048C116.411 10.9684 118.066 11.1866 119.658 11.6515C120.912 12.0232 122.028 12.7579 122.866 13.7631C123.756 14.9378 124.358 16.3058 124.621 17.7563C125.36 21.8818 125.36 26.1055 124.621 30.231C124.362 31.6862 123.761 33.059 122.867 34.2359C122.034 35.248 120.916 35.9875 119.659 36.3592C118.066 36.8202 116.411 37.0345 114.753 36.9955C113.122 37.0326 111.495 36.818 109.93 36.3592C108.666 35.988 107.54 35.2489 106.698 34.2359C105.786 33.0666 105.176 31.6913 104.921 30.231C104.183 26.1055 104.183 21.8818 104.921 17.7563C105.181 16.301 105.791 14.9307 106.698 13.7631C107.544 12.7565 108.668 12.0216 109.93 11.6502C111.495 11.1874 113.122 10.9693 114.754 11.0035L114.753 11.0048ZM114.753 14.7098C113.573 14.6434 112.4 14.9412 111.395 15.563C110.49 16.2792 109.879 17.3013 109.675 18.4368C108.998 22.1183 108.998 25.8924 109.675 29.5738C109.883 30.7075 110.493 31.7296 111.395 32.4477C112.401 33.0697 113.573 33.3676 114.754 33.3009C115.946 33.369 117.129 33.0713 118.146 32.4477C119.048 31.7293 119.659 30.7083 119.866 29.5738C120.558 25.8938 120.558 22.1169 119.866 18.4368C119.662 17.3013 119.051 16.2793 118.146 15.563C117.129 14.9394 115.946 14.6417 114.754 14.7098H114.753ZM145.463 11.0048C146.617 11.0048 147.839 11.0853 149.052 11.1775C150.264 11.2697 151.476 11.432 152.687 11.6515L152.503 13.393C151.349 13.3205 150.195 13.259 149.041 13.2085C147.868 13.1579 146.695 13.1349 145.521 13.1397C144.666 13.1314 143.81 13.17 142.959 13.2553C142.345 13.2988 141.747 13.4714 141.205 13.7618C140.721 14.0586 140.364 14.5232 140.201 15.0669C139.974 15.8933 139.873 16.7492 139.901 17.6057C139.794 18.7602 140.075 19.9173 140.697 20.8951C141.404 21.6267 142.341 22.0914 143.351 22.2106L148.613 23.3651C150.167 23.5536 151.582 24.3503 152.55 25.5806C153.381 26.9718 153.783 28.5782 153.703 30.1972C153.743 31.3987 153.571 32.598 153.195 33.7398C152.909 34.5485 152.382 35.2495 151.683 35.7475C150.927 36.248 150.067 36.5716 149.168 36.6942C147.977 36.8786 146.772 36.963 145.567 36.9475C144.702 36.9475 143.616 36.9475 142.336 36.8436C140.866 36.7515 139.402 36.5825 137.95 36.3371L138.123 34.5943L141.227 34.7203L143.536 34.7904H145.682C146.804 34.7982 147.924 34.6736 149.017 34.4203C149.386 34.3414 149.734 34.1841 150.036 33.9591C150.339 33.7342 150.59 33.4468 150.772 33.1165C151.183 32.1801 151.365 31.1594 151.303 30.1388C151.334 29.2712 151.217 28.4046 150.956 27.5766C150.744 26.9893 150.337 26.4925 149.803 26.1688C149.182 25.8031 148.495 25.5606 147.782 25.4546L142.451 24.2988C140.947 24.0962 139.582 23.3086 138.654 22.1067C137.815 20.7187 137.412 19.11 137.5 17.4901C137.457 16.2893 137.625 15.0902 137.996 13.9475C138.316 13.2106 138.851 12.5873 139.531 12.1593C140.272 11.6848 141.114 11.392 141.989 11.3048C143.14 11.1268 144.301 11.0269 145.463 11.0048ZM167.967 11.0048C169.507 10.9676 171.042 11.1978 172.503 11.6853C173.691 12.0922 174.729 12.8486 175.481 13.8553C176.313 15.0575 176.869 16.4292 177.108 17.8719C177.784 21.9327 177.784 26.0779 177.108 30.1388C176.872 31.5786 176.316 32.9471 175.481 34.1437C174.73 35.1539 173.692 35.9143 172.503 36.3254C169.545 37.2181 166.39 37.2181 163.432 36.3254C162.243 35.9143 161.205 35.1539 160.454 34.1437C159.617 32.9462 159.053 31.5788 158.804 30.1388C158.096 26.0804 158.096 21.9302 158.804 17.8719C159.056 16.429 159.619 15.0584 160.454 13.8553C161.206 12.8491 162.244 12.0932 163.432 11.6866C164.893 11.1988 166.427 10.9681 167.967 11.0048ZM167.967 13.1514C166.473 13.0749 164.989 13.4359 163.697 14.1903C162.554 15.0025 161.756 16.2122 161.458 17.5823C160.581 21.8195 160.581 26.1912 161.458 30.4283C161.759 31.7942 162.551 33.0017 163.685 33.8204C164.978 34.575 166.462 34.936 167.956 34.8593C169.443 34.9375 170.92 34.5762 172.203 33.8204C173.332 32.9967 174.123 31.7914 174.43 30.4283C175.322 26.1922 175.322 21.8184 174.43 17.5823C174.123 16.2192 173.332 15.0139 172.203 14.1903C170.923 13.4367 169.45 13.0754 167.967 13.1514ZM187.933 11.4424H194.915C196.069 11.4424 197.224 11.5125 198.308 11.5814L198.169 13.428H188.476C188.125 13.4025 187.773 13.4476 187.44 13.5607C187.107 13.6738 186.8 13.8525 186.537 14.0864C186.297 14.3433 186.112 14.6471 185.995 14.9787C185.878 15.3104 185.83 15.6627 185.855 16.0136V36.4514H183.501V15.6902C183.465 15.1209 183.549 14.5503 183.748 14.0156C183.947 13.4808 184.256 12.9939 184.656 12.5865C185.099 12.1885 185.617 11.8825 186.18 11.6863C186.742 11.4901 187.338 11.4077 187.933 11.4437V11.4424ZM184.113 22.5457H196.808V24.4612H184.113V22.5457ZM219.831 11.4775V13.5903H200.778V11.4775H219.831ZM211.488 11.4775V36.5332H209.087V11.4775H211.488ZM253.957 11.4775L248.326 35.806C248.247 36.0008 248.125 36.1735 247.967 36.3124C247.781 36.46 247.548 36.5381 247.31 36.5332H244.448C244.217 36.5348 243.993 36.4568 243.813 36.3124C243.636 36.1749 243.513 35.9789 243.466 35.7592L239.036 16.1408C238.944 15.6612 238.84 15.184 238.724 14.7098C238.608 14.2358 238.516 13.7618 238.424 13.3124H237.628C237.534 13.7631 237.442 14.2358 237.338 14.7202C237.234 15.2058 237.142 15.6785 237.05 16.1408L232.619 35.7592C232.573 35.9793 232.45 36.1759 232.272 36.3137C232.092 36.4572 231.868 36.5342 231.637 36.5319H228.741C228.511 36.5342 228.287 36.4572 228.106 36.3137C227.938 36.1871 227.816 36.0087 227.76 35.806L222.127 11.4775H224.632L229.249 31.8127C229.365 32.2399 229.469 32.7009 229.549 33.1853C229.63 33.671 229.722 34.1671 229.826 34.6749H230.702C230.796 34.1671 230.888 33.6814 230.992 33.2087C231.096 32.736 231.176 32.2737 231.28 31.8127L235.711 12.3203C235.746 12.0795 235.864 11.8588 236.046 11.6969C236.232 11.5547 236.459 11.4776 236.693 11.4775H239.451C239.673 11.4775 239.89 11.5554 240.063 11.6982C240.241 11.8608 240.355 12.0813 240.385 12.3203L244.805 31.7776C244.933 32.262 245.036 32.736 245.117 33.2087C245.198 33.6814 245.279 34.1554 245.348 34.6398H246.295C246.399 34.1554 246.479 33.6814 246.571 33.2087C246.664 32.736 246.744 32.2737 246.836 31.8127L251.453 11.4424L253.957 11.4762V11.4775ZM266.986 11.4775C267.199 11.482 267.407 11.5458 267.586 11.6619C267.762 11.7809 267.886 11.9631 267.933 12.1709L276.311 36.5332H273.841L266.801 15.4019C266.709 15.0669 266.594 14.7202 266.478 14.363C266.364 14.0059 266.248 13.6825 266.156 13.3709H265.094L264.794 14.363L264.447 15.4019L257.407 36.5332H254.939L263.316 12.1567C263.385 11.9539 263.514 11.7772 263.686 11.6502C263.854 11.5289 264.056 11.4639 264.263 11.4645L266.986 11.4775ZM271.961 26.1455V28.2116H259.266V26.1468H271.961V26.1455ZM288.765 11.1554C290.291 11.1035 291.813 11.3177 293.265 11.7891C294.343 12.1683 295.232 12.9501 295.747 13.9708C296.337 15.3502 296.605 16.846 296.531 18.3446C296.562 19.5167 296.402 20.686 296.058 21.8068C295.799 22.6446 295.277 23.3769 294.57 23.8962C293.776 24.4224 292.872 24.758 291.927 24.8767V25.0157C292.349 25.1611 292.74 25.3845 293.081 25.6728C293.491 26.0013 293.849 26.3909 294.143 26.8273C294.474 27.3532 294.715 27.9311 294.858 28.5349L297.409 36.4864H294.858L292.469 28.6038C292.239 27.7408 291.752 26.9682 291.073 26.3883C290.417 25.9356 289.631 25.709 288.834 25.7429H285.048C283.895 25.7429 283.029 25.7429 282.302 25.6845L280.675 25.6156L280.779 23.6885H288.661C289.75 23.7075 290.834 23.5433 291.869 23.2028C292.245 23.0658 292.589 22.8527 292.879 22.5767C293.169 22.3008 293.399 21.9679 293.555 21.599C294.231 19.5296 294.231 17.2986 293.555 15.2292C293.397 14.8668 293.166 14.541 292.876 14.2728C292.585 14.0045 292.243 13.7995 291.869 13.6709C290.832 13.3433 289.748 13.1949 288.661 13.2319H280.814L280.306 11.3749C281.139 11.2896 281.974 11.216 282.81 11.1541C283.663 11.1016 284.517 11.0748 285.372 11.0736L288.765 11.1554ZM282.706 11.4775V36.5332H280.329V11.4775H282.706ZM307.021 11.4424H310.611C311.822 11.4424 313.034 11.4424 314.222 11.5009C315.412 11.558 316.588 11.5931 317.684 11.6619L317.569 13.5085H307.378C307.044 13.4848 306.707 13.5311 306.392 13.6445C306.076 13.7579 305.787 13.9358 305.543 14.1669C305.316 14.4308 305.144 14.7368 305.035 15.0675C304.926 15.3981 304.884 15.747 304.91 16.0941V31.9166C304.855 32.6217 305.084 33.3191 305.543 33.8554C305.784 34.0921 306.072 34.2752 306.388 34.3925C306.704 34.5098 307.042 34.5587 307.378 34.5359H317.569L317.684 36.3475C316.531 36.4176 315.377 36.4644 314.222 36.4864C313.069 36.5098 311.822 36.4864 310.611 36.4864H307.021C305.841 36.5382 304.689 36.1235 303.812 35.332C303.406 34.9482 303.087 34.4819 302.876 33.9645C302.665 33.4471 302.567 32.8905 302.589 32.3321V15.6214C302.563 15.0604 302.659 14.5005 302.87 13.9799C303.081 13.4605 303.403 12.993 303.812 12.6086C304.69 11.8175 305.841 11.3996 307.021 11.4437V11.4424ZM303.212 22.2574H316.173V24.1845H303.212V22.2574Z" fill="#1F74AD"/>
</svg>
