<svg width="78" height="63" viewBox="0 0 78 63" fill="none" xmlns="http://www.w3.org/2000/svg">
<path d="M26 29.75H6.8575C7.46151 25.7276 8.89782 21.8754 11.0747 18.4395C13.2515 15.0035 16.1211 12.0593 19.5 9.795L25.3175 5.895L21.7425 0.5L15.925 4.4C11.0282 7.66325 7.01255 12.0848 4.23453 17.2723C1.45651 22.4599 0.00197303 28.253 0 34.1375V55.75C0 57.4739 0.684819 59.1272 1.90381 60.3462C3.12279 61.5652 4.77609 62.25 6.5 62.25H26C27.7239 62.25 29.3772 61.5652 30.5962 60.3462C31.8152 59.1272 32.5 57.4739 32.5 55.75V36.25C32.5 34.5261 31.8152 32.8728 30.5962 31.6538C29.3772 30.4348 27.7239 29.75 26 29.75ZM71.5 29.75H52.3575C52.9615 25.7276 54.3978 21.8754 56.5747 18.4395C58.7515 15.0035 61.6211 12.0593 65 9.795L70.8175 5.895L67.275 0.5L61.425 4.4C56.5282 7.66325 52.5126 12.0848 49.7345 17.2723C46.9565 22.4599 45.502 28.253 45.5 34.1375V55.75C45.5 57.4739 46.1848 59.1272 47.4038 60.3462C48.6228 61.5652 50.2761 62.25 52 62.25H71.5C73.2239 62.25 74.8772 61.5652 76.0962 60.3462C77.3152 59.1272 78 57.4739 78 55.75V36.25C78 34.5261 77.3152 32.8728 76.0962 31.6538C74.8772 30.4348 73.2239 29.75 71.5 29.75Z" fill="url(#paint0_linear_521_6226)"/>
<defs>
<linearGradient id="paint0_linear_521_6226" x1="-0.42352" y1="62.5891" x2="60.4929" y2="-13.5167" gradientUnits="userSpaceOnUse">
<stop stop-color="#FF8906"/>
<stop offset="0.505208" stop-color="#F15B47"/>
<stop offset="1" stop-color="#E53170"/>
</linearGradient>
</defs>
</svg>
