<svg width="126" height="120" viewBox="0 0 126 120" fill="none" xmlns="http://www.w3.org/2000/svg">
<path d="M0 120V100.476C6.34625 99.2063 11.4233 96.1905 15.231 91.4286C19.3561 86.6667 22.2119 80.6349 23.7985 73.3333C25.7023 66.3492 26.6543 58.5714 26.6543 50H4.75969V0H51.4047V44.7619C51.4047 63.1746 48.7075 77.4603 43.3132 87.619C37.9189 98.0952 31.2553 105.714 23.3225 110.476C15.707 115.238 7.93282 118.413 0 120ZM74.2512 120V100.476C80.2801 99.2063 85.1985 96.1905 89.0062 91.4286C93.1313 86.6667 95.9871 80.6349 97.5737 73.3333C99.4775 66.3492 100.429 58.5714 100.429 50H78.5349V0H125.18V44.7619C125.18 63.1746 122.483 77.4603 117.088 87.619C112.011 98.0952 105.506 105.714 97.5737 110.476C89.6408 115.238 81.8667 118.413 74.2512 120Z" fill="#F0F4F7"/>
</svg>
