<svg width="208" height="52" viewBox="0 0 208 52" fill="none" xmlns="http://www.w3.org/2000/svg">
<path d="M199.631 49.7572H202.579C204.412 42.1288 205.4 34.1793 205.4 25.9984C205.4 17.8188 204.412 9.86409 202.579 2.24219H199.631C201.525 9.85239 202.53 17.8097 202.53 25.9984C202.53 34.1845 201.525 42.1379 199.631 49.7572Z" fill="black"/>
<path d="M8.36381 49.7572C6.47621 42.1379 5.46221 34.1845 5.46221 25.9984C5.46221 17.8084 6.47751 9.85239 8.36381 2.24219H5.41671C3.57721 9.86409 2.59961 17.8188 2.59961 25.9984C2.59961 34.1793 3.57721 42.1288 5.41671 49.7572H8.36381Z" fill="black"/>
<path d="M28.5469 22.9168C28.5469 21.1059 29.1813 19.711 30.4579 18.7399C31.7332 17.7688 33.3231 17.2852 35.2315 17.2852C37.0177 17.2852 38.6622 17.7129 40.1494 18.5748V21.8755C38.9287 21.2957 37.5455 21.0058 35.992 21.0058C33.9159 21.0058 32.8798 21.5167 32.8798 22.5294C32.8798 23.0364 33.1814 23.4355 33.7651 23.7202C34.354 24.0101 35.0703 24.2662 35.9179 24.4833C36.7642 24.6978 37.6144 24.9981 38.449 25.3673C39.2901 25.7404 40.009 26.3696 40.6057 27.2549C41.1933 28.1441 41.4962 29.2634 41.4962 30.6362C41.4962 32.1403 40.8813 33.3922 39.6489 34.3867C38.4243 35.3799 36.7993 35.8778 34.7739 35.8778C32.7017 35.8778 30.8037 35.3851 29.0578 34.4101V30.5621C30.6464 31.6229 32.3416 32.1572 34.1499 32.1572C35.4018 32.1572 36.2078 32.0116 36.5861 31.7191C36.9657 31.4318 37.1529 30.9989 37.1529 30.423C37.1529 29.8887 36.8578 29.4649 36.2624 29.1399C35.6709 28.8149 34.9559 28.5263 34.1122 28.291C33.2685 28.0479 32.4339 27.7619 31.5889 27.4291C30.7491 27.1041 30.0328 26.5542 29.4387 25.795C28.842 25.0319 28.5469 24.0751 28.5469 22.9168Z" fill="#1C1C1B"/>
<path d="M43.2695 17.5706H47.8728L51.9145 30.1143L55.8795 17.5706H60.2176L53.6071 36.0358C52.6399 38.6592 51.5973 40.4259 50.4676 41.3346C49.3392 42.2472 48.1692 42.7009 46.9563 42.7009C46.0619 42.7009 45.1519 42.5358 44.2198 42.2004V38.5409C44.9153 38.8386 45.5991 38.9816 46.2595 38.9816C47.514 38.9816 48.671 37.5269 49.7448 34.6201L43.2695 17.5706Z" fill="#1C1C1B"/>
<path d="M63.0664 35.5918V19.2625C65.7106 17.9417 68.4692 17.2852 71.3357 17.2852C73.8577 17.2852 75.8168 17.9404 77.2312 19.2521C78.6508 20.5638 79.3658 22.4007 79.3658 24.7628V35.5918H75.0277V24.3923C75.0277 23.9126 74.9757 23.5096 74.8925 23.1846C74.8041 22.8635 74.6299 22.5242 74.3634 22.1719C74.0995 21.8183 73.6601 21.5531 73.066 21.3763C72.4667 21.2021 71.6984 21.1111 70.7546 21.1111C69.6977 21.1111 68.5823 21.219 67.4045 21.4296V35.5918H63.0664Z" fill="#1C1C1B"/>
<path d="M82.9609 26.7764C82.9609 23.8813 83.6031 21.5699 84.8888 19.8422C86.1771 18.1158 88.2168 17.2539 91.0157 17.2539C93.6703 17.2539 95.6749 18.0937 97.0243 19.7707C98.3867 21.4529 99.0627 23.5251 99.0627 25.9821C99.0627 26.9935 99.0419 27.7397 98.9951 28.2207H87.3003C87.416 29.7885 87.8827 30.8311 88.6965 31.3615C89.5129 31.8893 90.5737 32.1558 91.8802 32.1558C94.0057 32.1558 96.0519 31.6904 98.0279 30.7622V34.2566C96.0233 35.3382 93.76 35.8777 91.2302 35.8777C90.432 35.8777 89.678 35.8088 88.976 35.684C88.2688 35.5527 87.5356 35.2797 86.7816 34.8728C86.025 34.4581 85.3724 33.9368 84.8277 33.3037C84.2856 32.6667 83.841 31.7879 83.4835 30.6686C83.1338 29.5402 82.9609 28.2415 82.9609 26.7764ZM87.3003 25.2255H94.5725C94.4568 23.9866 94.085 22.9414 93.4701 22.0912C92.8409 21.2371 91.9946 20.8133 90.913 20.8133C89.8314 20.8133 88.9903 21.1578 88.3897 21.8533C87.78 22.5488 87.416 23.6707 87.3003 25.2255Z" fill="#1C1C1B"/>
<path d="M103.281 35.5918V19.1741C103.574 19.0311 103.977 18.866 104.493 18.6736C105.013 18.4812 106.054 18.2069 107.618 17.8546C109.186 17.4971 110.737 17.3086 112.277 17.2852V21.0058C110.462 21.0305 108.914 21.2281 107.618 21.609V35.5918H103.281Z" fill="#1C1C1B"/>
<path d="M114.549 26.6056C114.549 25.0196 114.753 23.6325 115.165 22.4508C115.578 21.2678 116.063 20.3669 116.626 19.7416C117.194 19.115 117.864 18.6106 118.635 18.2258C119.407 17.8345 120.073 17.594 120.652 17.4965C121.231 17.4042 121.808 17.3574 122.376 17.3574C124.91 17.3574 126.773 17.9307 127.962 19.0838C129.16 20.2382 129.755 21.6383 129.755 23.2815V36.1047C129.755 36.6832 129.702 37.2279 129.6 37.7453C129.485 38.264 129.269 38.8412 128.923 39.4743C128.582 40.1087 128.131 40.6495 127.571 41.098C127.002 41.5426 126.21 41.9261 125.183 42.2368C124.16 42.5462 122.977 42.6996 121.625 42.6996C119.718 42.6996 117.986 42.4617 116.426 41.9755V38.082C117.865 38.5617 119.436 38.8035 121.123 38.8035C122.14 38.8035 122.961 38.7281 123.601 38.5773C124.229 38.4291 124.668 38.1899 124.899 37.8649C125.123 37.5412 125.271 37.2682 125.325 37.0381C125.386 36.8119 125.41 36.5038 125.41 36.1099V35.1362C124.452 35.326 123.54 35.4248 122.682 35.43C120.054 35.43 118.048 34.676 116.646 33.1563C115.255 31.6392 114.549 29.4591 114.549 26.6056ZM118.883 26.6849C118.883 28.7012 119.208 30.0727 119.858 30.7929C120.508 31.5092 121.495 31.8745 122.819 31.8745C123.702 31.8745 124.565 31.7926 125.409 31.6262V23.2555C125.409 21.9243 124.416 21.2535 122.433 21.2535C122.409 21.2535 122.397 21.2535 122.375 21.2535C121.23 21.2535 120.36 21.6747 119.77 22.5132C119.186 23.3517 118.883 24.7427 118.883 26.6849Z" fill="#1C1C1B"/>
<path d="M134.162 15.1876V11.2188H138.6V15.1876H134.162ZM134.23 35.6665V17.6395H138.565V35.6665H134.23Z" fill="#1C1C1B"/>
<path d="M143.451 35.6665V19.3307C146.098 18.0177 148.853 17.3573 151.727 17.3573C154.242 17.3573 156.202 18.0112 157.625 19.3229C159.036 20.632 159.754 22.4702 159.754 24.8375V35.6652H155.411V24.4618C155.411 23.9808 155.367 23.5804 155.277 23.2554C155.182 22.9304 155.011 22.595 154.749 22.244C154.486 21.8852 154.054 21.6278 153.451 21.4471C152.848 21.2729 152.084 21.1819 151.146 21.1819C150.088 21.1819 148.968 21.2898 147.791 21.5017V35.6665H143.451Z" fill="#1C1C1B"/>
<path d="M163.348 26.8467C163.348 23.9542 163.986 21.6428 165.278 19.9125C166.559 18.1861 168.606 17.3203 171.4 17.3203C174.051 17.3203 176.051 18.164 177.41 19.841C178.771 21.5245 179.448 23.5941 179.448 26.0511C179.448 27.0625 179.418 27.8061 179.373 28.2923H167.687C167.801 29.8562 168.266 30.9027 169.079 31.4305C169.898 31.9557 170.959 32.2222 172.264 32.2222C174.387 32.2222 176.431 31.762 178.406 30.8299V34.323C176.404 35.4059 174.14 35.9467 171.616 35.9467C170.811 35.9467 170.06 35.8817 169.364 35.7556C168.652 35.6217 167.924 35.3539 167.164 34.9431C166.403 34.5323 165.757 34.0058 165.212 33.3714C164.662 32.7383 164.215 31.8582 163.87 30.7363C163.514 29.6079 163.348 28.3157 163.348 26.8467ZM167.688 25.2932H174.949C174.827 24.0569 174.465 23.013 173.848 22.1628C173.225 21.3113 172.375 20.8849 171.3 20.8849C170.216 20.8849 169.371 21.2307 168.77 21.9249C168.167 22.6191 167.803 23.7423 167.688 25.2932Z" fill="#1C1C1B"/>
</svg>
