<svg width="32" height="32" viewBox="0 0 32 32" fill="none" xmlns="http://www.w3.org/2000/svg">
<rect width="32" height="32" fill="#F15B47"/>
<path d="M25.762 27.0758L19.4929 17.7521C23.047 16.9838 24.8248 14.6977 24.8264 10.8938C24.8264 6.29793 22.0335 4.00002 16.4478 4.00002H6.568C6.49363 3.9994 6.41988 4.01351 6.35099 4.04154C6.2821 4.06957 6.21945 4.11096 6.16664 4.16333C6.11384 4.21569 6.07193 4.278 6.04332 4.34665C6.01472 4.4153 6 4.48893 6 4.5633V6.06461C5.99991 6.17934 6.03531 6.2913 6.10134 6.38513L10.9281 13.5711H6.568C6.49363 13.5705 6.41988 13.5846 6.35099 13.6126C6.2821 13.6407 6.21945 13.6821 6.16664 13.7344C6.11384 13.7868 6.07193 13.8491 6.04332 13.9177C6.01472 13.9864 6 14.06 6 14.1344V27.3987C6 27.4726 6.01457 27.5459 6.04288 27.6142C6.07119 27.6826 6.11268 27.7447 6.16498 27.797C6.21729 27.8493 6.27938 27.8908 6.34772 27.9191C6.41607 27.9474 6.48931 27.9619 6.56328 27.9619H10.2423C10.3913 27.9613 10.5339 27.9017 10.6391 27.7961C10.7442 27.6906 10.8032 27.5476 10.8032 27.3987V18.0444H13.9425L20.4427 27.7215C20.4962 27.7961 20.5671 27.8566 20.6492 27.8976C20.7314 27.9387 20.8222 27.9591 20.914 27.9572H25.3142C25.4181 27.9574 25.5199 27.9288 25.6085 27.8747C25.6971 27.8206 25.7691 27.743 25.8164 27.6506C25.8637 27.5582 25.8845 27.4545 25.8766 27.351C25.8687 27.2474 25.8323 27.1481 25.7715 27.064L25.762 27.0758ZM13.2661 8.478H17.5485C19.4339 8.54242 20.4073 9.36181 20.4686 10.9362C20.4152 12.6645 19.4261 13.542 17.5013 13.5688H16.6859L13.2661 8.478Z" fill="white"/>
</svg>
