<?xml version="1.0" standalone="no"?>
<!DOCTYPE svg PUBLIC "-//W3C//DTD SVG 20010904//EN"
 "http://www.w3.org/TR/2001/REC-SVG-20010904/DTD/svg10.dtd">
<svg version="1.0" xmlns="http://www.w3.org/2000/svg"
 width="700.000000pt" height="700.000000pt" viewBox="0 0 700.000000 700.000000"
 preserveAspectRatio="xMidYMid meet">
<metadata>
Created by potrace 1.14, written by Peter Selinger 2001-2017
</metadata>
<g transform="translate(0.000000,700.000000) scale(0.100000,-0.100000)"
fill="#000000" stroke="none">
<path d="M892 6713 c-19 -9 -44 -32 -58 -52 -24 -35 -24 -38 -24 -279 0 -202
3 -248 16 -274 9 -16 89 -139 178 -272 722 -1072 1126 -1675 1126 -1679 0 -2
-258 -3 -572 -3 -315 1 -592 -2 -616 -5 -50 -7 -90 -33 -115 -77 -18 -30 -19
-106 -19 -1849 0 -1330 3 -1826 12 -1848 15 -40 64 -82 105 -89 65 -12 1034
-8 1073 5 43 14 64 33 86 76 15 29 16 149 16 1308 l0 1275 423 0 424 0 206
-307 c314 -469 795 -1186 807 -1203 6 -8 87 -130 182 -270 601 -896 570 -852
613 -871 37 -16 88 -18 664 -18 620 0 625 0 663 21 70 39 100 154 55 206 -13
15 -121 176 -709 1052 -87 129 -164 244 -172 255 -8 11 -70 103 -138 205 -69
102 -249 370 -401 597 -305 454 -285 412 -204 429 24 4 33 7 142 39 415 125
737 355 941 673 50 78 138 265 167 357 45 139 68 241 92 405 19 128 25 409 12
570 -61 794 -478 1304 -1242 1518 -60 17 -121 33 -135 36 -14 3 -70 14 -125
24 -97 19 -155 28 -260 38 -27 3 -70 8 -95 11 -25 4 -729 8 -1565 10 -1400 3
-1523 2 -1553 -14z m3151 -1197 c20 -3 54 -8 74 -11 149 -21 303 -90 399 -177
73 -67 154 -218 170 -318 2 -14 6 -40 10 -58 7 -45 7 -137 -1 -197 -30 -234
-149 -413 -335 -503 -149 -73 -272 -95 -530 -96 l-144 -1 -78 115 c-43 63 -83
122 -88 130 -27 40 -278 413 -501 746 -137 204 -249 373 -249 375 0 7 1230 3
1273 -5z"/>
</g>
</svg>
