<svg width="31" height="24" viewBox="0 0 31 24" fill="none" xmlns="http://www.w3.org/2000/svg">
<g clip-path="url(#clip0_521_5800)">
<path d="M12.2394 13.292C12.3468 11.376 13.285 9.688 14.7005 8.49135C16.0886 7.31604 17.9569 6.59766 19.9955 6.59766C22.0321 6.59766 23.9005 7.31604 25.2896 8.49135C26.704 9.68789 27.6423 11.376 27.7508 13.29C27.8581 15.2587 27.0668 17.0875 25.6787 18.4432C24.2633 19.8221 22.2499 20.6874 19.9955 20.6874C17.7412 20.6874 15.7239 19.8221 14.3094 18.4432C12.9203 17.0874 12.1309 15.2585 12.2394 13.292Z" fill="white"/>
<path d="M16.0168 13.4622C16.0718 12.4792 16.5533 11.613 17.2796 10.999C17.9918 10.396 18.9504 10.0273 19.9965 10.0273C21.0414 10.0273 22.0002 10.396 22.7129 10.999C23.4387 11.613 23.9201 12.4792 23.9757 13.4613C24.0308 14.4714 23.6249 15.4098 22.9125 16.1053C22.1863 16.8129 21.1533 17.2569 19.9965 17.2569C18.8398 17.2569 17.8047 16.8129 17.0789 16.1053C16.3662 15.4098 15.9612 14.4714 16.0168 13.4622Z" fill="#265787"/>
<path d="M9.69878 15.4823C9.7057 15.8677 9.82859 16.617 10.0131 17.202C10.4007 18.4404 11.0581 19.5862 11.973 20.5958C12.9119 21.6337 14.0679 22.4673 15.4034 23.0592C16.8069 23.6807 18.3277 23.9975 19.9073 23.9949C21.4844 23.9927 23.0053 23.6698 24.4088 23.0435C25.7442 22.4459 26.8992 21.6087 27.8365 20.5703C28.7509 19.5564 29.4073 18.4087 29.796 17.1703C29.9914 16.5445 30.1148 15.9095 30.1643 15.2722C30.2128 14.6435 30.1923 14.0115 30.1034 13.3873C29.9294 12.1629 29.5057 11.0142 28.8534 9.96692C28.2569 9.00462 27.488 8.16219 26.5735 7.45304L26.5756 7.45154L17.3483 0.366348C17.3399 0.360117 17.3331 0.353425 17.3242 0.347656C16.7189 -0.117114 15.7007 -0.115498 15.035 0.350194C14.3618 0.821194 14.2847 1.60016 14.8838 2.09135L14.8813 2.094L18.7299 5.22369L6.99959 5.23616H6.98389C6.01432 5.23731 5.08235 5.87342 4.89774 6.67731C4.70816 7.49631 5.36678 8.17569 6.37489 8.17939L6.37328 8.18296L12.319 8.17142L1.7092 16.3154C1.6957 16.3253 1.68105 16.3357 1.66859 16.3456C0.667739 17.112 0.344201 18.3864 0.974547 19.1928C1.61435 20.013 2.97474 20.0145 3.98597 19.1976L9.77643 14.4586C9.77643 14.4586 9.69197 15.0983 9.69878 15.4823ZM24.5782 17.6245C23.3851 18.8401 21.7147 19.5293 19.9074 19.533C18.0974 19.5361 16.4271 18.853 15.234 17.6397C14.651 17.0483 14.2228 16.3679 13.9585 15.6432C13.6988 14.9299 13.5989 14.1684 13.6658 13.4123C13.7288 12.6667 13.9508 11.9556 14.305 11.3121C14.653 10.6797 15.1324 10.108 15.7243 9.62458C16.8839 8.67958 18.3605 8.16785 19.9047 8.16577C21.4506 8.16369 22.926 8.67069 24.0869 9.61269C24.6777 10.094 25.1565 10.6635 25.5045 11.295C25.8634 11.9419 26.0821 12.6571 26.1464 13.3941C26.2123 14.1497 26.112 14.9106 25.8525 15.6233C25.5878 16.3502 25.1611 17.0307 24.5782 17.6245Z" fill="#EA7600"/>
</g>
<defs>
<clipPath id="clip0_521_5800">
<rect width="29.54" height="24" fill="white" transform="translate(0.650391)"/>
</clipPath>
</defs>
</svg>
