<svg width="112" height="24" viewBox="0 0 112 24" fill="none" xmlns="http://www.w3.org/2000/svg">
<g clip-path="url(#clip0_521_5789)">
<path d="M0.768555 15.0577C0.768555 13.8076 0.977852 12.6411 1.39645 11.5583C1.81504 10.4757 2.40099 9.53234 3.1545 8.72866C3.90801 7.92499 4.80942 7.29429 5.85872 6.83677C6.90801 6.37904 8.05764 6.15007 9.3078 6.15007C10.2568 6.15007 11.119 6.28975 11.8948 6.56866C12.6706 6.8478 13.4213 7.30553 14.1467 7.94164V6.48499H18.3997V23.6307H14.1467V22.1739C13.4213 22.8102 12.6706 23.2679 11.8948 23.5468C11.119 23.826 10.2568 23.9654 9.3078 23.9654C8.05764 23.9654 6.9078 23.7367 5.85872 23.2789C4.80942 22.8214 3.90801 22.1907 3.1545 21.387C2.40099 20.5832 1.81504 19.64 1.39645 18.5572C0.977852 17.4746 0.768555 16.3081 0.768555 15.0577ZM9.86045 19.9637C10.1954 19.9637 10.5469 19.9276 10.9154 19.8549C11.2836 19.7823 11.6548 19.6595 12.0289 19.4865C12.4027 19.3135 12.7683 19.082 13.1255 18.7916C13.4827 18.5014 13.823 18.1442 14.1467 17.72V12.3955C13.823 11.9715 13.4827 11.6171 13.1255 11.3323C12.7681 11.0478 12.4027 10.816 12.0287 10.6374C11.6546 10.4588 11.2836 10.3332 10.9151 10.2608C10.5679 10.1904 10.2147 10.1539 9.86045 10.1518C9.20185 10.1518 8.58499 10.2746 8.01028 10.5202C7.43515 10.7659 6.93569 11.1092 6.51169 11.5501C6.08747 11.9909 5.75537 12.5101 5.51537 13.1073C5.27537 13.7044 5.15537 14.3546 5.15537 15.0577C5.15537 15.7611 5.27537 16.4113 5.51537 17.0084C5.75537 17.6056 6.08747 18.1248 6.51169 18.5656C6.93591 19.0067 7.43537 19.3499 8.01007 19.5955C8.5852 19.8409 9.20185 19.9637 9.86045 19.9637ZM29.031 10.3827C27.0159 10.3974 25.2652 11.8017 25.2652 13.8859V23.6307H21.0122V14.003C21.036 9.98834 24.5128 6.20412 28.9701 6.15007H29.089C33.5463 6.20412 37.023 9.98834 37.0468 14.003V23.6307H32.7939V13.8859C32.7939 11.8017 31.0434 10.3974 29.028 10.3827H29.031ZM39.06 15.0577C39.06 13.8076 39.2693 12.6411 39.6879 11.5583C40.1065 10.4757 40.6927 9.53234 41.446 8.72866C42.1995 7.92499 43.1009 7.29429 44.1502 6.83677C45.1995 6.37904 46.3491 6.15007 47.5995 6.15007C48.5482 6.15007 49.4133 6.28975 50.1947 6.56866C50.9761 6.8478 51.724 7.29991 52.4384 7.92499V1.34466H56.6914V23.6307H52.4384V22.1907C51.724 22.8268 50.9761 23.2817 50.1947 23.5553C49.4133 23.8288 48.5482 23.9654 47.5995 23.9654C46.3491 23.9654 45.1995 23.7367 44.1502 23.2789C43.1009 22.8214 42.1995 22.1907 41.446 21.387C40.6927 20.5834 40.1065 19.64 39.6881 18.5572C39.2693 17.4746 39.06 16.3081 39.06 15.0577ZM48.1519 19.9637C48.4868 19.9637 48.8384 19.9276 49.2068 19.8549C49.575 19.7823 49.9463 19.6595 50.3203 19.4865C50.6942 19.3135 51.0598 19.082 51.417 18.7916C51.7742 18.5014 52.1145 18.1442 52.4384 17.72V12.3955C52.1145 11.9715 51.7742 11.6171 51.417 11.3323C51.0598 11.0478 50.6942 10.816 50.3203 10.6374C49.9463 10.4588 49.575 10.3332 49.2068 10.2608C48.8384 10.1881 48.4868 10.152 48.1519 10.1518C47.4933 10.1518 46.8767 10.2746 46.3017 10.5202C45.7268 10.7659 45.2272 11.1092 44.8034 11.5501C44.3789 11.9909 44.0468 12.5101 43.8068 13.1073C43.5668 13.7044 43.4468 14.3546 43.447 15.0577C43.447 15.7611 43.5668 16.4113 43.8068 17.0084C44.0468 17.6056 44.3789 18.1248 44.8032 18.5656C45.2274 19.0067 45.7268 19.3499 46.3017 19.5955C46.8767 19.8409 47.4933 19.9637 48.1519 19.9637ZM76.6075 19.9637C77.2438 19.9637 77.8438 19.8437 78.4075 19.6037C78.9624 19.3697 79.4638 19.0251 79.881 18.5907C80.2996 18.1555 80.6289 17.6392 80.8689 17.042C81.1089 16.4448 81.2289 15.7836 81.2289 15.0577C81.2289 14.3434 81.1061 13.6876 80.8604 13.0904C80.6148 12.4932 80.2799 11.9769 79.8559 11.5416C79.4355 11.1089 78.9351 10.762 78.3824 10.5202C77.8243 10.2746 77.2326 10.152 76.6075 10.1518C75.9714 10.1518 75.3714 10.2746 74.8075 10.5202C74.2533 10.7593 73.7524 11.1065 73.3342 11.5416C72.9156 11.9769 72.5835 12.4932 72.3379 13.0904C72.0922 13.6876 71.9694 14.3434 71.9694 15.058C71.9694 15.7834 72.0894 16.4448 72.3294 17.042C72.5694 17.6392 72.8987 18.1555 73.3175 18.5907C73.7346 19.025 74.236 19.3697 74.7908 19.6037C75.3545 19.8437 75.9601 19.9637 76.6075 19.9637ZM76.6075 23.9654C75.3686 23.9654 74.2021 23.7423 73.108 23.2958C72.014 22.8493 71.057 22.227 70.2367 21.4288C69.4161 20.6307 68.7686 19.6874 68.2942 18.5992C67.8198 17.5107 67.5828 16.3304 67.5828 15.0577C67.5828 13.8188 67.8198 12.6577 68.2942 11.5752C68.7688 10.4923 69.4133 9.5492 70.2282 8.74553C71.0429 7.94164 72.0001 7.30834 73.0996 6.84499C74.1993 6.38185 75.3686 6.15007 76.6075 6.15007C77.8464 6.15007 79.0131 6.38185 80.1069 6.84499C81.201 7.30834 82.1554 7.94164 82.9701 8.74553C83.7852 9.5492 84.4295 10.4926 84.9041 11.5752C85.3785 12.658 85.6155 13.8188 85.6155 15.0577C85.6155 16.3304 85.3785 17.5107 84.9041 18.5992C84.4297 19.6874 83.7822 20.6307 82.9619 21.4288C82.1413 22.227 81.1869 22.8493 80.0985 23.2958C79.0103 23.7423 77.8466 23.9654 76.6075 23.9654ZM89.6477 5.1425C89.303 5.1425 88.9774 5.07526 88.6704 4.94056C88.3692 4.80977 88.0953 4.62346 87.863 4.39137C87.6309 4.15902 87.4446 3.88506 87.3139 3.5838C87.179 3.27573 87.1102 2.9428 87.1119 2.6065C87.1119 2.26207 87.1792 1.93364 87.3139 1.62142C87.4432 1.31702 87.6296 1.04018 87.863 0.805853C88.0954 0.573764 88.3694 0.387461 88.6706 0.256664C88.9787 0.121813 89.3116 0.0530191 89.6479 0.0547182C89.9923 0.0547182 90.3208 0.121961 90.633 0.256664C90.9374 0.386025 91.2142 0.572441 91.4486 0.805853C91.682 1.04019 91.8684 1.31702 91.9977 1.62142C92.1324 1.93364 92.1997 2.26207 92.1997 2.60672C92.1997 2.95115 92.1324 3.27699 91.9977 3.58402C91.8669 3.8852 91.6806 4.15908 91.4486 4.39137C91.2142 4.62481 90.9374 4.81123 90.633 4.94056C90.3219 5.07495 89.9865 5.1437 89.6477 5.1425ZM87.521 6.48499H91.774V23.6307H87.521V6.48499ZM93.7294 15.0577C93.7294 13.8076 93.9387 12.6411 94.3573 11.5583C94.7759 10.4757 95.3618 9.53234 96.1154 8.72866C96.8689 7.92499 97.7703 7.29429 98.8196 6.83677C99.8687 6.37904 101.019 6.15007 102.269 6.15007C103.217 6.15007 104.083 6.28975 104.864 6.56866C105.645 6.8478 106.393 7.29991 107.108 7.92499V1.34466H111.361V23.6307H107.108V22.1907C106.393 22.8268 105.645 23.2817 104.864 23.5553C104.082 23.8288 103.217 23.9654 102.269 23.9654C101.019 23.9654 99.8687 23.7367 98.8196 23.2789C97.7703 22.8214 96.8689 22.1907 96.1154 21.387C95.3618 20.5834 94.7759 19.64 94.3573 18.5572C93.9387 17.4746 93.7294 16.3081 93.7294 15.0577ZM102.821 19.9637C103.156 19.9637 103.508 19.9276 103.876 19.8549C104.244 19.7823 104.615 19.6595 104.99 19.4865C105.364 19.3135 105.729 19.082 106.086 18.7916C106.443 18.5014 106.784 18.1442 107.108 17.72V12.3955C106.784 11.9715 106.443 11.6171 106.086 11.3323C105.729 11.0478 105.364 10.816 104.99 10.6374C104.615 10.4588 104.244 10.3332 103.876 10.2608C103.529 10.1904 103.176 10.1539 102.821 10.1518C102.163 10.1518 101.546 10.2746 100.971 10.5202C100.396 10.7659 99.8966 11.1092 99.4725 11.5501C99.0483 11.9909 98.7162 12.5101 98.4762 13.1073C98.2362 13.7044 98.1162 14.3546 98.1162 15.0577C98.1162 15.7611 98.2362 16.4113 98.4762 17.0084C98.7162 17.6056 99.0483 18.1248 99.4725 18.5656C99.8968 19.0067 100.396 19.3499 100.971 19.5955C101.546 19.8409 102.163 19.9637 102.821 19.9637ZM67.1774 10.3313C64.3273 10.3313 63.0704 11.8017 63.0704 13.8859V23.6307H58.8174V14.003C58.8412 9.98834 61.1603 6.04153 67.1774 6.04153" fill="#77C159"/>
</g>
<defs>
<clipPath id="clip0_521_5789">
<rect width="110.71" height="24" fill="white" transform="translate(0.709961)"/>
</clipPath>
</defs>
</svg>
