<?xml version="1.0" encoding="utf-8"?>
<!-- Generator: Adobe Illustrator 20.1.0, SVG Export Plug-In . SVG Version: 6.00 Build 0)  -->
<svg version="1.1" xmlns="http://www.w3.org/2000/svg" xmlns:xlink="http://www.w3.org/1999/xlink" x="0px" y="0px"
	 viewBox="0 0 686.4 231.2" style="enable-background:new 0 0 686.4 231.2;" xml:space="preserve">
<style type="text/css">
	.st0{display:none;}
	.st1{display:inline;}
	.st2{fill:#81A0F9;}
	.st3{fill:#FFFFFF;}
	.st4{fill:#343436;}
	.st5{fill:#87A0FF;}
	.st6{display:inline;fill:none;stroke:#424242;stroke-width:25;stroke-linecap:round;stroke-linejoin:round;stroke-miterlimit:10;}
	.st7{fill:none;stroke:#424242;stroke-width:25;stroke-linecap:round;stroke-linejoin:round;stroke-miterlimit:10;}
	.st8{display:inline;fill:#81A0F9;}
</style>
<g id="Icon_Negative" class="st0">
	<g class="st1">
		<path class="st2" d="M456.6,0.4c-18.3-12.3-41.8-22.5-69.7-30.3c-40.1-11.2-83.2-15.9-97.4-15.9c-10.1,0-33.8,0-58.7,12.9
			c-35.8,18.5-57.2,55.4-57.2,98.7c0,38.2,10.3,82.3,27.6,118.1c16.6,34.3,38.7,59.8,65.8,75.6c25.1,14.7,49,17.8,64.7,17.8
			c32.7,0,82.1-12.3,131.4-71.2c3.2-3.8,14.5-17.6,25.3-35.5c16.5-27.1,24.5-50.7,24.5-72.2C512.8,75.8,505.5,33.2,456.6,0.4z"/>
		<path class="st3" d="M436.8,64.3l-27.4,109.5c-0.1,0.5-0.3,0.9-0.4,1.4c-3.7,10.2-13.5,17-24.3,17c-11.4,0-21.6-7.6-24.8-18.5
			c-0.1-0.2-0.1-0.4-0.2-0.6l-20.2-81.5c-0.3-1-1.2-1.7-2.2-1.7c-1.1,0-2,0.7-2.3,1.7l-20.5,82.2c-0.1,0.5-0.3,0.9-0.4,1.4
			c-3.7,10.2-13.5,17-24.3,17c-11.4,0-21.6-7.6-24.8-18.5c-0.1-0.2-0.1-0.4-0.2-0.6L237.6,64.2c-1.8-7.4,2.7-14.9,10-16.7
			c7.4-1.8,14.9,2.7,16.7,10l23.1,92.4c0.3,1,1.2,1.7,2.2,1.7c1.1,0,2-0.7,2.3-1.7L313.2,65c0.1-0.5,0.3-0.9,0.4-1.4
			c3.6-9.9,13.1-16.5,23.6-16.5c11.1,0,21,7.4,24.1,18c0.1,0.2,0.1,0.4,0.2,0.6l20.9,84.2c0.3,1,1.2,1.7,2.2,1.7
			c1.1,0,2-0.7,2.3-1.7L410,57.6c1.9-7.4,9.3-11.9,16.7-10C434.1,49.4,438.6,56.9,436.8,64.3z"/>
	</g>
</g>
<g id="Full_Round">
	<g>
		<path class="st4" d="M487.9,184.5c-35.9,0-52.1-16.4-53.9-18.3c-2.3-2.5-3.5-5.7-3.5-9v-144c0-7.3,5.9-13.3,13.3-13.3
			c7.3,0,13.3,5.9,13.3,13.3v37.3c9.7-3.7,21.9-7.1,34.7-7.1c14.7,0,27.3,4.9,36.6,14.2c16.5,16.6,17,40.9,17,43.6v26.2
			c0,2.5-0.4,25.3-16.8,41.6C518.3,179.4,504.7,184.5,487.9,184.5z M457,150.8c4.9,3,14.7,7.3,30.9,7.3c9.6,0,16.8-2.5,21.9-7.6
			c8.7-8.7,9-22.7,9-22.9v-26.3c0,0-0.1-9-4.1-17.4c-4.5-9.5-11.8-13.9-22.9-13.9c-13.7,0-27.2,5.7-34.7,9.6V150.8z"/>
		<path class="st4" d="M678.4,46.2c-6.7-2.9-14.5,0.2-17.4,7c-1.2,2.8-20.9,48.8-34.9,81.9c-0.3,0.8-1.1,1.4-2.1,1.4
			c-1,0-1.8-0.6-2.1-1.5l-34.7-81.7c-2.9-6.7-10.6-9.9-17.4-7c-6.7,2.9-9.9,10.6-7,17.4L609.6,174c-5.4,11.6-13,23.8-26.1,33.1
			c-6,4.2-7.3,12.5-3.1,18.5c2.6,3.6,6.7,5.6,10.8,5.6c2.7,0,5.4-0.8,7.7-2.5c21.8-15.5,32.1-36.2,38.6-52.6
			c6.4-15.9,47.4-111.6,47.8-112.6C688.2,56.9,685.1,49.1,678.4,46.2z"/>
		<path class="st4" d="M325.8,46.2c-6.7-2.9-14.5,0.2-17.4,7c-1.2,2.8-20.9,48.8-34.9,81.9c-0.3,0.8-1.1,1.4-2.1,1.4
			c-1,0-1.8-0.6-2.1-1.5l-34.7-81.7c-2.9-6.7-10.6-9.9-17.4-7c-6.7,2.9-9.9,10.6-7,17.4L257.1,174c-5.4,11.6-13,23.8-26.1,33.1
			c-6,4.2-7.3,12.5-3.1,18.5c2.6,3.6,6.7,5.6,10.8,5.6c2.7,0,5.4-0.8,7.7-2.5c21.8-15.5,32.1-36.2,38.6-52.6
			c6.4-15.9,47.4-111.6,47.8-112.6C335.6,56.9,332.5,49.1,325.8,46.2z"/>
		<path class="st5" d="M365.5,184.3c-3.7,0-9.3-0.7-15.1-4.2c-6.3-3.7-11.5-9.7-15.4-17.7c-4-8.4-6.5-18.7-6.5-27.6
			c0-10.1,5-18.8,13.4-23.1c5.8-3,11.4-3,13.7-3c3.3,0,13.4,1.1,22.8,3.7c6.5,1.8,12,4.2,16.3,7.1c11.4,7.7,13.1,17.7,13.1,22.9
			c0,5-1.9,10.5-5.7,16.9c-2.5,4.2-5.2,7.4-5.9,8.3C384.7,181.4,373.2,184.3,365.5,184.3z"/>
		<path class="st4" d="M117.7,166.2c0,0.2,0.1,0.4,0.2,0.6c3.1,10.5,12.9,17.8,23.8,17.8c10.4,0,19.8-6.6,23.4-16.4
			c0.2-0.4,0.3-0.9,0.4-1.3l26.4-105.2c1.8-7.1-2.5-14.3-9.6-16.1c-7.1-1.8-14.3,2.5-16.1,9.6L143.8,144c-0.3,0.9-1.1,1.6-2.2,1.6
			c-1,0-1.9-0.7-2.2-1.6l-20-80.9c0-0.2-0.1-0.4-0.2-0.6c-3-10.2-12.5-17.3-23.2-17.3c-10.1,0-19.2,6.4-22.7,15.9
			c-0.2,0.4-0.3,0.9-0.4,1.3L52.6,144c-0.3,0.9-1.1,1.6-2.2,1.6c-1,0-1.9-0.7-2.2-1.6L26.1,55.2c-1.8-7.1-9-11.4-16.1-9.7
			c-7.1,1.8-11.4,9-9.7,16.1l26.1,104.6c0,0.2,0.1,0.4,0.1,0.5c3.1,10.5,12.9,17.8,23.8,17.8c10.4,0,19.8-6.6,23.4-16.4
			c0.2-0.4,0.3-0.9,0.4-1.3l19.9-79c0.3-0.9,1.1-1.6,2.2-1.6c1,0,1.9,0.7,2.2,1.6L117.7,166.2z"/>
	</g>
</g>
<g id="Raw" class="st0">
	<path class="st6" d="M406.8,85.8c0,0,21.8-14.2,45.2-14.2c38.1,0,38,42,38,42v24.8c0,0,0.1,41.2-41.6,41.2
		c-29.4,0-41.6-13.2-41.6-13.2V30.5"/>
	<g class="st1">
		<path class="st7" d="M623.1,73.1c0,0-39,91.2-45.2,106.4c-6.1,15.2-14.9,31.8-32.1,44"/>
		<line class="st7" x1="576.8" y1="182.1" x2="530.5" y2="73.1"/>
	</g>
	<g class="st1">
		<path class="st7" d="M290.6,73.1c0,0-39,91.2-45.2,106.4c-6.1,15.2-14.9,31.8-32.1,44"/>
		<line class="st7" x1="244.3" y1="182.1" x2="198" y2="73.1"/>
	</g>
	<path class="st6" d="M0.9,73.1l24.6,98.6c1.3,4.5,5.5,7.8,10.5,7.8c4.7,0,8.8-3,10.3-7.2l23.1-92.5c1.4-3.9,5.2-6.8,9.7-6.8
		c4.7,0,8.6,3.1,9.9,7.4l22.6,91.2c1.3,4.5,5.5,7.8,10.5,7.8c4.7,0,8.8-3,10.3-7.2l24.8-99.2"/>
	<path class="st8" d="M333,191.8c-3.5,0-8.7-0.7-14.3-3.9c-6-3.5-10.9-9.1-14.5-16.7c-3.8-7.9-6.1-17.6-6.1-26
		c0-9.6,4.7-17.7,12.6-21.8c5.5-2.8,10.7-2.8,12.9-2.8c3.1,0,12.6,1,21.5,3.5c6.2,1.7,11.3,4,15.4,6.7c10.8,7.2,12.4,16.6,12.4,21.6
		c0,4.7-1.8,9.9-5.4,15.9c-2.4,3.9-4.9,7-5.6,7.8C351.1,189.1,340.2,191.8,333,191.8z"/>
</g>
</svg>
