<svg version="1.2" xmlns="http://www.w3.org/2000/svg" viewBox="0 0 905 308" width="200" height="68"><defs><clipPath clipPathUnits="userSpaceOnUse" id="cp1"><path d="m-28-85h992v454h-992z"/></clipPath></defs><style>.a{mix-blend-mode:multiply;fill:none;stroke:#80cdee;stroke-linecap:round;stroke-width:56.7}.b{mix-blend-mode:multiply;fill:none;stroke:#cada4b;stroke-linecap:round;stroke-width:56.7}.c{mix-blend-mode:multiply;fill:none;stroke:#ff4d53;stroke-linecap:round;stroke-width:56.7}.d{mix-blend-mode:multiply;fill:none;stroke:#40c5b9;stroke-linecap:round;stroke-width:56.7}.e{fill:#443d31}</style><g clip-path="url(#cp1)"><path class="a" d="m198.8 198.9l141.7-56.7"/><path class="b" d="m28.7 28.8l311.8 113.4"/><path class="c" d="m85.4 170.6l255.1-28.4"/><path class="d" d="m425.5 279.4l-85-137.2"/><path fill-rule="evenodd" class="e" d="m439.2 137.9h25v11.9h-25v9.8h28.6v12.2h-42.6v-56.4h42.6v12.2h-28.6zm118.4 33.9h-41.8v-56.4h14v44.1h27.8zm65.2-56.4c14.7 0 23.9 8 23.9 20.6 0 13.2-9.7 21.4-25 21.4h-7.6v14.4h-14v-56.4zm-0.3 29.8c6.2 0 10.2-3.6 10.2-9.2 0-5-4-8.3-10.2-8.3h-8.4v17.5zm82.5 26.6h-14v-56.4h14zm74-56.4c17.8 0 30.5 11.6 30.5 28.1 0 16.7-12.7 28.3-30.5 28.3h-22.6v-56.4zm0 43.8c9.2 0 16.2-6.8 16.2-15.7 0-8.8-7-15.5-16.2-15.5h-8.6v31.2zm82.9 2.9l-3.7 9.7h-14.9l23.9-56.7h13.5l23.8 56.7h-14.9l-3.8-9.7zm11.9-30.7l-7.3 18.8h14.6z"/></g></svg>