<svg width="26" height="24" viewBox="0 0 26 24" fill="none" xmlns="http://www.w3.org/2000/svg">
<g clip-path="url(#clip0_521_5774)">
<path d="M17.9325 8.9668H24.5727C25.2001 8.9668 25.7086 9.47542 25.7086 10.1027V16.151C25.7086 18.4566 23.8396 20.3258 21.5339 20.3258H21.5142C19.2086 20.3261 17.3392 18.4573 17.3389 16.1516V9.56057C17.3389 9.4826 17.3542 9.40539 17.384 9.33335C17.4139 9.26131 17.4576 9.19585 17.5127 9.14071C17.5678 9.08558 17.6333 9.04184 17.7053 9.012C17.7774 8.98216 17.8546 8.9668 17.9325 8.9668Z" fill="#5059C9"/>
<path d="M22.4208 7.77125C23.9066 7.77125 25.1111 6.56675 25.1111 5.08094C25.1111 3.59512 23.9066 2.39062 22.4208 2.39062C20.935 2.39062 19.7305 3.59512 19.7305 5.08094C19.7305 6.56675 20.935 7.77125 22.4208 7.77125Z" fill="#5059C9"/>
<path d="M14.051 7.77198C16.1972 7.77198 17.937 6.03217 17.937 3.88599C17.937 1.73982 16.1972 0 14.051 0C11.9049 0 10.165 1.73982 10.165 3.88599C10.165 6.03217 11.9049 7.77198 14.051 7.77198Z" fill="#7B83EB"/>
<path d="M19.2323 8.9668H8.27156C7.65167 8.98216 7.16133 9.4966 7.17569 10.1165V17.0149C7.08913 20.7348 10.0321 23.8218 13.7519 23.9129C17.4717 23.8218 20.4147 20.7348 20.3282 17.0149V10.1165C20.3426 9.4966 19.8522 8.98216 19.2323 8.9668Z" fill="#7B83EB"/>
<path opacity="0.1" d="M14.3493 8.9668V18.6339C14.3479 18.8507 14.2824 19.0623 14.1612 19.242C14.0399 19.4218 13.8683 19.5617 13.6678 19.6443C13.5372 19.6995 13.3969 19.7279 13.2552 19.7279H7.7012C7.62348 19.5306 7.55178 19.3333 7.49193 19.1301C7.28267 18.4441 7.17591 17.731 7.17511 17.0137V10.1147C7.16075 9.4958 7.65029 8.98216 8.26917 8.9669H14.3492L14.3493 8.9668Z" fill="black"/>
<path opacity="0.2" d="M13.7522 8.9668V19.2318C13.7522 19.3735 13.7238 19.5137 13.6685 19.6443C13.586 19.8448 13.446 20.0164 13.2663 20.1377C13.0865 20.2589 12.875 20.3244 12.6581 20.3258H7.98315C7.88153 20.1285 7.78583 19.9312 7.70218 19.7279C7.62182 19.5325 7.55197 19.333 7.49291 19.1301C7.28364 18.4441 7.17688 17.731 7.17609 17.0137V10.1147C7.16173 9.4958 7.65127 8.98216 8.27015 8.9669H13.7523L13.7522 8.9668Z" fill="black"/>
<path opacity="0.2" d="M13.7513 8.9668V18.0361C13.7468 18.6384 13.2597 19.1256 12.6573 19.1301H7.49193C7.28266 18.4441 7.1759 17.731 7.17511 17.0137V10.1147C7.16075 9.4958 7.65029 8.98216 8.26917 8.9669H13.7513V8.9668Z" fill="black"/>
<path opacity="0.2" d="M13.1535 8.9668V18.0361C13.1489 18.6384 12.6618 19.1256 12.0595 19.1301H7.49193C7.28266 18.4441 7.1759 17.731 7.17511 17.0137V10.1147C7.16075 9.4958 7.65029 8.98216 8.26917 8.9669H13.1535V8.9668Z" fill="black"/>
<path opacity="0.1" d="M14.3498 5.87726V7.76041C14.2481 7.76643 14.1524 7.77246 14.0508 7.77246C13.9492 7.77246 13.8535 7.76643 13.7519 7.76041C13.5501 7.74703 13.35 7.71503 13.1541 7.66481C12.5572 7.52347 12.0023 7.24287 11.5347 6.84595C11.0671 6.44902 10.7001 5.94705 10.4638 5.38109C10.3813 5.18828 10.3172 4.98809 10.2725 4.7832H13.2557C13.8589 4.78551 14.3474 5.27395 14.3498 5.87726Z" fill="black"/>
<path opacity="0.2" d="M13.7519 6.47482V7.76017C13.5501 7.7468 13.35 7.71479 13.1541 7.66457C12.5573 7.52322 12.0024 7.24261 11.5348 6.84569C11.0672 6.44877 10.7002 5.94681 10.4639 5.38086H12.6578C13.2611 5.38307 13.7496 5.8716 13.7519 6.47482Z" fill="black"/>
<path opacity="0.2" d="M13.7519 6.47482V7.76017C13.5501 7.7468 13.35 7.71479 13.1541 7.66457C12.5573 7.52322 12.0024 7.24261 11.5348 6.84569C11.0672 6.44877 10.7002 5.94681 10.4639 5.38086H12.6578C13.2611 5.38307 13.7496 5.8716 13.7519 6.47482Z" fill="black"/>
<path opacity="0.2" d="M13.1542 6.47492V7.66467C12.5573 7.52333 12.0024 7.24271 11.5348 6.84577C11.0672 6.44883 10.7002 5.94684 10.4639 5.38086H12.0601C12.6634 5.38317 13.1519 5.8717 13.1542 6.47492Z" fill="black"/>
<path d="M1.09684 5.38096H12.0575C12.6628 5.38096 13.1535 5.8716 13.1535 6.47683V17.4376C13.1535 18.0428 12.6628 18.5335 12.0576 18.5335H1.09684C0.491621 18.5335 0.000976562 18.0428 0.000976562 17.4376V6.47693C0.000976562 5.8715 0.491621 5.38086 1.09684 5.38086V5.38096Z" fill="url(#paint0_linear_521_5774)"/>
<path d="M9.46129 9.55195H7.27016V15.5184H5.87425V9.55195H3.69336V8.39453H9.46129V9.55195Z" fill="white"/>
</g>
<defs>
<linearGradient id="paint0_linear_521_5774" x1="2.28583" y1="4.52462" x2="10.8687" y2="19.3896" gradientUnits="userSpaceOnUse">
<stop stop-color="#5A62C3"/>
<stop offset="0.5" stop-color="#4D55BD"/>
<stop offset="1" stop-color="#3940AB"/>
</linearGradient>
<clipPath id="clip0_521_5774">
<rect width="25.71" height="24" fill="white"/>
</clipPath>
</defs>
</svg>
