<svg width="136" height="24" viewBox="0 0 136 24" fill="none" xmlns="http://www.w3.org/2000/svg">
<g clip-path="url(#clip0_521_5794)">
<path d="M129.35 5.70383C133.137 5.70383 135.407 8.12281 135.407 12.0607C135.407 12.5222 135.358 13.0346 135.358 13.0832H126.587C126.661 14.6991 128.031 15.8761 129.677 15.8761C131.224 15.8761 132.071 15.1029 132.47 14.0065L135.233 14.8328C134.61 16.9519 132.664 18.7224 129.647 18.7224C126.282 18.7224 123.316 16.3031 123.316 12.1669C123.316 8.24255 126.208 5.70383 129.35 5.70383ZM60.1365 6.08229V13.157C60.1365 14.5282 60.8291 15.6269 62.3801 15.6269C63.8505 15.6269 64.6884 14.63 64.6884 13.2079V6.08229H68.003V16.1301C68.0046 16.8712 68.0463 17.6118 68.1278 18.3481H64.9656C64.8972 17.9107 64.864 17.4685 64.8661 17.0258C64.1923 18.1799 62.7702 18.6715 61.4753 18.6715C58.5069 18.6715 56.8127 16.5041 56.8127 13.824V6.08255H60.1365V6.08229ZM94.0979 0.300133L94.1005 16.1301C94.1005 16.9519 94.1511 17.8497 94.1994 18.3481H91.0348C90.9529 17.8787 90.9113 17.4031 90.9104 16.9266C90.361 17.9006 89.1143 18.6485 87.4686 18.6485C83.9786 18.6485 81.4857 15.9062 81.4857 12.1854C81.4857 8.59596 83.9047 5.77978 87.3694 5.77978C89.4883 5.77978 90.4855 6.65249 90.8318 7.2989V0.29987H94.0979V0.300133ZM119.967 2.41899V6.08229H122.436V9.02506H119.967V14.1587C119.967 15.2321 120.465 15.5802 121.414 15.5802C121.757 15.5842 122.1 15.551 122.436 15.4813V18.2347C121.838 18.4552 121.202 18.5572 120.564 18.5351C118.173 18.5351 116.677 17.1131 116.677 14.745V9.02506H115.073V6.08176C116.368 6.08176 116.966 5.2349 116.966 4.13855V2.41899H119.967ZM49.4101 0.674111C52.8492 0.674111 54.793 2.69143 54.793 5.43376C54.793 7.25486 53.6966 8.72519 52.2263 9.22365C53.9459 9.64826 55.3423 11.218 55.3423 13.411C55.3423 16.2778 53.1982 18.3481 49.8833 18.3481H43.0557V0.674375H49.4104L49.4101 0.674111ZM73.9861 6.08229V18.3481H70.6736V6.08176H73.9861V6.08229ZM79.9714 0.300133V18.3481H76.6567V0.300133H79.9714ZM99.9009 0.300133V10.6457L104.139 6.08229H108.478L103.566 11.2436L108.577 18.3484H104.515L101.283 13.6602L99.8982 15.1076V18.3392H96.5862V0.300133H99.9009ZM113.196 6.08229V18.3481H109.88V6.08176H113.196V6.08229ZM87.8679 8.75051C86.1736 8.75051 84.8349 9.99719 84.8349 12.1899C84.8349 14.3829 86.123 15.6799 87.8679 15.6799C89.5621 15.6799 90.885 14.385 90.885 12.1669C90.885 9.94866 89.5621 8.75051 87.8679 8.75051ZM49.2878 10.8187H46.442V15.4816H49.235C50.906 15.4816 51.9032 14.6089 51.9032 13.1871C51.9032 11.7653 51.0055 10.8187 49.288 10.8187H49.2878ZM126.656 10.8187H132.14C132.092 9.59763 131.293 8.40211 129.398 8.40211C128.719 8.37691 128.055 8.61356 127.545 9.06323C127.035 9.5129 126.716 10.1413 126.656 10.8187ZM48.8652 3.56387H46.4415V7.97723H48.8863C50.4556 7.97723 51.4045 7.10479 51.4045 5.75921C51.4045 4.41336 50.5318 3.56387 48.8652 3.56387ZM72.3193 1.41234e-06C72.7225 -5.26697e-05 73.1167 0.119044 73.4523 0.342328C73.788 0.565612 74.0502 0.883123 74.206 1.25497C74.3618 1.62681 74.4042 2.0364 74.3279 2.43228C74.2516 2.82816 74.06 3.19266 73.7772 3.47999C73.4944 3.76731 73.133 3.96465 72.7384 4.04721C72.3438 4.12977 71.9336 4.09386 71.5593 3.94399C71.185 3.79413 70.8634 3.537 70.6348 3.2049C70.4062 2.8728 70.2809 2.48056 70.2746 2.07745C70.27 1.8061 70.3195 1.53656 70.4202 1.28456C70.521 1.03257 70.6709 0.803167 70.8613 0.609763C71.0517 0.416359 71.2787 0.262827 71.5291 0.158133C71.7795 0.0534395 72.0482 -0.00031769 72.3196 1.41234e-06H72.3193ZM111.525 1.41234e-06C111.928 -6.82758e-07 112.323 0.11914 112.658 0.342456C112.994 0.565772 113.256 0.883301 113.412 1.25515C113.568 1.627 113.61 2.03658 113.534 2.43244C113.457 2.8283 113.266 3.19278 112.983 3.48008C112.7 3.76738 112.339 3.9647 111.944 4.04723C111.549 4.12977 111.139 4.09384 110.765 3.94397C110.391 3.7941 110.069 3.53696 109.841 3.20487C109.612 2.87278 109.487 2.48055 109.48 2.07745C109.476 1.8061 109.525 1.53656 109.626 1.28456C109.727 1.03257 109.877 0.803167 110.067 0.609763C110.257 0.416359 110.484 0.262827 110.735 0.158133C110.985 0.0534395 111.254 -0.00031769 111.525 1.41234e-06Z" fill="black"/>
<path d="M0.583984 0.904297L12.1253 6.55959V18.1007L0.583984 12.4457V0.904297ZM23.782 0.904297L35.2078 6.55959L23.782 12.4457V0.904297Z" fill="#30F2A2"/>
<path d="M23.7816 0.904297L12.125 6.55959V18.1007L23.7816 12.4457V0.904297ZM35.2075 6.55959L23.7816 12.4457V23.9868L35.2075 18.1007V6.55959Z" fill="#14CC80"/>
</g>
<defs>
<clipPath id="clip0_521_5794">
<rect width="135.04" height="24" fill="white" transform="translate(0.580078)"/>
</clipPath>
</defs>
</svg>
