<svg width="84" height="24" viewBox="0 0 84 24" fill="none" xmlns="http://www.w3.org/2000/svg">
<g clip-path="url(#clip0_521_5798)">
<path d="M14.9268 4.10546L15.7687 4.10611C19.4125 4.11697 22.1923 4.23227 23.9616 4.33962L24.1588 4.35178C26.0302 4.46789 27.5822 5.77346 28.0175 7.60119L28.0828 7.88027C28.4318 9.37832 28.8879 11.49 29.2016 13.6025L29.2632 14.0201C29.4763 15.4974 29.6508 17.2276 29.7871 19.1625C29.8596 20.3085 29.4824 21.4109 28.7136 22.2668C27.945 23.1227 26.886 23.616 25.7399 23.6739L25.009 23.7066C22.5365 23.8138 19.0643 23.9316 15.3717 23.935L14.7203 23.9343C11.1495 23.9246 7.80783 23.8108 5.408 23.7066L4.67713 23.6739C3.5167 23.6304 2.47221 23.1225 1.7034 22.2668C0.93459 21.4109 0.557401 20.3085 0.629888 19.1625L0.657455 18.7792C0.787672 17.0038 0.941563 15.4179 1.13827 14.0314L1.18124 13.7372C1.51481 11.4452 2.02254 9.13881 2.38513 7.60103C2.81567 5.79292 4.33918 4.48184 6.19756 4.35551L6.80356 4.31919C8.62805 4.21541 11.3793 4.11065 14.9268 4.10546ZM15.5008 6.09276H14.9444C11.0658 6.09859 8.15989 6.22573 6.38875 6.33924C5.38789 6.41173 4.57562 7.09346 4.34356 8.0653L4.25405 8.43811C3.90297 9.91914 3.46205 11.9856 3.16854 14.0274L3.12573 14.3108C2.91491 15.7437 2.75421 17.4162 2.63178 19.2931C2.58832 19.9023 2.79135 20.4825 3.19756 20.9322C3.60362 21.3819 4.15497 21.643 4.76405 21.672L5.72275 21.7148C8.15924 21.8192 11.4931 21.9298 15.0445 21.9331L15.6996 21.9324C19.6179 21.9216 23.2437 21.7834 25.653 21.672C26.2622 21.643 26.8134 21.3819 27.2195 20.9322C27.6112 20.4825 27.8143 19.9023 27.8143 19.2931L27.7867 18.9204C27.6472 17.0711 27.4815 15.4281 27.2775 14.0274C26.9439 11.808 26.4508 9.55946 26.1026 8.0653C25.8704 7.09346 25.0437 6.39713 24.0573 6.33908L23.5201 6.30665C21.7213 6.2027 18.9983 6.09811 15.5008 6.09276ZM18.4434 16.0292C18.4434 17.8135 16.9927 19.2641 15.2086 19.2641C13.4277 19.2641 11.9882 17.8281 11.9597 16.0823L11.9592 16.0292H18.4434ZM7.95556 12.011C8.47908 12.0096 8.9822 12.2139 9.35653 12.5799C9.73086 12.9459 9.94643 13.4443 9.95681 13.9677L9.95729 14.0129H5.95351C5.95351 12.9104 6.85302 12.011 7.95556 12.011ZM22.4616 12.011C22.9851 12.0096 23.4883 12.2139 23.8626 12.5799C24.2369 12.9459 24.4525 13.4443 24.4629 13.9677L24.4633 14.0129H20.4597C20.4597 12.9104 21.3591 12.011 22.4616 12.011ZM15.2086 0C15.9048 0 16.4561 0.565784 16.4561 1.24751C16.4561 1.92924 15.8903 2.48059 15.2086 2.48059C14.5267 2.48059 13.9611 1.91465 13.9611 1.24751C13.9611 0.551351 14.5265 0 15.2086 0ZM53.4756 8.68913V11.3003H55.1582V13.3166H53.49V16.5949C53.49 17.0882 53.9107 17.5088 54.4909 17.5378C54.891 17.5378 55.1829 17.4298 55.2888 17.3838L55.3324 17.3638V19.2931L55.2703 19.3142C55.0864 19.3738 54.5136 19.5396 53.8238 19.5396C52.159 19.5396 51.2326 18.6311 51.213 16.7439L51.2126 16.6819V13.3168H49.791V11.2857H50.5308C51.0279 11.2857 51.4416 10.8824 51.4586 10.2391L51.4591 10.1977V8.68913H53.4756ZM37.7799 7.60103V12.1416L37.8129 12.0991C37.9822 11.8883 38.8037 10.9665 40.2169 10.9665C42.3059 10.9665 44.1626 12.8089 44.1626 15.246C44.1626 17.683 42.3205 19.5251 40.2169 19.5251C38.6897 19.5251 37.8534 18.4487 37.7845 18.3564L37.7799 18.3501V19.3656H35.517V7.60119H37.7799V7.60103ZM70.9554 10.9521C72.6464 10.9521 73.5685 11.9218 73.7705 12.1612L73.813 12.2141L72.638 13.5632L72.6229 13.5444C72.5332 13.4364 72.0463 12.8958 71.289 12.8958C70.6217 12.8958 70.2881 13.2295 70.2881 13.5632C70.2881 14.7381 74.0741 14.1579 74.0741 16.914C74.0741 18.3501 72.8992 19.5251 70.7958 19.5251C68.6553 19.5251 67.6322 18.2888 67.4576 18.0546L67.4303 18.0165L68.6924 16.7544L68.7132 16.7814C68.8353 16.9338 69.4847 17.683 70.4621 17.683C71.2165 17.683 71.5502 17.3492 71.5502 16.9286C71.5502 15.6665 67.7641 16.2903 67.7641 13.5632C67.7641 12.3011 69.1131 10.9521 70.9554 10.9521ZM79.5284 10.9521C81.8785 10.9521 83.6482 12.7216 83.6482 15.0718L83.6473 15.1712C83.6387 15.6874 83.565 15.9821 83.5481 15.9994L83.5465 16.0002H77.5846C77.7588 16.8415 78.513 17.5959 79.7751 17.5959C81.1226 17.5959 81.87 16.7016 81.957 16.5915L81.9654 16.5804L83.1404 18.089L83.095 18.1369C82.851 18.3843 81.6297 19.5107 79.6155 19.5107C77.1784 19.5107 75.2491 17.5813 75.2491 15.2312C75.2491 12.8815 77.1784 10.9521 79.5284 10.9521ZM61.8239 11.0676L61.8891 11.0681H62.2226V13.331L62.1967 13.3229C62.121 13.3015 61.881 13.2441 61.4684 13.2441C60.309 13.2441 59.5593 13.9925 59.5395 15.378L59.539 15.4344V19.3802H57.2761V11.1405H59.539V12.1414L59.5585 12.1171C59.6885 11.9608 60.462 11.0989 61.7595 11.0682L61.8239 11.0674V11.0676ZM48.1809 11.1261V19.3656H45.9179V11.1261H48.1809ZM65.8346 11.1261V19.3656H63.5718V11.1261H65.8346ZM39.7963 12.9829C38.7083 12.9829 37.7799 13.8968 37.7799 15.2458C37.7799 16.5804 38.7083 17.5088 39.7963 17.5088C40.8844 17.5088 41.8126 16.5949 41.8126 15.2458C41.8126 13.8968 40.8842 12.9829 39.7963 12.9829ZM79.5284 12.8959C78.5451 12.8959 77.8697 13.5399 77.6125 14.3603L77.5992 14.4045H81.3708C81.2112 13.5632 80.5293 12.8959 79.5284 12.8959ZM47.0203 7.51411C47.8617 7.51411 48.3695 8.02184 48.3695 8.77622C48.3695 9.53043 47.8617 10.0382 47.0203 10.0382C46.266 10.0382 45.7583 9.53059 45.7583 8.77622C45.7583 8.02184 46.2659 7.51411 47.0203 7.51411ZM64.6598 7.51411C65.5011 7.51411 66.0088 8.02184 66.0088 8.77622C66.0088 9.53043 65.5011 10.0382 64.6596 10.0382C63.9054 10.0382 63.3977 9.53059 63.3977 8.77622C63.3977 8.02184 63.9054 7.51411 64.6598 7.51411Z" fill="#683D87"/>
</g>
<defs>
<clipPath id="clip0_521_5798">
<rect width="83.03" height="24" fill="white" transform="translate(0.620117)"/>
</clipPath>
</defs>
</svg>
