<svg width="41" height="24" viewBox="0 0 41 24" fill="none" xmlns="http://www.w3.org/2000/svg">
<g clip-path="url(#clip0_521_5791)">
<path d="M11.7767 8.6965C11.7767 9.18857 11.8301 9.58748 11.9231 9.88003C12.0412 10.2092 12.1834 10.5291 12.3485 10.8374C12.415 10.9437 12.4415 11.0501 12.4415 11.1432C12.4415 11.2761 12.3618 11.4091 12.189 11.5421L11.3513 12.1006C11.2316 12.1804 11.1119 12.2203 11.0054 12.2203C10.8726 12.2203 10.7396 12.1538 10.6065 12.0341C10.4274 11.8415 10.2671 11.6323 10.1279 11.4091C9.99493 11.1832 9.86191 10.9304 9.71571 10.6247C8.67854 11.8479 7.37532 12.4596 5.80638 12.4596C4.68952 12.4596 3.79854 12.1404 3.14693 11.5023C2.49548 10.8639 2.16309 10.0129 2.16309 8.9492C2.16309 7.81901 2.56199 6.90152 3.37313 6.21006C4.18411 5.51861 5.26128 5.17289 6.63085 5.17289C7.08293 5.17289 7.54834 5.21273 8.04026 5.27924C8.53234 5.34575 9.0376 5.4521 9.56952 5.57179V4.60112C9.56952 3.59046 9.35665 2.88583 8.94442 2.47359C8.51901 2.06136 7.80089 1.86183 6.77705 1.86183C6.31164 1.86183 5.83305 1.91516 5.34097 2.03485C4.84905 2.15438 4.3703 2.30073 3.90489 2.48693C3.69218 2.57995 3.53265 2.63312 3.43948 2.65979C3.34646 2.68646 3.27995 2.69963 3.22677 2.69963C3.04058 2.69963 2.94756 2.56661 2.94756 2.2874V1.63579C2.94756 1.42308 2.97422 1.26355 3.04058 1.17053C3.10709 1.07736 3.22677 0.984339 3.41297 0.891319C3.87838 0.651946 4.43681 0.452417 5.08826 0.292888C5.74003 0.120025 6.43148 0.0403385 7.16277 0.0403385C8.7452 0.0403385 9.90207 0.39924 10.6467 1.11736C11.378 1.83532 11.7504 2.92567 11.7504 4.38842V8.6965H11.777H11.7767ZM6.37815 10.7177C6.81705 10.7177 7.26913 10.638 7.74771 10.4783C8.22646 10.3188 8.65203 10.0262 9.01093 9.62732C9.22379 9.37477 9.38332 9.09555 9.46301 8.77634C9.54285 8.45728 9.59603 8.07155 9.59603 7.61948V7.06105C9.19278 6.9629 8.78435 6.88743 8.37266 6.83501C7.9581 6.78235 7.54066 6.75569 7.12277 6.75516C6.23179 6.75516 5.58034 6.92803 5.1416 7.28708C4.70269 7.64614 4.48999 8.1514 4.48999 8.81618C4.48999 9.44112 4.64952 9.90653 4.98191 10.2257C5.30113 10.5581 5.76654 10.7177 6.37815 10.7177ZM17.0556 12.1538C16.8163 12.1538 16.6567 12.1139 16.5504 12.0207C16.444 11.941 16.3509 11.7548 16.2712 11.5023L13.1465 1.22371C13.0665 0.957672 13.0266 0.784809 13.0266 0.69179C13.0266 0.479084 13.133 0.359241 13.3458 0.359241H14.6489C14.9014 0.359241 15.0745 0.39924 15.1675 0.49226C15.2738 0.572103 15.3537 0.758299 15.4334 1.01085L17.6672 9.81352L19.7416 1.01085C19.8081 0.744966 19.888 0.572103 19.9941 0.49226C20.1007 0.412574 20.2869 0.359397 20.5262 0.359397H21.5899C21.8425 0.359397 22.0155 0.39924 22.1217 0.49226C22.2282 0.572103 22.3212 0.758299 22.3744 1.01085L24.4754 9.91987L26.7756 1.01085C26.8553 0.744966 26.9485 0.572103 27.0415 0.49226C27.1479 0.412574 27.3207 0.359397 27.5601 0.359397H28.7967C29.0095 0.359397 29.1292 0.46575 29.1292 0.69179C29.1292 0.758299 29.1159 0.824809 29.1025 0.904495C29.0892 0.984339 29.0627 1.09069 29.0095 1.23704L25.8048 11.5155C25.7251 11.7815 25.6321 11.9544 25.5256 12.0341C25.4192 12.1139 25.2464 12.1671 25.0205 12.1671H23.877C23.6243 12.1671 23.4514 12.1272 23.3449 12.0341C23.2385 11.941 23.1455 11.7682 23.0923 11.5023L21.0312 2.92567L18.9835 11.4888C18.9171 11.7548 18.8373 11.9277 18.7309 12.0207C18.6246 12.1139 18.4384 12.1538 18.1992 12.1538H17.0555H17.0556ZM34.1422 12.5128C33.4508 12.5128 32.7593 12.433 32.0945 12.2734C31.4296 12.1139 30.9112 11.9409 30.5654 11.7417C30.3526 11.6218 30.2062 11.489 30.1532 11.3693C30.1014 11.2519 30.0742 11.1252 30.0734 10.9969V10.3188C30.0734 10.0396 30.1797 9.90654 30.3792 9.90654C30.4607 9.90684 30.5415 9.92035 30.6186 9.94654C30.6983 9.9732 30.818 10.0262 30.951 10.0794C31.4207 10.286 31.9109 10.442 32.4136 10.5448C32.9345 10.6505 33.4646 10.704 33.996 10.7043C34.8337 10.7043 35.4853 10.5581 35.9374 10.2656C36.3894 9.97305 36.6288 9.54763 36.6288 9.00238C36.6288 8.63014 36.5091 8.32426 36.2698 8.07155C36.0304 7.81901 35.5783 7.59297 34.9269 7.3801L32.9987 6.78183C32.028 6.47595 31.3101 6.02387 30.8712 5.42544C30.4324 4.84034 30.2064 4.18889 30.2064 3.49744C30.2064 2.93901 30.3261 2.44693 30.5654 2.02136C30.8047 1.59595 31.1239 1.22371 31.5228 0.931162C31.9217 0.62528 32.3738 0.39924 32.9057 0.239711C33.4374 0.0801817 33.9959 0.0136719 34.581 0.0136719C34.8735 0.0136719 35.1794 0.0270052 35.472 0.0668483C35.7778 0.106691 36.057 0.159868 36.3363 0.213044C36.6021 0.279554 36.8549 0.346064 37.0942 0.425907C37.3336 0.505593 37.5196 0.585437 37.6527 0.665123C37.8389 0.771633 37.9717 0.877986 38.0516 0.997672C38.1314 1.10402 38.1712 1.25022 38.1712 1.43642V2.06136C38.1712 2.34057 38.0649 2.48693 37.8654 2.48693C37.759 2.48693 37.5861 2.43359 37.3603 2.32724C36.6021 1.98152 35.7512 1.80865 34.8072 1.80865C34.0492 1.80865 33.4508 1.92834 33.0385 2.18104C32.6265 2.43359 32.4136 2.81932 32.4136 3.36442C32.4136 3.73681 32.5466 4.05587 32.8125 4.30857C33.0785 4.56112 33.5705 4.81383 34.2752 5.03987L36.1634 5.6383C37.1207 5.94418 37.8122 6.36959 38.2244 6.91469C38.6367 7.45995 38.8362 8.08489 38.8362 8.77634C38.8362 9.3481 38.7163 9.86669 38.4903 10.3188C38.2511 10.7708 37.9319 11.1698 37.5196 11.489C37.1074 11.8214 36.6155 12.0607 36.0437 12.2336C35.4453 12.4198 34.8203 12.5128 34.1422 12.5128Z" fill="#252F3E"/>
<path d="M36.6561 18.9745C32.2815 22.2058 25.9254 23.9211 20.4604 23.9211C12.8013 23.9211 5.90029 21.0887 0.687899 16.3816C0.275663 16.0094 0.647899 15.5041 1.13982 15.7965C6.77778 19.0677 13.7321 21.0489 20.9259 21.0489C25.7792 21.0489 31.1113 20.0384 36.0179 17.964C36.7492 17.6315 37.3742 18.4428 36.6561 18.9745ZM38.4779 16.9002C37.9194 16.1822 34.7812 16.5545 33.3585 16.7273C32.9329 16.7807 32.8664 16.4083 33.2521 16.1291C35.7519 14.3738 39.8608 14.8792 40.3393 15.4641C40.8181 16.0625 40.2063 20.1713 37.8661 22.1393C37.5072 22.4451 37.1615 22.2856 37.321 21.8867C37.8528 20.5702 39.0363 17.605 38.4779 16.9002Z" fill="#FF9900"/>
</g>
<defs>
<clipPath id="clip0_521_5791">
<rect width="40.16" height="24" fill="white" transform="translate(0.419922)"/>
</clipPath>
</defs>
</svg>
