<svg width="79" height="24" viewBox="0 0 79 24" fill="none" xmlns="http://www.w3.org/2000/svg">
<g clip-path="url(#clip0_521_5804)">
<path d="M73.2327 22.276C70.1484 25.1719 62.7968 24.5561 62.7968 18.844C62.7968 12.8244 69.1851 12.3598 73.1945 12.7255V12.7043C73.0471 9.55521 67.7435 10.3309 65.626 12.0018C64.9638 11.0642 63.8404 9.3866 63.3804 8.6293C65.8171 6.77152 71.7691 5.41682 74.8139 7.12647C75.9198 7.74558 76.8405 8.64842 77.4812 9.74192C78.1219 10.8354 78.4594 12.08 78.4589 13.3474V23.5562H73.3744L73.2328 22.276H73.2327ZM53.2283 22.137C47.8184 26.376 42.2708 22.351 41.5794 16.8983C40.7185 10.1064 46.1685 4.71271 53.1849 7.06349V0H58.5334V23.5578H53.3863L53.2283 22.137ZM53.1844 16.4157V11.6982C50.8667 10.6566 47.2882 10.6164 46.9628 15.3525C46.6291 20.2033 52.7666 20.6963 53.1844 16.4152V16.4157ZM32.6539 8.59903C34.2198 6.7093 36.4465 6.16464 39.3341 6.96535C38.8992 9.3279 38.6005 10.9241 38.4379 11.7536C34.2761 11.0372 32.7436 12.2749 32.7257 15.8642V23.5816H27.3789V6.89549H32.5271L32.6537 8.59903H32.6539ZM13.9727 8.20189C12.4966 9.27443 11.3958 10.7847 10.8266 12.5182C9.33595 11.4361 7.2504 11.7669 6.16795 13.2572C5.91059 13.6116 5.72558 14.0132 5.62349 14.4391C5.52139 14.865 5.50421 15.3069 5.57294 15.7394C5.64166 16.172 5.79493 16.5867 6.02401 16.96C6.25308 17.3333 6.55346 17.6578 6.90798 17.915C7.47748 18.3288 8.16334 18.5516 8.86727 18.5516C9.5712 18.5516 10.2571 18.3288 10.8266 17.915C11.3957 19.6486 12.4965 21.1589 13.9725 22.2315C13.0514 22.902 12.0071 23.3844 10.8995 23.6513C9.79182 23.9182 8.64244 23.9643 7.51698 23.7869C6.39152 23.6095 5.31202 23.2122 4.34013 22.6176C3.36825 22.023 2.52301 21.2427 1.85269 20.3214C1.18218 19.4003 0.699689 18.356 0.432786 17.2484C0.165884 16.1407 0.119795 14.9913 0.297152 13.8658C0.474509 12.7403 0.871837 11.6608 1.46644 10.6889C2.06105 9.71701 2.84129 8.87176 3.7626 8.20143C6.80571 5.98701 10.9296 5.98701 13.9725 8.20143L13.9727 8.20189ZM73.1741 16.2841C71.578 16.3032 67.9776 15.7316 68.06 18.3559C68.1425 20.9803 73.1741 20.5209 73.1741 17.4868V16.2859V16.2841ZM19.0864 18.5554C17.2443 18.5508 15.755 17.0539 15.7594 15.2122C15.764 13.3704 17.2601 11.8812 19.1017 11.8852C20.9406 11.8895 22.4291 13.3811 22.4293 15.2201C22.4259 17.0637 20.9296 18.5563 19.0861 18.5551" fill="#E0081C"/>
</g>
<defs>
<clipPath id="clip0_521_5804">
<rect width="78.27" height="24" fill="white" transform="translate(0.19043)"/>
</clipPath>
</defs>
</svg>
