<svg width="146" height="50" viewBox="0 0 146 50" xmlns="http://www.w3.org/2000/svg" xmlns:xlink="http://www.w3.org/1999/xlink"><defs><path id="a" d="M0 0h5.344v19.959H0z"/><path id="c" d="M0 0h2.672v9.972H0z"/><path id="e" d="M0 0h2.672v9.972H0z"/><path id="g" d="M0 0h9.98v17.286H0z"/><path id="i" d="M0 0h9.98v17.286H0z"/><path id="k" d="M0 0h17.285v9.979H0z"/><path id="m" d="M0 0h17.285v9.979H0z"/><path id="o" d="M0 0h13.667v18.355H0z"/></defs><g fill="none" fill-rule="evenodd"><path d="M39.935 20.467c0 11.028-8.94 19.968-19.968 19.968C8.94 40.435 0 31.495 0 20.467S8.94.5 19.967.5c11.028 0 19.968 8.94 19.968 19.967" fill="#FFF"/><path d="M19.967 5.852a20.046 20.046 0 019.982-2.675A19.86 19.86 0 0019.967.5c-3.637 0-7.044.977-9.98 2.677 3.5.003 6.947.927 9.98 2.675" fill="#437ABE"/><path d="M2.679 10.485a19.866 19.866 0 019.98 2.672 19.874 19.874 0 017.309-7.305 20.066 20.066 0 00-9.982-2.675 20.051 20.051 0 00-7.307 7.308" fill="#99ADDA"/><path d="M12.66 13.158a19.867 19.867 0 00-9.981-2.673 19.868 19.868 0 00-2.676 9.98c3.639 0 7.047.978 9.985 2.679a19.864 19.864 0 012.672-9.986" fill="#CDD5EE"/><path d="M12.666 33.13a20.045 20.045 0 01-2.679-9.986 19.852 19.852 0 00-9.985-2.679c0 3.64.978 7.047 2.68 9.984 3.501.004 6.951.931 9.984 2.68" fill="#FFF"/><path d="M19.967 5.852a19.855 19.855 0 017.308 7.306 19.848 19.848 0 019.981-2.672 20.054 20.054 0 00-7.307-7.309c-3.5.003-6.949.927-9.982 2.675" fill="#99ADDA"/><path d="M39.932 20.465c0-3.638-.977-7.043-2.675-9.98a19.875 19.875 0 00-9.981 2.671 19.874 19.874 0 012.672 9.988 19.872 19.872 0 019.984-2.679m-19.965.005a19.873 19.873 0 017.308-7.313 19.849 19.849 0 00-7.308-7.304 19.864 19.864 0 00-7.308 7.304 19.865 19.865 0 017.308 7.313" fill="#CDD5EE"/><path d="M17.295 30.456a20.05 20.05 0 012.672-9.987 19.87 19.87 0 00-7.308-7.312 19.87 19.87 0 00-2.672 9.987 20.042 20.042 0 017.308 7.312m2.672-9.986a20.034 20.034 0 012.672 9.986 20.064 20.064 0 017.308-7.312 19.87 19.87 0 00-2.672-9.987 19.873 19.873 0 00-7.308 7.313m7.301 12.66a20.045 20.045 0 019.986-2.68 19.865 19.865 0 002.678-9.985c-3.639 0-7.047.977-9.985 2.68a20.06 20.06 0 01-2.678 9.984" fill="#FFF"/><g transform="translate(17.295 20.476)"><mask id="b" fill="#fff"><use xlink:href="#a"/></mask><path d="M2.672 0A20.061 20.061 0 000 9.987a19.869 19.869 0 012.672 9.973c0-3.634.976-7.038 2.672-9.973A20.04 20.04 0 002.672 0" fill="#FBBA00" mask="url(#b)"/></g><g transform="translate(17.295 30.463)"><mask id="d" fill="#fff"><use xlink:href="#c"/></mask><path d="M2.672 9.974C2.672 6.339 1.696 2.936 0 0a19.861 19.861 0 002.672 9.974" fill="#FBBA00" mask="url(#d)"/></g><g transform="translate(19.967 30.463)"><mask id="f" fill="#fff"><use xlink:href="#e"/></mask><path d="M0 9.974A19.861 19.861 0 002.672 0 19.873 19.873 0 000 9.974" fill="#FBBA00" mask="url(#f)"/></g><g transform="translate(19.968 23.144)"><mask id="h" fill="#fff"><use xlink:href="#g"/></mask><path d="M2.672 7.312A19.869 19.869 0 000 17.285v.001-.001a19.865 19.865 0 007.301-7.3v-.001A20.054 20.054 0 009.98 0a20.05 20.05 0 00-7.308 7.312" fill="#EE7203" mask="url(#h)"/></g><g transform="translate(9.987 23.144)"><mask id="j" fill="#fff"><use xlink:href="#i"/></mask><path d="M9.98 17.286c0-3.635-.976-7.038-2.672-9.974A20.065 20.065 0 000 0c.004 3.502.93 6.951 2.679 9.984a19.863 19.863 0 007.301 7.302" fill="#EE7203" mask="url(#j)"/></g><g transform="translate(19.968 30.461)"><mask id="l" fill="#fff"><use xlink:href="#k"/></mask><path d="M7.301 2.678A19.853 19.853 0 000 9.98c3.634 0 7.038-.977 9.973-2.672a20.055 20.055 0 007.313-7.309c-3.502.004-6.951.93-9.985 2.68" fill="#D20A11" mask="url(#l)"/></g><g transform="translate(2.682 30.461)"><mask id="n" fill="#fff"><use xlink:href="#m"/></mask><path d="M17.286 9.979a19.868 19.868 0 00-7.301-7.301A20.039 20.039 0 000 0a20.06 20.06 0 007.312 7.306 19.863 19.863 0 009.974 2.673" fill="#D20A11" mask="url(#n)"/></g><path d="M97.609 22.004s.436-3.735 4.918-3.735c4.086 0 4.365 3.735 4.365 3.735h-9.283zm13.13 1.527c0-6.244-3.698-8.89-8.311-8.89-5.568 0-8.875 4.215-8.875 9.07 0 6.63 4.906 9.264 9.5 9.264 4.624 0 7.378-2.623 7.378-2.623l-1.634-2.695s-2.178 1.888-5.762 1.854c-3.474-.033-5.426-2.697-5.558-4.453h13.166s.097-.307.097-1.527zm-43.072-1.527s.436-3.735 4.918-3.735c4.086 0 4.365 3.735 4.365 3.735h-9.283zm13.13 1.527c0-6.244-3.698-8.89-8.311-8.89-5.57 0-8.876 4.215-8.876 9.07 0 6.63 4.907 9.264 9.5 9.264 4.624 0 7.379-2.623 7.379-2.623l-1.634-2.695s-2.178 1.888-5.763 1.854c-3.473-.033-5.425-2.697-5.557-4.453H80.7s.097-.307.097-1.527zm2.373 9.249h3.978V22.653c0-2.718 1.784-4.42 4.15-4.42.688 0 1.699.233 1.699.233l1.126-3.425s-1.202-.337-2.19-.337-3.408.269-4.844 2.436c0 0-.57-2.3-2.808-2.3h-1.11v17.94z" fill="#D20A11"/><g transform="translate(131.722 14.644)"><mask id="p" fill="#fff"><use xlink:href="#o"/></mask><path d="M11.478 4.785l1.5-2.667S10.563 0 6.899 0C3.235 0 .455 1.916.455 5.219c0 5.766 9.331 4.701 9.331 7.899 0 1.321-1.678 1.864-3.286 1.756-2.542-.169-4.735-1.617-4.735-1.617L0 16.124s2.899 2.013 6.489 2.216c3.791.215 7.178-1.912 7.178-5.1 0-3.623-3.939-4.83-5.439-5.4-1.501-.57-4.01-1.264-4.01-2.79s2.053-1.702 2.823-1.702c.771 0 2.248.077 4.437 1.437" fill="#D20A11" mask="url(#p)"/></g><path d="M67.364 8.81v-.869h-19.51v3.676h7.667v21.164h4.181V11.617h4.854a2.807 2.807 0 002.808-2.807m54.371 20.547c-3.396 0-5.167-2.725-5.167-5.545s1.771-5.544 5.167-5.544 5.167 2.724 5.167 5.544c0 2.82-1.77 5.545-5.167 5.545m0-14.712c-3.854 0-9.294 2.4-9.294 9.167 0 6.766 5.44 9.168 9.294 9.168s9.294-2.402 9.294-9.168c0-6.766-5.44-9.167-9.294-9.167" fill="#D20A11"/><path d="M53.6 40h7.86v1.513h-3.087V50h-1.7v-8.487H53.6V40zm9.133 0h7.86v1.513h-3.087V50h-1.7v-8.487h-3.073V40zm11.259 8.57h1.672c.662 0 1.205-.09 1.626-.272.42-.181.752-.434.992-.757.24-.321.403-.7.489-1.134.087-.434.13-.903.13-1.407s-.043-.973-.13-1.408a2.76 2.76 0 00-.489-1.133c-.24-.324-.572-.575-.992-.758-.421-.18-.965-.27-1.626-.27h-1.672v7.14zM72.293 40h4.025c.743 0 1.386.131 1.93.392.544.262.987.62 1.333 1.072.344.453.6.983.768 1.589.167.607.251 1.256.251 1.947 0 .692-.084 1.339-.251 1.947a4.655 4.655 0 01-.768 1.589c-.346.452-.79.81-1.334 1.07-.543.263-1.186.393-1.93.393h-4.024V40z" fill="#F47920"/></g></svg>