<svg width="81" height="24" viewBox="0 0 81 24" fill="none" xmlns="http://www.w3.org/2000/svg">
<g clip-path="url(#clip0_521_5806)">
<path d="M78.1433 3.26634C77.9918 3.26636 77.8417 3.23653 77.7017 3.17855C77.5617 3.12057 77.4345 3.03557 77.3273 2.92842C77.2202 2.82127 77.1352 2.69406 77.0772 2.55406C77.0192 2.41406 76.9894 2.264 76.9894 2.11247C76.9893 1.96092 77.0191 1.81083 77.0771 1.6708C77.135 1.53077 77.22 1.40354 77.3272 1.29638C77.4344 1.18921 77.5616 1.10422 77.7016 1.04626C77.8417 0.988305 77.9917 0.958515 78.1433 0.958597C78.4493 0.958597 78.7428 1.08017 78.9592 1.29656C79.1756 1.51295 79.2972 1.80644 79.2972 2.11247C79.2972 2.41849 79.1756 2.71198 78.9592 2.92838C78.7428 3.14477 78.4493 3.26634 78.1433 3.26634ZM66.6838 22.9811C66.5322 22.9811 66.3822 22.9513 66.2422 22.8933C66.1022 22.8353 65.975 22.7503 65.8678 22.6432C65.7606 22.536 65.6757 22.4088 65.6177 22.2688C65.5597 22.1288 65.5299 21.9788 65.5299 21.8272C65.5298 21.6757 65.5596 21.5256 65.6176 21.3856C65.6755 21.2455 65.7605 21.1183 65.8677 21.0111C65.9748 20.904 66.1021 20.819 66.2421 20.761C66.3821 20.7031 66.5322 20.6733 66.6838 20.6734C66.8352 20.6734 66.9852 20.7032 67.1252 20.7612C67.2651 20.8192 67.3923 20.9042 67.4993 21.0114C67.6064 21.1185 67.6913 21.2457 67.7492 21.3857C67.8071 21.5257 67.8368 21.6757 67.8367 21.8272C67.8367 22.464 67.3207 22.9811 66.6838 22.9811ZM78.1433 0C76.9768 0 76.031 0.945818 76.031 2.11247C76.031 2.36135 76.0936 2.59309 76.1728 2.8147L66.2631 19.7992C65.3055 20.0001 64.5713 20.8096 64.5713 21.8272C64.5713 22.9937 65.5173 23.9395 66.6838 23.9395C67.8495 23.9395 68.7953 22.9937 68.7953 21.8272C68.7953 21.5928 68.7325 21.3784 68.6625 21.1675L78.6222 4.12753C79.5507 3.90499 80.2558 3.10909 80.2558 2.11247C80.2558 0.945818 79.3099 0 78.1433 0Z" fill="#0C544C"/>
<path d="M69.5006 3.26634C69.3491 3.26636 69.1991 3.23653 69.0591 3.17855C68.9191 3.12057 68.7918 3.03557 68.6847 2.92842C68.5775 2.82127 68.4925 2.69406 68.4346 2.55406C68.3766 2.41406 68.3468 2.264 68.3468 2.11247C68.3467 1.96092 68.3765 1.81083 68.4344 1.6708C68.4924 1.53077 68.5774 1.40354 68.6846 1.29638C68.7917 1.18921 68.9189 1.10422 69.059 1.04626C69.199 0.988305 69.3491 0.958515 69.5006 0.958597C69.6521 0.958597 69.8021 0.98845 69.9421 1.04645C70.082 1.10445 70.2092 1.18946 70.3162 1.29661C70.4233 1.40377 70.5082 1.53098 70.5661 1.67097C70.624 1.81096 70.6537 1.96098 70.6536 2.11247C70.6536 2.74925 70.1374 3.26634 69.5006 3.26634ZM58.04 22.9811C57.734 22.9811 57.4405 22.8595 57.2241 22.6431C57.0077 22.4267 56.8862 22.1332 56.8862 21.8272C56.8862 21.5212 57.0077 21.2277 57.2241 21.0113C57.4405 20.7949 57.734 20.6734 58.04 20.6734C58.1916 20.6733 58.3417 20.7031 58.4817 20.761C58.6217 20.819 58.749 20.904 58.8561 21.0111C58.9633 21.1183 59.0483 21.2455 59.1062 21.3856C59.1642 21.5256 59.194 21.6757 59.1939 21.8272C59.1939 21.9788 59.1641 22.1288 59.1061 22.2688C59.0481 22.4088 58.9631 22.536 58.856 22.6432C58.7488 22.7503 58.6216 22.8353 58.4816 22.8933C58.3416 22.9513 58.1916 22.9811 58.04 22.9811ZM69.5006 0C68.3331 0 67.3882 0.945818 67.3882 2.11247C67.3882 2.36135 67.4508 2.59309 67.53 2.8147L57.6203 19.7992C56.6619 20.0001 55.9277 20.8096 55.9277 21.8272C55.9277 22.9937 56.8734 23.9395 58.04 23.9395C59.2067 23.9395 60.1525 22.9937 60.1525 21.8272C60.1525 21.5928 60.0897 21.3784 60.0197 21.1675L69.9794 4.12753C70.9079 3.90499 71.613 3.10909 71.613 2.11247C71.613 0.945818 70.6662 0 69.5006 0ZM53.7171 13.2204C54.6503 13.2204 55.4161 13.8346 55.696 14.6732C55.7659 14.8841 55.8295 15.0983 55.8295 15.3329C55.8295 16.4986 54.8837 17.4452 53.7171 17.4452C52.5506 17.4452 51.6047 16.4984 51.6047 15.3329C51.6047 14.3152 52.3388 13.5058 53.2964 13.3049C53.4373 13.2759 53.5681 13.2204 53.7172 13.2204H53.7171ZM53.7171 14.1789C53.5655 14.1788 53.4154 14.2087 53.2754 14.2667C53.1354 14.3247 53.0082 14.4097 52.9011 14.5168C52.7939 14.624 52.7089 14.7512 52.6509 14.8912C52.593 15.0313 52.5631 15.1813 52.5632 15.3329C52.5632 15.9697 53.0803 16.4858 53.7171 16.4858C54.354 16.4858 54.8709 15.9697 54.8709 15.3329C54.871 15.1813 54.8411 15.0313 54.7831 14.8913C54.7252 14.7513 54.6402 14.6241 54.533 14.5169C54.4259 14.4098 54.2987 14.3248 54.1586 14.2668C54.0186 14.2088 53.8686 14.179 53.7171 14.179V14.1789ZM53.7171 5.83932C54.6493 5.83932 55.4161 6.45335 55.696 7.2921C55.7659 7.50281 55.8295 7.71818 55.8295 7.95164C55.8295 9.11829 54.8837 10.0641 53.7171 10.0641C52.5506 10.0641 51.6047 9.11829 51.6047 7.95164C51.6047 6.93397 52.3388 6.12452 53.2964 5.92473C53.4373 5.89465 53.5681 5.83932 53.7172 5.83932H53.7171ZM53.7171 6.79777C53.5655 6.79775 53.4155 6.82758 53.2755 6.88556C53.1355 6.94354 53.0083 7.02853 52.9011 7.13568C52.794 7.24283 52.709 7.37004 52.651 7.51005C52.593 7.65005 52.5632 7.8001 52.5632 7.95164C52.5632 8.25766 52.6848 8.55115 52.9012 8.76755C53.1175 8.98394 53.411 9.10551 53.7171 9.10551C54.0231 9.10551 54.3166 8.98394 54.533 8.76755C54.7494 8.55115 54.8709 8.25766 54.8709 7.95164C54.8708 7.64565 54.7492 7.35223 54.5328 7.13586C54.3165 6.9195 54.023 6.79789 53.7171 6.79777ZM11.8022 8.86395C12.6845 8.86987 13.6089 9.07699 13.6089 10.205C13.6089 11.3788 12.5476 11.5496 11.7627 11.5496H7.03815C6.50392 11.5496 5.97343 11.8294 5.49732 12.2182L3.87654 13.5884C3.45483 13.9264 3.14953 14.2061 3.14953 14.7369V18.0658C3.14953 18.5964 3.45498 18.8762 3.87639 19.2106L5.49717 20.5806C5.97343 20.9732 6.50392 21.2529 7.03815 21.2529H11.7627C12.5477 21.2529 13.6089 21.4202 13.6089 22.5977C13.6089 23.7424 12.6566 23.9386 11.7627 23.9386H7.36184C5.9022 23.9358 5.26044 23.8763 4.04361 22.8775L2.05924 21.2239C0.77275 20.1626 0.463867 19.3523 0.463867 17.7023V15.1002C0.463867 13.4503 0.77275 12.6399 2.05924 11.575L4.04361 9.92509C5.26044 8.92613 5.9022 8.86691 7.36184 8.86395H11.8022ZM26.812 8.86395C27.9568 8.86395 28.153 9.78701 28.153 10.7101V21.9764C28.1533 22.0434 28.1546 22.1182 28.155 22.1992V22.2817C28.1549 22.3191 28.1544 22.3574 28.1535 22.3965L28.1515 22.4557C28.1265 23.1126 27.9465 23.9386 26.8375 23.9386C25.6927 23.9386 25.4965 22.9864 25.4965 22.0635V21.6164L23.3159 23.0447C22.4472 23.6043 21.7205 23.9386 20.9937 23.9386H19.0093C18.2535 23.9386 17.4139 23.7134 16.5199 22.961C15.3169 21.9252 15.3425 20.7768 15.2879 19.3233L15.008 10.8773C14.979 9.89969 15.1207 8.86379 16.3491 8.86379C17.4976 8.86379 17.6356 9.84156 17.6647 10.7101L17.9444 18.9598C17.9736 19.5739 17.999 20.3045 18.2243 20.6933C18.4497 21.0859 19.1474 21.2529 19.7906 21.2529H20.6846C20.9937 21.2529 21.2734 21.1694 21.5242 21.0022L25.4673 18.5127V10.6694C25.4733 9.76005 25.6805 8.86395 26.812 8.86395ZM38.8668 8.86395C39.9026 8.86395 40.7675 9.19823 41.4944 9.92509C42.3883 10.8228 42.6972 11.7458 42.6972 12.9742C42.6972 13.8972 42.5301 14.8495 41.3817 14.8495C40.4041 14.8495 40.0115 14.0645 40.0115 13.1995C40.0115 12.7526 40.0115 12.4145 39.7318 12.0257C39.4145 11.5739 38.8193 11.5509 38.2098 11.5496H37.3258C36.8243 11.5496 36.4609 11.8004 35.9848 12.1928L32.238 15.2964V22.0925C32.238 23.0155 32.0416 23.9386 30.8932 23.9386C29.7485 23.9386 29.5522 23.0155 29.5522 22.0925V10.8086C29.5555 9.84359 29.6815 8.86395 30.8932 8.86395C31.9581 8.86395 32.238 9.75787 32.238 10.6519V11.746L34.3349 10.0086C35.0907 9.3946 35.8721 8.86395 36.7117 8.86395H38.8668ZM45.6863 3.3254C47.182 3.33164 47.619 3.62306 47.619 5.20052V21.2529H49.6325C50.5302 21.2529 51.4787 21.4493 51.4787 22.5977C51.4787 23.7715 50.4174 23.9386 49.6325 23.9386H42.7768C41.9956 23.9336 40.9648 23.7545 40.9648 22.5977C40.9648 21.4491 41.9134 21.2529 42.8111 21.2529H44.9371V6.01106H42.8111C42.0261 6.01106 40.9648 5.84384 40.9648 4.66629C40.9648 3.52161 41.9134 3.3254 42.8111 3.3254H45.6863Z" fill="#073551"/>
</g>
<defs>
<clipPath id="clip0_521_5806">
<rect width="79.8" height="24" fill="white" transform="translate(0.459961)"/>
</clipPath>
</defs>
</svg>
