<svg width="84" height="21" viewBox="0 0 84 21" fill="none" xmlns="http://www.w3.org/2000/svg">
<g clip-path="url(#clip0_389_482)">
<path d="M34.6274 8.03315C34.6269 7.10186 34.9875 6.20699 35.6327 5.53814C36.2779 4.86929 37.157 4.47902 38.0838 4.45003H38.1949C39.1837 4.43015 40.1449 4.77844 40.8934 5.42784L39.8153 6.74034C39.3776 6.32303 38.7984 6.08843 38.1949 6.08409C37.726 6.11217 37.2855 6.31902 36.9635 6.66238C36.6414 7.00574 36.462 7.45968 36.462 7.93143C36.462 8.40318 36.6414 8.85712 36.9635 9.20048C37.2855 9.54384 37.726 9.7507 38.1949 9.77877H38.2994C38.6852 9.77899 39.0625 9.66485 39.3841 9.45065V8.7944H38.0773V7.4819H41.1613V10.5203C40.348 11.2162 39.3155 11.5999 38.2472 11.6032C37.342 11.6482 36.4553 11.3344 35.7783 10.7292C35.1013 10.1241 34.6879 9.27608 34.6274 8.36784C34.6242 8.33072 34.6242 8.2934 34.6274 8.25627V8.03315ZM42.272 4.67315H45.539C45.9305 4.64591 46.3235 4.69875 46.6941 4.82847C47.0648 4.95819 47.4053 5.16209 47.6952 5.42784C47.9107 5.64003 48.08 5.89481 48.1925 6.17607C48.3049 6.45733 48.3581 6.75896 48.3486 7.0619C48.3539 7.5088 48.2219 7.94648 47.9705 8.31525C47.7191 8.68402 47.3606 8.96593 46.9438 9.12252L48.5642 11.5113H46.3884L44.9836 9.33909H44.1081V11.3997H42.272V4.67315ZM45.4083 7.9544C46.0617 7.9544 46.3753 7.62628 46.3753 7.19315C46.3753 6.64846 45.9441 6.4319 45.4083 6.4319H44.1015V7.9544H45.4083ZM49.1915 4.67315H54.595V6.18909H51.132V7.27846H54.399V8.7944H51.132V9.88378H54.8106V11.5113H49.1915V4.67315ZM55.6731 4.67315H57.4046L60.2142 8.25627V4.67315H62.0698V11.5113H60.4298L57.4961 7.70502V11.3997H55.6731V4.67315ZM65.6177 4.5944H67.4537L70.3744 11.4325H68.3228L67.7804 10.2382H65.1669L64.6246 11.4325H62.7232L65.6177 4.5944ZM67.2381 8.72221L66.4867 6.75346L65.7288 8.72221H67.2381ZM71.0213 4.70596H73.6348C76.0132 4.70596 77.418 6.1169 77.418 8.06596C77.418 10.015 76.0132 11.5441 73.4976 11.5441H71.0147L71.0213 4.70596ZM73.6348 9.80502C73.8456 9.83459 74.0601 9.822 74.2659 9.76798C74.4718 9.71397 74.665 9.61959 74.8345 9.49029C75.0039 9.36098 75.1462 9.1993 75.2532 9.01455C75.3601 8.8298 75.4297 8.62562 75.4578 8.41377C75.471 8.29821 75.471 8.18152 75.4578 8.06596C75.4847 7.63559 75.3412 7.21197 75.0584 6.88744C74.7757 6.56291 74.3767 6.36379 73.9485 6.33346H72.7528V9.80502H73.6348ZM78.4961 4.70596H83.8996V6.18909H80.3321V7.27846H83.599V8.7944H80.3321V9.88378H84.0107V11.5113H78.4046L78.4961 4.70596ZM34.7188 17.516C34.6907 16.5945 35.0279 15.6995 35.6564 15.0276C36.2849 14.3557 37.1533 13.962 38.0707 13.9328H38.2864C38.8419 13.9044 39.3956 14.0155 39.8976 14.2561C40.3996 14.4968 40.8339 14.8593 41.1613 15.311L39.7826 16.4069C39.6095 16.1674 39.3811 15.9737 39.1171 15.8422C38.8531 15.7108 38.5613 15.6456 38.2668 15.6522C37.8276 15.679 37.4153 15.8733 37.1141 16.1953C36.8129 16.5174 36.6455 16.9429 36.6463 17.3847C36.5904 17.8124 36.7043 18.245 36.9636 18.5889C37.2228 18.9328 37.6065 19.1603 38.0315 19.2222H38.1622H38.2668C38.5615 19.2259 38.8529 19.1587 39.1166 19.0263C39.3803 18.8939 39.6087 18.7 39.7826 18.461L41.1613 19.4388C40.7302 20.0567 40.116 20.5221 39.4061 20.7688C38.6962 21.0155 37.9269 21.0309 37.2078 20.8127C36.4887 20.5945 35.8566 20.1539 35.4014 19.5537C34.9463 18.9535 34.6914 18.2243 34.6731 17.47L34.7188 17.516ZM44.3433 14.0378H46.1793L49.1 20.876H47.0418L46.4864 19.6881H43.8729L43.3305 20.876H41.3704L44.3433 14.0378ZM45.9637 18.1722L45.2058 16.3216L44.4282 18.2444L45.9637 18.1722ZM49.1 19.9047L50.1846 18.5922C50.7823 19.1263 51.5477 19.4329 52.3473 19.4585C52.8831 19.4585 53.0987 19.2419 53.0987 19.0253C53.0987 18.6972 52.8831 18.5922 51.9096 18.3691C50.936 18.146 49.296 17.6078 49.296 16.1969C49.296 14.8844 50.2696 14.0247 51.9096 14.0247C52.9185 13.9719 53.9135 14.2787 54.7191 14.891L53.7456 16.2035C53.1735 15.7902 52.4899 15.5614 51.7854 15.5472C51.3542 15.5472 51.132 15.7638 51.132 15.9803C51.132 16.3085 51.3477 16.4135 52.3212 16.6366C53.2948 16.8597 54.8041 17.5028 54.8041 18.8022C54.8041 20.2131 53.726 20.9744 52.1056 20.9744C51.0022 20.9794 49.9319 20.5963 49.0804 19.8916L49.1 19.9047ZM57.3 15.7506H55.3399V14.005H61.2857V15.6391H59.2406V20.8497H57.2804L57.3 15.7506ZM62.0698 14.0116H63.9058V19.2222H67.1728V20.8497H62.0698V14.0116ZM68.0157 14.0116H73.5238V15.6391H69.9562V16.7219H73.2232V18.2444H69.9562V19.3272H73.5238V20.9613H68.0157V14.0116Z" fill="#23272F"/>
<path d="M13.192 18.7817H15.3547V20.9998H13.192V18.7817ZM0 14.3323H2.16273V16.5505H0V14.3323ZM0 18.7817H2.16273V20.9998H0V18.7817ZM4.42999 16.6095V18.7817H6.59272V20.9539H11.0227V18.7817H8.75545V16.6095H4.42999ZM6.59272 12.1602H8.75545V14.3783H6.59272V12.1602Z" fill="#23272F"/>
<path d="M22.052 0V4.44938H16.5373V0H11.0227V4.44938H5.51462V0H0V9.98812H2.16273V14.3325H4.43653V12.1603H6.59272V9.98812H4.42999V7.71094H6.59272V9.98812H8.75544V12.1603H11.0227V9.98812H13.1854V12.1603H11.0227V14.3325H8.75544V16.6162H13.192V14.3325H15.4592V18.7819H17.6416V20.9541H27.4424V0H22.052Z" fill="#23272F"/>
</g>
<defs>
<clipPath id="clip0_389_482">
<rect width="84" height="21" fill="white"/>
</clipPath>
</defs>
</svg>
